<svg width="174" height="167" viewBox="0 0 174 167" fill="none" xmlns="http://www.w3.org/2000/svg">
<g clip-path="url(#clip0_1_1283)">
<path d="M80.7617 112.659V155.59H84.0459V112.883L80.7617 112.659Z" fill="#D8D8D8"/>
<path d="M86.1191 117.619H86.7461V116.398H87.3134V119.496H86.7163V118.29H86.1341" fill="#AFAFAF"/>
<path d="M78.6406 112.495V126.378C78.6406 126.378 85.7762 126.646 86.0449 126.378C86.3136 126.11 86.0449 112.868 86.0449 112.868L78.6406 112.495Z" fill="#BFBFBF"/>
<path d="M84.045 155.187L109.064 161.89V163.276H106.616L83 157.541L84.045 155.187Z" fill="#BFBFBF"/>
<path d="M111.332 104.913H57.084V112.659H111.332V104.913Z" fill="#2A2D3A"/>
<path d="M58.0098 161.905C58.3382 161.801 80.7599 155.202 80.7599 155.202H82.402V157.407L58.0098 163.782V161.905Z" fill="#D8D8D8"/>
<path d="M83 155.187V157.541L93.0166 163.276H95.017V162.397L84.045 155.187H83Z" fill="#D8D8D8"/>
<path d="M59.9658 164.483C59.9658 165.496 59.1298 166.33 58.1147 166.33C57.0996 166.33 56.2637 165.51 56.2637 164.483C56.2637 163.455 57.0847 162.635 58.1147 162.635C59.1448 162.635 59.9658 163.455 59.9658 164.483Z" fill="#AFAFAF"/>
<path d="M96.749 164.483C96.749 165.496 95.913 166.33 94.8979 166.33C93.8828 166.33 93.0469 165.51 93.0469 164.483C93.0469 163.455 93.8828 162.635 94.8979 162.635C95.928 162.635 96.749 163.455 96.749 164.483Z" fill="#AFAFAF"/>
<path d="M111.095 164.483C111.095 165.496 110.259 166.33 109.244 166.33C108.229 166.33 107.393 165.51 107.393 164.483C107.393 163.455 108.229 162.635 109.244 162.635C110.259 162.635 111.095 163.455 111.095 164.483Z" fill="#AFAFAF"/>
<path d="M107.392 104.913L116.021 30.5815L58.1154 29.0919L62.5639 104.883L107.392 104.913Z" fill="#3B3F54"/>
<path d="M64.0716 84.3267L46.3223 85.429V91.3427H64.0716V84.3267Z" fill="#2A2D3A"/>
<path d="M121.618 83.4922L103.869 84.5945V90.5082H121.618V83.4922Z" fill="#2A2D3A"/>
<path d="M68.3252 94.1433C68.3252 94.1433 58.9803 106.388 60.4134 116.353C61.8465 126.319 69.0566 157.362 69.0566 157.362H72.2661C72.2661 157.362 77.9835 138.206 71.8332 117.783C71.8332 117.783 70.2061 103.781 84.1189 104.839C98.0318 105.911 94.1505 117.962 92.8816 122.044C90.7469 128.926 90.1498 130.356 92.4487 146.175C94.7327 161.935 94.3147 161.563 94.3147 161.563H97.5242C97.5242 161.563 102.167 134.854 104.302 119.899C106.436 104.943 106.048 100.251 99.1514 93.1453L68.3252 94.1433Z" fill="#434954"/>
<path d="M70.6546 157.347C70.6546 157.347 70.6248 157.303 70.6098 157.199C70.58 157.094 70.5352 156.945 70.4904 156.752C70.3859 156.349 70.2366 155.769 70.0426 155.009C69.6694 153.489 69.117 151.285 68.505 148.559C68.1915 147.188 67.8631 145.699 67.5347 144.09C67.2063 142.481 66.8629 140.753 66.5644 138.921C66.2658 137.089 65.9523 135.167 65.7135 133.171C65.4746 131.175 65.2507 129.09 65.0865 126.959C64.9223 124.829 64.7879 122.744 64.7432 120.733C64.6984 118.722 64.7581 116.771 64.9223 114.909C64.9969 113.985 65.1164 113.091 65.2507 112.212C65.3253 111.78 65.4 111.348 65.4896 110.931C65.5343 110.723 65.5642 110.514 65.6239 110.306C65.6687 110.097 65.7135 109.903 65.7732 109.695C65.818 109.486 65.8777 109.293 65.9225 109.099C65.9822 108.905 66.027 108.712 66.0717 108.518C66.1912 108.146 66.2957 107.758 66.4151 107.401C66.5345 107.043 66.6539 106.686 66.7883 106.343C66.848 106.165 66.9226 106.001 66.9823 105.837C67.0421 105.673 67.1167 105.509 67.1913 105.345C67.7437 104.049 68.3408 102.917 68.923 101.979C69.2066 101.502 69.5201 101.085 69.7888 100.683C70.0724 100.295 70.3411 99.9529 70.5949 99.655C70.7143 99.506 70.8338 99.357 70.9532 99.223C71.0726 99.0889 71.1771 98.9697 71.2816 98.8655C71.3861 98.7612 71.4757 98.6569 71.5652 98.5527C71.6548 98.4633 71.7444 98.3739 71.819 98.3143C71.9683 98.1654 72.0877 98.0611 72.1623 97.9866C72.237 97.9121 72.2818 97.8823 72.2818 97.8823C72.2818 97.8823 72.2519 97.927 72.1773 98.0015C72.1026 98.076 71.9981 98.1951 71.8638 98.3441C71.7891 98.4186 71.7145 98.508 71.6249 98.5973C71.5354 98.6867 71.4458 98.791 71.3562 98.9102C71.2517 99.0293 71.1472 99.1485 71.0427 99.2826C70.9382 99.4166 70.8188 99.5656 70.6994 99.7145C70.4456 100.012 70.2068 100.37 69.9231 100.757C69.6544 101.145 69.3559 101.577 69.0872 102.053C68.5199 103.007 67.9377 104.124 67.4003 105.42C67.3406 105.584 67.266 105.747 67.2063 105.911C67.1466 106.075 67.0868 106.254 67.0122 106.418C66.8778 106.76 66.7734 107.118 66.6539 107.475C66.5345 107.833 66.43 108.205 66.3255 108.593C66.2807 108.786 66.221 108.98 66.1762 109.174C66.1315 109.367 66.0717 109.561 66.027 109.769C65.9822 109.963 65.9374 110.172 65.8926 110.38C65.8478 110.589 65.818 110.797 65.7732 111.006C65.6836 111.423 65.6239 111.84 65.5493 112.272C65.4298 113.136 65.3104 114.03 65.2358 114.953C65.0716 116.785 65.0268 118.737 65.0716 120.733C65.1164 122.744 65.2358 124.829 65.4149 126.945C65.5791 129.075 65.7881 131.145 66.0419 133.141C66.2807 135.137 66.5793 137.059 66.8778 138.876C67.1764 140.694 67.5048 142.422 67.8183 144.045C68.1467 145.654 68.4602 147.159 68.7588 148.529C69.3559 151.255 69.8634 153.475 70.2068 154.994C70.371 155.754 70.5053 156.349 70.5949 156.752C70.6397 156.96 70.6695 157.109 70.6845 157.213C70.6546 157.303 70.6695 157.347 70.6546 157.347Z" fill="#32383F"/>
<path d="M95.9866 161.563C95.9866 161.563 95.9717 161.503 95.9717 161.384C95.9717 161.265 95.9717 161.101 95.9717 160.863C95.9717 160.416 95.9866 159.746 95.9866 158.882C96.0015 157.154 96.0463 154.666 96.106 151.597C96.1657 148.514 96.2702 144.85 96.4942 140.798C96.5987 138.772 96.7629 136.642 96.9719 134.422C97.0913 133.32 97.1958 132.203 97.3301 131.056C97.4495 129.924 97.6287 128.762 97.778 127.6C98.1213 125.276 98.5393 123.012 98.9722 120.837C99.3902 118.662 99.7634 116.562 99.9127 114.536C99.9574 114.03 99.9724 113.538 99.9873 113.046C99.9873 112.793 99.9873 112.555 99.9873 112.317C99.9873 112.197 99.9873 112.078 99.9873 111.959C99.9873 111.84 99.9724 111.721 99.9724 111.601C99.9276 110.648 99.8231 109.725 99.644 108.846C99.629 108.741 99.5992 108.622 99.5842 108.518C99.5693 108.414 99.5245 108.309 99.5096 108.19C99.4499 107.982 99.4051 107.758 99.3454 107.55C99.2111 107.133 99.0916 106.73 98.9274 106.343C98.7931 105.956 98.6139 105.583 98.4497 105.211C98.3602 105.032 98.2706 104.854 98.181 104.675C98.1362 104.585 98.0915 104.496 98.0467 104.422C98.0019 104.332 97.9571 104.258 97.9123 104.168C97.8227 104.004 97.7332 103.841 97.6287 103.677C97.5391 103.513 97.4346 103.364 97.3451 103.2C97.3003 103.126 97.2555 103.051 97.2107 102.962C97.1659 102.887 97.1062 102.813 97.0614 102.738C96.9569 102.589 96.8674 102.44 96.7778 102.306C96.5837 102.023 96.3897 101.74 96.1956 101.487C96.0015 101.234 95.8224 100.966 95.6283 100.727C94.8819 99.7591 94.1953 98.9696 93.628 98.3142C93.0607 97.6737 92.6129 97.1672 92.3143 96.8246C92.1651 96.6607 92.0456 96.5267 91.971 96.4373C91.8964 96.3479 91.8516 96.3032 91.8665 96.3032C91.8665 96.3032 91.9113 96.333 92.0009 96.4224C92.0904 96.4969 92.2098 96.6309 92.3591 96.7948C92.6726 97.1225 93.1354 97.6141 93.7176 98.2397C94.2998 98.8802 95.0014 99.6697 95.7627 100.623C95.9568 100.861 96.1508 101.115 96.3449 101.368C96.539 101.636 96.733 101.904 96.942 102.187C97.0316 102.336 97.1361 102.485 97.2406 102.619C97.2853 102.694 97.3451 102.768 97.3898 102.843C97.4346 102.917 97.4794 102.992 97.5391 103.081C97.6287 103.23 97.7332 103.394 97.8377 103.558C97.9272 103.721 98.0317 103.885 98.1213 104.049C98.1661 104.139 98.2109 104.213 98.2706 104.302C98.3154 104.392 98.3602 104.481 98.4049 104.571C98.4945 104.749 98.5841 104.928 98.6736 105.107C98.8378 105.479 99.017 105.852 99.1663 106.254C99.3305 106.641 99.4499 107.058 99.5992 107.475C99.6589 107.684 99.7186 107.907 99.7783 108.116C99.8082 108.22 99.838 108.324 99.8679 108.444C99.8977 108.548 99.9127 108.667 99.9425 108.771C100.137 109.665 100.241 110.603 100.301 111.572C100.301 111.691 100.316 111.81 100.316 111.944C100.316 112.063 100.331 112.182 100.331 112.317C100.331 112.57 100.331 112.808 100.331 113.061C100.316 113.553 100.301 114.059 100.256 114.566C100.122 116.607 99.7485 118.722 99.3305 120.897C98.8976 123.071 98.4945 125.321 98.1512 127.645C97.987 128.806 97.8227 129.953 97.7033 131.086C97.554 132.218 97.4496 133.335 97.3451 134.437C97.1361 136.642 96.9719 138.772 96.8524 140.798C96.6136 144.85 96.4942 148.514 96.4046 151.597C96.315 154.666 96.2404 157.154 96.1956 158.882C96.1658 159.746 96.1359 160.416 96.121 160.863C96.106 161.086 96.106 161.265 96.0911 161.384C96.0015 161.503 96.0015 161.563 95.9866 161.563Z" fill="#32383F"/>
<path d="M68.579 157.347H71.4302C71.4302 157.347 64.4439 162.68 63.6677 162.472C62.8765 162.263 69.0567 157.347 69.0567 157.347" fill="#272E33"/>
<path d="M94.8381 161.563C94.8381 161.563 97.1669 167.521 98.585 166.955C100.003 166.389 96.7041 161.563 96.7041 161.563H94.8381Z" fill="#272E33"/>
<path d="M70.6389 39.9663L77.4311 38.9236L91.7172 39.0725L95.5387 39.7578L86.8507 73.8549L76.1623 72.5738L70.6389 39.9663Z" fill="#E0E0E0"/>
<path d="M83.7614 42.6327C83.7614 42.6327 79.1487 73.4825 84.2391 84.4609L87.777 87.6487L91.1656 83.3735C91.1656 83.3735 86.1349 72.7079 85.508 60.2548C84.881 47.8165 85.299 42.5731 85.299 42.5731L83.7614 42.6327Z" fill="#F9AC30"/>
<path d="M78.7307 32.3842V38.8342C78.7307 38.8342 82.0746 43.5115 87.0904 40.6217L89.8968 38.6554V31.8628L78.7307 32.3842Z" fill="#FCCAB1"/>
<path d="M77.0588 38.8044L77.2528 36.4657L83.3733 39.3704L83.0747 42.7518L77.0588 38.8044Z" fill="#EAEAEA"/>
<path d="M83.3725 39.3705L84.2981 41.5453L83.1486 41.8581L83.3725 39.3705Z" fill="#CECECE"/>
<path d="M84.2988 41.5453L85.0751 39.3705L85.911 42.022L84.2988 41.5453Z" fill="#CECECE"/>
<path d="M90.7022 36.6146C90.7022 36.704 85.0744 39.3704 85.0744 39.3704L85.9104 42.588L91.7173 39.0725L90.7022 36.6146Z" fill="#EAEAEA"/>
<path d="M66.4749 41.8134C66.7734 41.0388 66.9376 40.6068 66.9376 40.6068L75.7899 39.0576L83.1494 69.4158L83.5524 95.0222L82.597 101.576L66.8928 95.5436L71.3563 86.2931L68.5946 60.2696" fill="#494F5E"/>
<path d="M99.8381 53.5813C100.346 48.6805 101.719 45.4629 101.644 40.4876L91.7173 39.0576L83.1487 69.4307L83.2084 96.0351L84.94 102.053L100.659 93.1751C100.659 93.1751 96.5241 85.6377 95.8673 72.3206C95.8673 71.7396 99.8381 53.5813 99.8381 53.5813Z" fill="#494F5E"/>
<path d="M74.0725 39.3704C74.2666 39.3406 75.7892 56.5754 75.7892 56.5754L78.73 60.1952L78.2673 62.5189L83.1487 71.4417V69.4307L75.7892 39.0725L74.0725 39.3704Z" fill="#3C424C"/>
<path d="M83.1643 41.2771L85.6722 41.1729L86.1947 42.6029L83.1195 42.8263L83.1643 41.2771Z" fill="#E8900F"/>
<path d="M83.7908 41.1729L83.6565 43.4073L85.2389 43.6754L85.3135 41.2175L83.7908 41.1729Z" fill="#F9AC30"/>
<path d="M83.1785 71.1587L88.0898 61.2081L87.4031 59.3312L90.6276 56.1285L93.016 39.296L91.7173 39.0725L83.1487 69.4307L83.1785 71.1587Z" fill="#3C424C"/>
<path d="M91.4338 57.6033L93.7626 54.1921C93.7626 54.1921 94.2104 54.356 94.3746 54.4156C94.5389 54.4752 94.5986 57.4395 94.5986 57.4395L91.4338 57.6033Z" fill="#E0E0E0"/>
<path d="M90.9562 57.3352H94.8673C94.8673 57.3352 95.0315 57.6182 94.8673 58.2737L90.8069 58.3183L90.9562 57.3352Z" fill="#3C424C"/>
<path d="M83.3877 96.631C83.3728 96.631 83.328 96.2735 83.2832 95.6329C83.2384 94.9924 83.1787 94.0688 83.1339 92.907C83.0294 90.613 82.9398 87.4252 82.91 83.9246C82.8801 80.4091 82.9249 77.2363 82.9996 74.9423C83.0294 73.7953 83.0742 72.8568 83.104 72.2163C83.1339 71.5758 83.1638 71.2183 83.1936 71.2183C83.2085 71.2183 83.2235 71.5758 83.2235 72.2163C83.2235 72.8568 83.2085 73.7953 83.2085 74.9423C83.1936 77.2363 83.1787 80.4091 83.2085 83.9246C83.2384 87.4252 83.2981 90.613 83.3429 92.907C83.3728 94.054 83.3877 94.9775 83.4026 95.6329C83.4175 96.2735 83.4175 96.631 83.3877 96.631Z" fill="#3C424C"/>
<path d="M85.3289 78.1748C85.3289 78.3833 85.1646 78.5472 84.9557 78.5472C84.7467 78.5472 84.5825 78.3833 84.5825 78.1748C84.5825 77.9662 84.7467 77.8024 84.9557 77.8024C85.1646 77.7875 85.3289 77.9662 85.3289 78.1748Z" fill="#3C424C"/>
<path d="M85.3289 83.1202C85.3289 83.3288 85.1646 83.4926 84.9557 83.4926C84.7467 83.4926 84.5825 83.3288 84.5825 83.1202C84.5825 82.9117 84.7467 82.7478 84.9557 82.7478C85.1646 82.7478 85.3289 82.9117 85.3289 83.1202Z" fill="#3C424C"/>
<path d="M92.0912 74.8677C92.1061 74.9422 88.9713 75.5678 85.1049 76.2381C81.2237 76.9084 78.0739 77.4 78.059 77.3106C78.044 77.2362 81.1789 76.6105 85.0452 75.9402C88.9265 75.2699 92.0763 74.7783 92.0912 74.8677Z" fill="#3C424C"/>
<path d="M91.6428 88.0955L97.7036 87.0081L98.7635 89.0786L92.1653 90.4788L91.6428 88.0955Z" fill="#3C424C"/>
<path d="M70.804 88.3188L75.6108 89.4212L75.1928 91.596L69.8635 90.4788L70.804 88.3188Z" fill="#3C424C"/>
<path d="M74.056 19.1266C73.5186 19.3053 70.6076 19.931 71.5929 23.6997C72.5781 27.4833 75.1308 26.5895 75.1308 26.5895L74.056 19.1266Z" fill="#EAB69B"/>
<path d="M74.2057 25.1892C74.2057 25.2041 74.1311 25.219 73.9967 25.2041C73.8624 25.1892 73.6832 25.1297 73.4742 25.0254C73.2652 24.9062 73.0413 24.7275 72.8473 24.4742C72.7577 24.3551 72.6681 24.2061 72.5935 24.0422C72.5188 23.8784 72.4741 23.7145 72.4442 23.5358C72.3845 23.1634 72.4442 22.8208 72.5338 22.5228C72.6383 22.2249 72.7875 21.9866 72.9518 21.8078C73.116 21.6291 73.2652 21.5248 73.3847 21.4652C73.5041 21.4056 73.5787 21.3907 73.5787 21.4056C73.6086 21.4503 73.3548 21.5993 73.116 21.9419C72.9965 22.1207 72.8771 22.3441 72.8025 22.6122C72.7278 22.8804 72.698 23.1932 72.7428 23.506C72.7726 23.6549 72.8174 23.8039 72.8622 23.9529C72.9219 24.0869 72.9965 24.221 73.0712 24.3402C73.2354 24.5636 73.4145 24.7424 73.5787 24.8615C73.937 25.0999 74.2057 25.1446 74.2057 25.1892Z" fill="#D68772"/>
<path d="M74.4586 23.4763C74.4138 23.4912 74.3392 23.3869 74.175 23.2529C74.0108 23.1337 73.757 22.9996 73.4733 23.0294C73.2942 23.0443 73.13 23.1188 73.0106 23.2082C72.8762 23.2975 72.7867 23.3869 72.727 23.4763L72.5777 23.3869C72.6672 23.2826 72.7419 23.238 72.7568 23.2529C72.7867 23.2677 72.7717 23.3571 72.712 23.4763L72.5627 23.3869C72.6075 23.2678 72.6822 23.1188 72.8314 22.9996C72.9807 22.8656 73.1897 22.7613 73.4435 22.7315C73.6376 22.7166 73.8316 22.7613 73.9809 22.8358C74.1302 22.9102 74.2496 23.0145 74.3242 23.1039C74.4884 23.2975 74.4884 23.4614 74.4586 23.4763Z" fill="#D68772"/>
<path d="M93.3719 18.5754C93.9093 18.7542 96.8203 19.3798 95.835 23.1485C94.8498 26.9321 92.2971 26.0384 92.2971 26.0384L93.3719 18.5754Z" fill="#EAB69B"/>
<path d="M93.2371 24.6381C93.2222 24.5934 93.5058 24.5338 93.8492 24.2806C94.0283 24.1614 94.2075 23.9827 94.3717 23.7443C94.4463 23.6252 94.5209 23.506 94.5807 23.3719C94.6404 23.2379 94.6851 23.0889 94.7001 22.9251C94.7449 22.6122 94.715 22.2994 94.6404 22.0313C94.5657 21.7632 94.4463 21.5397 94.3269 21.361C94.088 21.0035 93.8343 20.8694 93.8641 20.8247C93.879 20.8098 93.9387 20.8247 94.0582 20.8843C94.1776 20.9439 94.3269 21.063 94.4911 21.2269C94.6553 21.4057 94.8046 21.644 94.9091 21.9419C95.0136 22.2398 95.0583 22.5973 95.0136 22.9548C94.9837 23.1336 94.924 23.3124 94.8643 23.4613C94.7896 23.6252 94.7001 23.7592 94.6105 23.8933C94.4164 24.1465 94.1925 24.3253 93.9835 24.4445C93.7745 24.5636 93.5954 24.6083 93.4611 24.6232C93.3118 24.6679 93.2371 24.653 93.2371 24.6381Z" fill="#D68772"/>
<path d="M92.968 22.9103C92.9381 22.8954 92.953 22.7315 93.1023 22.5379C93.1769 22.4485 93.2964 22.3442 93.4456 22.2697C93.5949 22.1952 93.789 22.1506 93.9831 22.1655C94.2368 22.1803 94.4458 22.2995 94.5951 22.4336C94.7444 22.5676 94.819 22.7166 94.8638 22.8358L94.7145 22.9252C94.6548 22.806 94.6399 22.7166 94.6697 22.7017C94.6996 22.6868 94.7593 22.7315 94.8489 22.8358L94.6996 22.9252C94.6399 22.8507 94.5354 22.7464 94.416 22.657C94.2965 22.5676 94.1323 22.5081 93.9532 22.4783C93.6696 22.4485 93.4158 22.5825 93.2516 22.7017C93.0874 22.8209 93.0127 22.9252 92.968 22.9103Z" fill="#D68772"/>
<path d="M90.7906 34.5588C87.8498 37.6274 77.1465 35.4377 75.6686 34.0821C74.1908 32.7117 73.3697 15.1194 73.3697 15.1194C72.7577 6.03281 77.9675 5.48166 82.9833 4.1857C87.9991 2.90464 93.3433 5.79448 93.8359 13.2723C93.8359 13.2872 93.1791 32.0712 90.7906 34.5588Z" fill="#FCCAB1"/>
<path d="M74.1455 26.1277C81.5348 26.3363 88.0882 25.7702 93.2682 23.9231C93.2682 23.9231 92.3277 31.6393 92.059 32.4586C91.4768 34.3206 91.1932 36.7039 83.3113 36.0038C75.4144 35.3186 75.5935 34.6781 74.9367 32.9054C74.5934 31.9521 74.0858 26.2022 74.1455 26.1277Z" fill="#B76A2B"/>
<path d="M85.4464 23.5804C85.4613 23.5953 85.3269 23.7294 85.0582 23.9379C84.7895 24.1465 84.3865 24.4295 83.8491 24.7274C83.5804 24.8764 83.2818 25.0254 82.9235 25.1445C82.834 25.1743 82.7444 25.2041 82.6548 25.219C82.6101 25.2339 82.5653 25.2339 82.5056 25.2488C82.4608 25.2637 82.4011 25.2637 82.3563 25.2637C82.2966 25.2637 82.2667 25.2786 82.1772 25.2488C82.1025 25.2339 82.0279 25.1594 81.9831 25.0998C81.9084 24.9658 81.9084 24.8615 81.9084 24.7423C81.9084 24.5189 81.9383 24.3103 81.9831 24.1018C82.0279 23.8933 82.0727 23.6847 82.1324 23.4762C82.2518 23.0591 82.3861 22.6271 82.5503 22.1802C82.8638 21.3162 83.1923 20.4969 83.4908 19.7521C83.5654 19.5734 83.6401 19.3946 83.7147 19.2159C83.7297 19.1712 83.7446 19.1265 83.7595 19.0818L83.7744 19.0222C83.7744 19.0073 83.7744 18.9924 83.7744 18.9775V18.9478V18.918V18.8584C83.7744 18.8137 83.7744 18.769 83.7744 18.7392C83.7446 18.3966 83.6998 18.0689 83.6401 17.771C83.446 16.5942 83.2967 15.8494 83.3415 15.8494C83.3565 15.8494 83.4311 16.0281 83.5207 16.3409C83.6102 16.6686 83.7297 17.1453 83.864 17.7263C83.9237 18.0242 83.9984 18.3519 84.0282 18.7094C84.0282 18.7541 84.0431 18.7988 84.0431 18.8435V18.918V18.9478V18.9924L84.0282 19.0818C84.0133 19.1116 84.0133 19.1265 83.9984 19.1563C83.9834 19.201 83.9685 19.2457 83.9536 19.2904C83.8789 19.4691 83.8192 19.6479 83.7446 19.8415C83.446 20.5863 83.1325 21.3907 82.834 22.2547C82.6847 22.6867 82.5354 23.1038 82.4309 23.5208C82.3712 23.7294 82.3264 23.923 82.2816 24.1316C82.2369 24.3252 82.207 24.5338 82.207 24.7125C82.207 24.8019 82.2219 24.8913 82.2369 24.936C82.2518 24.9658 82.2518 24.9658 82.2667 24.9658C82.2667 24.9658 82.3264 24.9658 82.3712 24.9658C82.416 24.9658 82.4608 24.9658 82.4906 24.9658C82.5354 24.9509 82.5802 24.9509 82.625 24.936C82.7146 24.9211 82.7892 24.8913 82.8788 24.8764C83.2072 24.7721 83.5057 24.6381 83.7744 24.5189C84.3118 24.2508 84.7298 23.9975 85.0135 23.8188C85.2672 23.6698 85.4314 23.5655 85.4464 23.5804Z" fill="#E2A893"/>
<path d="M85.8635 13.7789L91.8496 14.3449L92.0885 12.9745L85.8934 11.4551L85.8635 13.7789Z" fill="#B9682B"/>
<path d="M86.1172 18.784C86.1172 18.784 86.9383 15.6409 89.2223 15.9389C91.5062 16.2368 91.7152 19.0075 91.7152 19.0075L86.1172 18.784Z" fill="#EFA98E"/>
<path d="M86.1174 18.784C86.1174 18.784 86.4458 16.788 88.8343 16.6837C91.2228 16.5794 91.7005 19.0075 91.7005 19.0075C91.7005 19.0075 87.3863 18.8585 86.1174 18.784Z" fill="#ECE9DE"/>
<path d="M87.5198 18.8436C87.5198 18.8436 87.5795 17.1752 89.0872 17.1156C90.58 17.056 90.5352 18.9925 90.5352 18.9925C90.5352 18.9925 89.2962 19.1713 87.5198 18.8436Z" fill="#603934"/>
<path d="M91.7002 18.9925C91.6554 19.0074 91.5509 18.5754 91.1777 17.9945C90.9837 17.7115 90.715 17.4136 90.3418 17.1603C89.9686 16.922 89.4909 16.773 88.9833 16.773C88.4758 16.773 87.9981 16.922 87.61 17.1454C87.2218 17.354 86.9233 17.6519 86.7143 17.92C86.2963 18.4563 86.1769 18.8883 86.1172 18.8734C86.1022 18.8734 86.1172 18.7542 86.162 18.5605C86.2217 18.3669 86.3262 18.0988 86.5352 17.786C86.7441 17.488 87.0427 17.1603 87.4607 16.9071C87.8787 16.6539 88.4011 16.4751 88.9833 16.4751C89.5506 16.4751 90.088 16.6538 90.4911 16.9369C90.8941 17.2199 91.1777 17.5625 91.3569 17.8902C91.7002 18.5308 91.7301 18.9925 91.7002 18.9925Z" fill="#443949"/>
<path d="M91.029 18.1585C91.029 18.2479 90.7603 18.3372 90.417 18.3372C90.0736 18.3372 89.8049 18.2479 89.8049 18.1585C89.8049 18.0691 90.0886 18.0244 90.417 18.0244C90.7603 18.0393 91.029 18.084 91.029 18.1585Z" fill="white"/>
<path d="M76.3106 18.5904C76.3106 18.5904 77.1316 15.4473 79.4156 15.7453C81.6996 16.0432 81.9086 18.8139 81.9086 18.8139L76.3106 18.5904Z" fill="#EFA98E"/>
<path d="M76.3108 18.5904C76.3108 18.5904 76.6392 16.5944 79.0277 16.4901C81.4161 16.3858 81.8938 18.8139 81.8938 18.8139C81.8938 18.8139 77.5946 18.6798 76.3108 18.5904Z" fill="#ECE9DE"/>
<path d="M78.0276 18.6648C78.0276 18.6648 78.0873 16.9965 79.595 16.9369C81.0878 16.8773 81.043 18.8138 81.043 18.8138C81.043 18.8138 79.804 18.9926 78.0276 18.6648Z" fill="#603934"/>
<path d="M81.8936 18.8138C81.8339 18.8287 81.7443 18.3967 81.3711 17.8158C81.192 17.5328 80.9083 17.2348 80.5351 16.9816C80.1619 16.7433 79.6842 16.5943 79.1767 16.5943C78.6691 16.5943 78.1914 16.7433 77.8033 16.9667C77.4152 17.1902 77.1166 17.4732 76.9076 17.7413C76.4897 18.2776 76.3702 18.7096 76.3105 18.6947C76.2956 18.6947 76.3105 18.5755 76.3553 18.3818C76.415 18.1882 76.5195 17.9201 76.7285 17.6072C76.9375 17.3093 77.2361 16.9816 77.654 16.7284C78.072 16.4751 78.5945 16.2964 79.1767 16.2964C79.744 16.2964 80.2814 16.4751 80.6844 16.7582C81.0875 17.0412 81.3711 17.3838 81.5502 17.7115C81.9085 18.352 81.9234 18.7989 81.8936 18.8138Z" fill="#443949"/>
<path d="M81.2361 17.9798C81.2361 18.0542 80.9674 18.1585 80.624 18.1585C80.2807 18.1585 80.012 18.0691 80.012 17.9798C80.012 17.8904 80.2956 17.8457 80.624 17.8457C80.9524 17.8457 81.2211 17.8904 81.2361 17.9798Z" fill="white"/>
<path d="M75.6975 14.3449C75.6975 14.3449 81.9822 14.2555 82.027 14.1363C82.0717 14.0171 82.027 11.738 82.027 11.738L75.6975 13.0489V14.3449Z" fill="#B9682B"/>
<path d="M74.1611 20.8397C74.1611 20.8397 72.7877 10.1741 75.3255 7.38853C75.3255 7.38853 87.5067 11.1125 89.5816 9.57825C91.6566 8.04396 91.8358 7.22467 91.8358 7.22467C91.8358 7.22467 92.7314 11.9616 93.2241 13.7938C93.7167 15.6261 93.2241 19.1564 93.2241 19.1564L94.0451 18.7989C94.0451 18.7989 94.8214 6.58414 93.866 6.01809C92.9106 5.45204 88.3725 0.864045 84.0882 2.1898C79.7889 3.51555 72.3996 7.09061 72.3548 9.71232C72.31 12.334 73.7133 20.9738 73.7133 20.9738L74.1611 20.8397Z" fill="#B76A2B"/>
<path d="M81.7131 3.03882C81.7131 3.03882 88.9681 -0.729892 90.5803 0.59586C92.1925 1.93651 91.7298 4.37947 91.7298 4.37947C91.7298 4.37947 92.6852 3.70914 93.5361 4.37947C94.3869 5.04979 94.2825 7.80556 94.2825 7.80556L89.0577 6.03293L81.7131 3.03882Z" fill="#B76A2B"/>
<path d="M75.3388 7.38843C75.3388 7.38843 72.1293 9.62284 72.3532 11.2465L72.6518 13.4958L73.9057 12.036C73.9057 12.0509 74.3984 9.10148 75.3388 7.38843Z" fill="#D17933"/>
<path d="M80.2063 8.69934C91.7904 5.70523 88.6107 0.387329 88.6107 0.387329L86.2521 1.04276C88.8794 5.54137 76.7579 7.79068 76.7579 7.79068L80.2063 8.69934Z" fill="#D17933"/>
<path d="M86.0276 9.83155C86.0276 9.83155 91.6106 6.92681 91.7301 4.37958C91.7301 4.37958 92.4167 3.84332 92.9691 4.11145C92.9691 4.11145 93.3124 7.25453 87.8936 9.93582L86.0276 9.83155Z" fill="#D17933"/>
<path d="M92.0881 8.47583C92.0881 8.47583 94.2228 8.595 94.2825 9.13126L94.3572 11.455L92.3867 9.96544L92.0881 8.47583Z" fill="#D17933"/>
<path d="M86.9686 13.8832L86.5059 11.6041L87.8942 11.9467L88.3719 14.0173L86.9686 13.8832Z" fill="#D17933"/>
<path d="M89.3564 14.1066L89.1624 12.2595L89.5057 12.334L89.9685 14.1662L89.3564 14.1066Z" fill="#D17933"/>
<path d="M81.4594 11.8423L80.9519 14.1661L79.8323 14.2555L80.504 12.0508L81.4594 11.8423Z" fill="#D17933"/>
<path d="M78.6687 14.2854L79.1016 12.334L78.5343 12.5872L78.2507 13.7789L78.1014 12.5872L77.3849 12.6915L77.5491 14.2854H78.6687Z" fill="#D17933"/>
<path d="M78.4903 19.9161C78.4903 19.9161 81.461 20.2289 81.8939 18.6946L76.3109 18.635C76.3109 18.6499 76.6841 19.6628 78.4903 19.9161Z" fill="#D8A99A"/>
<path d="M88.3278 20.0948C88.3278 20.0948 91.388 20.4076 91.8359 18.8733L86.0886 18.8137C86.0737 18.8286 86.4618 19.8415 88.3278 20.0948Z" fill="#D8A99A"/>
<path d="M87.3867 27.7068C87.3718 27.8706 85.879 27.811 84.0578 27.7812C82.2366 27.7514 80.7438 27.7514 80.7289 27.5876C80.7139 27.4237 82.2067 27.1407 84.0727 27.1854C85.9238 27.2152 87.4166 27.5429 87.3867 27.7068Z" fill="#D68772"/>
<path d="M81.1027 1.28385e-05C81.1326 -0.0297793 81.3416 0.134078 81.5655 0.50648C81.7894 0.878882 81.9835 1.45983 81.9238 2.13015C81.864 2.80048 81.5804 3.35163 81.2968 3.67935C81.0131 4.00706 80.7892 4.14112 80.7594 4.11133C80.7295 4.08154 80.9087 3.88789 81.1176 3.56018C81.3266 3.21757 81.5655 2.7111 81.6103 2.11526C81.655 1.51941 81.5058 0.968258 81.3565 0.610752C81.2221 0.23835 81.0729 0.029805 81.1027 1.28385e-05Z" fill="#B76A2B"/>
<path d="M72.2053 5.25827C72.2053 5.25827 72.2053 5.19869 72.265 5.1391C72.3247 5.06462 72.474 5.00504 72.6531 5.03483C72.7427 5.04973 72.8472 5.09441 72.9218 5.18379C73.0114 5.27317 73.0412 5.40723 73.0412 5.5413C73.0412 5.67536 72.9815 5.80943 72.892 5.9286C72.8472 5.98818 72.7875 6.04776 72.7277 6.09245C72.668 6.13714 72.5785 6.16693 72.5038 6.19672C72.1754 6.2861 71.8171 6.19672 71.5037 5.98818C71.1902 5.79453 70.9215 5.48171 70.7722 5.09441C70.6229 4.70712 70.608 4.23044 70.7871 3.81335C70.9513 3.39626 71.3096 3.02386 71.7574 2.84511C72.2202 2.66635 72.6979 2.69614 73.1159 2.80042C73.5339 2.90469 73.922 3.05365 74.2802 3.21751C74.6385 3.38136 74.9669 3.56012 75.2506 3.76866C75.5342 3.97721 75.773 4.20065 75.9522 4.45388C76.3105 4.94545 76.4448 5.43702 76.4448 5.76474C76.4448 6.10735 76.3702 6.2712 76.3552 6.2712C76.3254 6.2712 76.3702 6.09245 76.3254 5.77963C76.2806 5.46682 76.1462 5.01993 75.788 4.58795C75.4297 4.15596 74.8624 3.76866 74.1758 3.47074C73.8324 3.32178 73.4592 3.17282 73.0711 3.08344C72.668 2.99407 72.2501 2.97917 71.8619 3.12813C71.4887 3.2622 71.1902 3.57501 71.0558 3.93252C70.9065 4.29003 70.9065 4.67732 71.026 5.00504C71.1454 5.33275 71.3693 5.61578 71.638 5.77963C71.8918 5.95839 72.2053 6.04776 72.4441 5.98818C72.683 5.94349 72.8472 5.72005 72.877 5.5413C72.892 5.45192 72.8621 5.34765 72.8173 5.28806C72.7725 5.22848 72.6979 5.18379 72.6233 5.16889C72.4889 5.12421 72.3695 5.154 72.2948 5.19869C72.2351 5.22848 72.2202 5.27317 72.2053 5.25827Z" fill="#B76A2B"/>
<path d="M78.5049 1.80233C78.5348 1.83213 78.4154 2.02578 78.2362 2.33859C78.1467 2.50245 78.0571 2.6812 77.9526 2.90464C77.863 3.11319 77.7735 3.36642 77.6839 3.61966C77.6092 3.88779 77.5495 4.14102 77.5197 4.36446C77.4898 4.6028 77.46 4.81134 77.445 4.9901C77.4152 5.3476 77.4301 5.57104 77.3853 5.58594C77.3555 5.58594 77.2659 5.37739 77.236 4.9901C77.2211 4.79645 77.2211 4.57301 77.236 4.33467C77.2659 4.08144 77.3107 3.81331 77.3853 3.53028C77.4749 3.24725 77.5794 2.99402 77.6839 2.77058C77.8033 2.54714 77.9227 2.35349 78.0422 2.20453C78.281 1.9215 78.4751 1.77254 78.5049 1.80233Z" fill="#B76A2B"/>
<path d="M96.4793 12.5425C96.4644 12.5872 96.2853 12.5723 96.0016 12.6021C95.927 12.6021 95.8524 12.617 95.7777 12.6319C95.6881 12.6468 95.6135 12.6617 95.5239 12.6915C95.3448 12.7362 95.1507 12.8106 94.9567 12.9C94.7626 12.9894 94.5984 13.1086 94.4491 13.2277C94.3745 13.2873 94.3148 13.3469 94.2551 13.4065C94.1953 13.4661 94.1356 13.5257 94.0908 13.5703C93.8968 13.7789 93.7923 13.9279 93.7624 13.913C93.7326 13.8981 93.7624 13.7044 93.9266 13.4363C93.9714 13.3767 94.0162 13.3022 94.0759 13.2277C94.1356 13.1533 94.1953 13.0937 94.27 13.0192C94.4193 12.8851 94.6133 12.7511 94.8223 12.6319C95.0313 12.5276 95.2552 12.4531 95.4642 12.4233C95.5687 12.4085 95.6583 12.3936 95.7479 12.3936C95.8374 12.3936 95.927 12.3936 96.0016 12.3936C96.3151 12.4233 96.4793 12.5127 96.4793 12.5425Z" fill="#B76A2B"/>
<path d="M95.643 15.5664C95.5982 15.5664 95.5535 15.4025 95.434 15.1642C95.4042 15.1046 95.3743 15.045 95.3295 14.9705C95.2848 14.896 95.24 14.8364 95.1803 14.762C95.0608 14.6279 94.9265 14.4938 94.7772 14.3598C94.613 14.2406 94.4488 14.1363 94.2846 14.0767C94.195 14.047 94.1204 14.0172 94.0457 13.9874C93.9711 13.9576 93.8965 13.9427 93.8368 13.9278C93.5681 13.8682 93.3889 13.8682 93.3889 13.8235C93.3889 13.7937 93.5531 13.7043 93.8666 13.7043C93.9412 13.7043 94.0308 13.7043 94.1204 13.7341C94.2099 13.749 94.2995 13.7788 94.404 13.8086C94.5981 13.8682 94.7921 13.9725 94.9862 14.1214C95.1653 14.2704 95.3146 14.4343 95.434 14.5981C95.4938 14.6875 95.5385 14.762 95.5684 14.8513C95.6132 14.9258 95.6281 15.0152 95.658 15.0897C95.7027 15.3727 95.6729 15.5664 95.643 15.5664Z" fill="#B76A2B"/>
<path d="M73.161 15.0599C73.1909 15.045 73.3252 15.2685 73.3252 15.6557C73.3252 15.8494 73.2805 16.0877 73.176 16.3261C73.0715 16.5644 72.8923 16.8176 72.6535 17.0113C72.3997 17.2049 72.131 17.3092 71.8623 17.3539C71.5936 17.3986 71.3548 17.3688 71.1756 17.3241C70.7875 17.2198 70.6084 17.0411 70.6382 17.0113C70.6681 16.9666 70.8621 17.0709 71.2204 17.1156C71.3995 17.1305 71.6085 17.1305 71.8175 17.0858C72.0414 17.0411 72.2654 16.9368 72.4743 16.7879C72.6684 16.624 72.8326 16.4303 72.9222 16.2218C73.0267 16.0133 73.0864 15.8196 73.1013 15.6409C73.176 15.2982 73.1162 15.0599 73.161 15.0599Z" fill="#B76A2B"/>
<path d="M73.5198 17.6815C73.5348 17.7709 73.1765 17.9199 72.7436 18.1433C72.3107 18.3668 71.9823 18.5902 71.9226 18.5157C71.8628 18.4561 72.1315 18.1135 72.5943 17.8752C73.072 17.622 73.5049 17.5922 73.5198 17.6815Z" fill="#B76A2B"/>
<path d="M85.6849 37.5679C85.6103 37.5977 85.2371 36.9125 85.058 35.9591C84.8788 35.0058 84.9684 34.2312 85.043 34.2312C85.1326 34.2312 85.1774 34.9909 85.3565 35.8996C85.5357 36.8231 85.7745 37.5381 85.6849 37.5679Z" fill="#B76A2B"/>
<path d="M87.4321 37.7318C87.4023 37.7616 87.2381 37.6127 87.0291 37.3445C86.8201 37.0764 86.5663 36.6742 86.3573 36.1975C86.1483 35.7209 86.0289 35.2591 85.9692 34.9314C85.9095 34.6037 85.9244 34.3802 85.9543 34.3802C86.0439 34.3653 86.223 35.1697 86.626 36.0784C87.0291 37.0019 87.5068 37.6722 87.4321 37.7318Z" fill="#B76A2B"/>
<path d="M92.9562 28.9877C92.9413 28.9877 92.9264 28.8834 93.0159 28.7345C93.1055 28.5855 93.3294 28.4216 93.6578 28.4216C93.8071 28.4216 94.0012 28.4812 94.1505 28.6004C94.2997 28.7196 94.4042 28.9132 94.449 29.1069C94.4938 29.3154 94.4789 29.5388 94.3893 29.7623C94.2997 29.9708 94.1206 30.1496 93.9265 30.2836C93.7325 30.4028 93.5086 30.4773 93.2846 30.4922C93.0607 30.5071 92.8517 30.4922 92.6726 30.4326C92.2994 30.3283 92.0008 30.1347 91.7769 29.9708C91.553 29.7921 91.3888 29.6282 91.2843 29.5239C91.1798 29.4048 91.135 29.3452 91.135 29.3154C91.1499 29.3005 91.2246 29.3452 91.3589 29.4346C91.4933 29.5239 91.6724 29.658 91.8963 29.807C92.1203 29.9559 92.4039 30.1049 92.7472 30.1794C93.0756 30.2538 93.4638 30.239 93.7773 30.0304C93.9415 29.9261 94.0609 29.7921 94.1355 29.6431C94.2102 29.4941 94.2251 29.3303 94.1952 29.1664C94.1654 29.0175 94.1057 28.8834 94.0012 28.7791C93.9116 28.6749 93.7922 28.6302 93.6728 28.6153C93.4339 28.5855 93.2398 28.6898 93.1354 28.794C93.001 28.8983 92.9711 28.9877 92.9562 28.9877Z" fill="#B76A2B"/>
<path d="M81.5661 19.9161C81.581 19.9459 81.3571 20.1246 80.9391 20.3183C80.8346 20.363 80.7152 20.4226 80.5808 20.4524C80.4465 20.497 80.3121 20.5417 80.1628 20.5715C79.8643 20.646 79.5209 20.6907 79.1776 20.7056C78.8193 20.7205 78.476 20.6907 78.1774 20.646C78.0281 20.6162 77.8789 20.5864 77.7445 20.5566C77.6102 20.5268 77.4907 20.4822 77.3862 20.4524C76.9533 20.3034 76.7145 20.1395 76.7294 20.0949C76.7443 20.0502 77.013 20.1395 77.446 20.2438C77.5505 20.2736 77.6699 20.2885 77.8042 20.3183C77.9386 20.3481 78.0729 20.363 78.2222 20.3779C78.5208 20.4077 78.8343 20.4226 79.1776 20.4077C79.5209 20.3928 79.8344 20.3481 80.1181 20.3034C80.2673 20.2736 80.4017 20.2438 80.5211 20.214C80.6555 20.1842 80.76 20.1395 80.8645 20.1097C81.2824 19.9906 81.5362 19.8714 81.5661 19.9161Z" fill="#E2A893"/>
<path d="M91.2089 20.5119C91.2238 20.5417 90.9551 20.7055 90.4923 20.8396C90.3729 20.8694 90.2386 20.9141 90.1042 20.9439C89.9699 20.9736 89.8057 21.0034 89.6414 21.0183C89.313 21.0481 88.9548 21.063 88.5816 21.0481C88.2084 21.0183 87.8501 20.9588 87.5366 20.8694C87.3873 20.8247 87.2231 20.78 87.0888 20.7204C86.9544 20.6757 86.835 20.6161 86.7156 20.5715C86.2677 20.3629 86.0289 20.1693 86.0438 20.1395C86.0737 20.0948 86.3424 20.2288 86.7902 20.3778C86.9096 20.4225 87.0291 20.4523 87.1634 20.497C87.2978 20.5417 87.447 20.5715 87.5963 20.6012C87.8949 20.6608 88.2382 20.7204 88.5965 20.7502C88.9548 20.78 89.2981 20.7651 89.6116 20.7502C89.7609 20.7353 89.9102 20.7204 90.0594 20.7055C90.1938 20.6906 90.3281 20.6608 90.4476 20.6459C90.9103 20.5566 91.1939 20.4672 91.2089 20.5119Z" fill="#E2A893"/>
<path d="M137.799 78.4723L137.291 70.8306L164.251 71.6201L165.385 78.4127L137.799 78.4723Z" fill="#FFC729"/>
<path d="M143.347 73.9634L143.307 75.3481L160.168 75.8363L160.209 74.4515L143.347 73.9634Z" fill="#2A2C3F"/>
<path d="M140.337 78.5466C140.262 78.5466 140.172 78.1146 140.128 77.4294C140.083 76.7293 140.083 75.776 140.083 74.7332C140.083 74.2119 140.083 73.7054 140.068 73.2585C140.053 72.8116 140.038 72.3945 140.023 72.0519C139.993 71.3667 139.978 70.9347 140.068 70.9198C140.143 70.9049 140.307 71.3071 140.456 72.0072C140.531 72.3499 140.59 72.7669 140.62 73.2287C140.665 73.6905 140.68 74.197 140.68 74.7332C140.68 75.7908 140.605 76.7442 140.546 77.4443C140.486 78.1146 140.411 78.5466 140.337 78.5466Z" fill="#E0892B"/>
<path d="M162.325 78.4128C162.16 78.4277 161.951 76.8636 161.862 74.9271C161.772 72.9906 161.832 71.4116 161.996 71.4116C162.16 71.4116 162.369 72.9608 162.459 74.8973C162.549 76.8338 162.489 78.4128 162.325 78.4128Z" fill="#E0892B"/>
<path d="M134.381 71.337L133.933 63.6953L160.893 64.7678L161.953 71.5604L134.381 71.337Z" fill="#2A2C3F"/>
<path d="M133.889 64.7678L160.983 65.3339L161.819 70.622L134.351 70.8305C134.351 70.8305 133.933 64.0379 133.889 65.1104" fill="#E8E8E8"/>
<g opacity="0.51">
<path d="M160.788 69.6984C160.788 69.7132 160.43 69.7281 159.773 69.7132C159.116 69.7132 158.191 69.6835 157.026 69.6537C154.698 69.5941 151.503 69.46 147.965 69.2664C144.427 69.0727 141.218 68.8493 138.904 68.6556C137.739 68.5662 136.814 68.4769 136.172 68.4024C135.53 68.3428 135.172 68.2832 135.172 68.2683C135.172 68.2534 135.53 68.2534 136.187 68.2832C136.829 68.313 137.769 68.3726 138.934 68.4322C141.248 68.5662 144.457 68.7599 147.995 68.9535C151.533 69.1472 154.727 69.3111 157.056 69.4302C158.221 69.4898 159.161 69.5494 159.803 69.5792C160.43 69.6388 160.788 69.6835 160.788 69.6984Z" fill="#A08472"/>
</g>
<g opacity="0.51">
<path d="M160.012 67.6726C160.012 67.6875 159.668 67.6875 159.026 67.6726C158.399 67.6428 157.489 67.613 156.354 67.5832C154.1 67.4938 150.98 67.4044 147.547 67.3597C144.099 67.3151 140.994 67.3449 138.739 67.3746C137.62 67.3895 136.694 67.4044 136.067 67.4193C135.44 67.4193 135.082 67.4193 135.082 67.4044C135.082 67.3895 135.425 67.3448 136.052 67.3151C136.679 67.2704 137.59 67.2257 138.724 67.181C140.979 67.0916 144.099 67.032 147.547 67.0767C150.995 67.1214 154.115 67.2406 156.354 67.3895C157.474 67.464 158.385 67.5236 159.026 67.5832C159.668 67.5981 160.012 67.6428 160.012 67.6726Z" fill="#A08472"/>
</g>
<g opacity="0.51">
<path d="M160.52 67.2555C160.52 67.2704 160.162 67.2406 159.52 67.181C159.206 67.1512 158.803 67.1066 158.356 67.047C157.908 67.0023 157.385 66.9427 156.818 66.8831C156.251 66.8235 155.624 66.7639 154.952 66.6895C154.28 66.6299 153.564 66.5703 152.802 66.4958C151.28 66.3766 149.623 66.2575 147.861 66.1681C146.115 66.0787 144.443 66.034 142.92 65.9894C142.159 65.9745 141.442 65.9596 140.756 65.9596C140.084 65.9596 139.442 65.9596 138.875 65.9596C138.292 65.9596 137.785 65.9596 137.322 65.9745C136.859 65.9745 136.471 65.9745 136.143 65.9894C135.501 65.9894 135.143 65.9893 135.143 65.9596C135.143 65.9447 135.501 65.9 136.143 65.8702C136.471 65.8553 136.859 65.8255 137.322 65.8106C137.785 65.7957 138.307 65.7659 138.875 65.751C139.457 65.7361 140.084 65.7212 140.756 65.7212C141.427 65.7063 142.159 65.7212 142.92 65.7212C144.443 65.7361 146.115 65.7808 147.876 65.8702C149.638 65.9596 151.31 66.0936 152.817 66.2277C153.579 66.3022 154.295 66.3767 154.967 66.4511C155.639 66.5256 156.266 66.6001 156.833 66.6746C157.4 66.749 157.923 66.8235 158.37 66.8831C158.818 66.9427 159.206 67.0023 159.535 67.0619C160.177 67.1512 160.52 67.2257 160.52 67.2555Z" fill="#A08472"/>
</g>
<path d="M134.873 64.1273L134.59 56.4707L161.52 58.0646L162.46 64.887L134.873 64.1273Z" fill="#E0892B"/>
<path d="M134.531 57.5432L161.61 58.6306L162.341 63.9187L134.874 63.6059C134.874 63.6059 134.575 56.8133 134.516 57.8858" fill="#E8E8E8"/>
<g opacity="0.51">
<path d="M161.326 62.9953C161.326 63.0102 160.968 63.0102 160.311 62.9953C159.669 62.9804 158.729 62.9357 157.564 62.891C155.251 62.7719 152.041 62.5931 148.503 62.325C144.965 62.0568 141.771 61.7738 139.457 61.5355C138.307 61.4163 137.367 61.312 136.725 61.2376C136.083 61.1631 135.725 61.1035 135.725 61.0886C135.725 61.0737 136.083 61.0886 136.74 61.1333C137.382 61.178 138.322 61.2525 139.487 61.3418C141.8 61.5206 144.995 61.7738 148.533 62.0419C152.071 62.2952 155.265 62.5335 157.579 62.6974C158.744 62.7867 159.669 62.8463 160.326 62.9059C160.968 62.9357 161.326 62.9804 161.326 62.9953Z" fill="#A08472"/>
</g>
<g opacity="0.51">
<path d="M160.58 60.9544C160.58 60.9693 160.222 60.9693 159.595 60.9395C158.968 60.9097 158.057 60.8501 156.922 60.7905C154.668 60.6713 151.563 60.5075 148.115 60.4032C144.682 60.2989 141.562 60.2691 139.307 60.2542C138.188 60.2542 137.262 60.2393 136.635 60.2393C136.008 60.2393 135.65 60.2245 135.65 60.1947C135.65 60.1798 135.993 60.15 136.635 60.1202C137.262 60.0904 138.173 60.0606 139.307 60.0457C141.562 60.001 144.682 60.001 148.13 60.1053C151.578 60.2096 154.683 60.4032 156.937 60.582C158.057 60.6713 158.968 60.7607 159.595 60.8203C160.236 60.8799 160.595 60.9246 160.58 60.9544Z" fill="#A08472"/>
</g>
<g opacity="0.51">
<path d="M161.103 60.5373C161.103 60.5522 160.745 60.5224 160.103 60.433C159.789 60.3884 159.386 60.3437 158.938 60.2841C158.49 60.2245 157.968 60.15 157.401 60.0904C156.833 60.016 156.206 59.9415 155.535 59.867C154.863 59.7925 154.146 59.718 153.385 59.6287C151.877 59.4797 150.205 59.3307 148.459 59.1967C146.712 59.0775 145.04 58.9881 143.518 58.9285C142.756 58.8988 142.04 58.869 141.353 58.8541C140.681 58.8392 140.039 58.8243 139.472 58.8094C138.89 58.7945 138.382 58.7945 137.92 58.7945C137.457 58.7945 137.069 58.7796 136.74 58.7796C136.099 58.7796 135.74 58.7647 135.74 58.7349C135.74 58.72 136.099 58.6902 136.74 58.6604C137.069 58.6455 137.457 58.6306 137.92 58.6157C138.382 58.6008 138.905 58.5859 139.472 58.5859C140.054 58.5859 140.681 58.5859 141.353 58.5859C142.025 58.5859 142.756 58.6157 143.518 58.6306C145.04 58.6753 146.712 58.7498 148.474 58.8839C150.235 59.003 151.892 59.1669 153.415 59.3307C154.176 59.4201 154.893 59.4946 155.565 59.5989C156.236 59.6882 156.863 59.7776 157.431 59.8521C157.998 59.9266 158.52 60.016 158.968 60.0904C159.416 60.1649 159.804 60.2394 160.118 60.299C160.759 60.4479 161.103 60.5224 161.103 60.5373Z" fill="#A08472"/>
</g>
<path d="M137.054 57.2603L136.531 49.6187L163.491 50.4081L164.626 57.1859L137.054 57.2603Z" fill="#599E9E"/>
<path d="M142.592 52.738L142.551 54.1228L159.413 54.6177L159.454 53.2329L142.592 52.738Z" fill="#2A2C3F"/>
<path d="M139.577 57.3347C139.487 57.3347 139.413 56.9027 139.368 56.2175C139.323 55.5174 139.323 54.564 139.323 53.5213C139.323 53 139.323 52.4935 139.308 52.0466C139.293 51.5997 139.278 51.1826 139.263 50.84C139.233 50.1548 139.219 49.7228 139.308 49.7079C139.383 49.693 139.547 50.0952 139.696 50.7953C139.771 51.1379 139.831 51.555 139.86 52.0168C139.905 52.4786 139.92 52.9851 139.92 53.5213C139.92 54.5789 139.846 55.5472 139.786 56.2324C139.726 56.9027 139.651 57.3347 139.577 57.3347Z" fill="#E0892B"/>
<path d="M161.565 57.2007C161.401 57.2007 161.192 55.6515 161.102 53.715C161.013 51.7786 161.072 50.1996 161.237 50.1996C161.401 50.1847 161.61 51.7488 161.699 53.6853C161.789 55.6068 161.729 57.1858 161.565 57.2007Z" fill="#E0892B"/>
<path d="M133.62 50.1103L133.172 42.4686L160.132 43.556L161.206 50.3338L133.62 50.1103Z" fill="#2A2C3F"/>
<path d="M133.127 43.5411L160.221 44.1072L161.057 49.3804L133.59 49.589C133.59 49.589 133.172 42.7963 133.127 43.8689" fill="#E8E8E8"/>
<g opacity="0.51">
<path d="M160.028 48.4715C160.028 48.4864 159.669 48.5013 159.013 48.4864C158.356 48.4864 157.43 48.4566 156.266 48.4269C153.937 48.3673 150.743 48.2332 147.205 48.0396C143.667 47.8459 140.457 47.6225 138.143 47.4288C136.979 47.3394 136.053 47.2501 135.397 47.1756C134.755 47.1011 134.396 47.0564 134.396 47.0415C134.396 47.0266 134.755 47.0266 135.412 47.0564C136.053 47.0862 136.994 47.1458 138.158 47.2054C140.472 47.3394 143.682 47.5182 147.22 47.7267C150.758 47.9055 153.952 48.0842 156.281 48.2034C157.445 48.263 158.371 48.3226 159.028 48.3524C159.669 48.4269 160.028 48.4567 160.028 48.4715Z" fill="#A08472"/>
</g>
<g opacity="0.51">
<path d="M159.25 46.4459C159.25 46.4608 158.892 46.4608 158.265 46.4459C157.638 46.4161 156.727 46.3863 155.593 46.3416C153.339 46.2522 150.219 46.1629 146.785 46.1182C143.337 46.0735 140.232 46.1033 137.978 46.148C136.858 46.1629 135.933 46.1777 135.306 46.1926C134.679 46.1926 134.32 46.1926 134.32 46.1777C134.32 46.1629 134.664 46.1182 135.291 46.0884C135.918 46.0437 136.828 45.999 137.963 45.9543C140.217 45.8649 143.337 45.8053 146.785 45.85C150.233 45.8947 153.353 46.0139 155.593 46.1629C156.712 46.2373 157.623 46.2969 158.265 46.3565C158.907 46.3863 159.25 46.431 159.25 46.4459Z" fill="#A08472"/>
</g>
<g opacity="0.51">
<path d="M159.758 46.0288C159.758 46.0437 159.4 46.0139 158.758 45.9543C158.445 45.9246 158.042 45.8799 157.594 45.8203C157.146 45.7756 156.624 45.716 156.056 45.6564C155.489 45.5968 154.862 45.5373 154.19 45.4628C153.519 45.3883 152.802 45.3436 152.041 45.2691C150.518 45.15 148.861 45.0308 147.099 44.9414C145.353 44.852 143.681 44.8073 142.158 44.7627C141.397 44.7478 140.68 44.7329 139.994 44.7329C139.322 44.718 138.68 44.7329 138.113 44.7329C137.531 44.7329 137.023 44.7329 136.56 44.7478C136.098 44.7478 135.709 44.7478 135.381 44.7627C134.739 44.7627 134.381 44.7627 134.381 44.7478C134.381 44.7329 134.739 44.6882 135.381 44.6584C135.709 44.6435 136.098 44.6137 136.56 44.5988C137.023 44.5839 137.546 44.5541 138.113 44.5392C138.695 44.5243 139.322 44.5094 139.994 44.5094C140.666 44.4945 141.397 44.5094 142.158 44.5094C143.681 44.5243 145.353 44.569 147.114 44.6584C148.876 44.7478 150.548 44.8818 152.056 45.0159C152.817 45.0904 153.533 45.15 154.205 45.2393C154.877 45.3138 155.504 45.3883 156.071 45.4628C156.638 45.5373 157.161 45.6117 157.609 45.6713C158.057 45.7309 158.445 45.8054 158.773 45.8501C159.415 45.9395 159.758 46.0139 159.758 46.0288Z" fill="#A08472"/>
</g>
<path d="M21.5701 84.8929L25.0483 165.153H27.0785L30.6313 82.45L21.5701 84.8929Z" fill="#A0A7A7"/>
<path d="M134.111 82.4501L139.5 165.153H142.814L144.232 80.7668L134.111 82.4501Z" fill="#A0A7A7"/>
<path d="M2.49219 77.0576H173.999V82.0031L2.49219 84.893V77.0576Z" fill="#A0A7A7"/>
<path d="M101.645 40.5023C101.645 40.5023 121.618 52.5086 119.245 67.9856C117.409 79.9918 88.3887 77.0424 88.3887 77.0424V72.4395C88.3887 72.4395 110.318 72.2906 110.796 65.1851C111.169 59.5544 99.4503 57.3051 99.4503 57.3051L99.4204 54.1471L101.645 40.5023Z" fill="#494F5E"/>
<path d="M67.4002 40.5023C67.4002 40.5023 49.4568 55.3984 51.0093 70.8754C51.905 79.8876 75.6255 76.819 75.6255 76.819V72.3353C75.6255 72.3353 60.8169 71.8288 59.9959 67.2557C58.9808 61.6548 69.5946 57.6477 69.5946 57.6477L69.6244 54.4302L67.4002 40.5023Z" fill="#494F5E"/>
<path d="M102.45 41.3516C102.495 41.3516 102.421 42.0666 102.241 43.1987C102.062 44.3308 101.794 45.8949 101.405 47.6079C101.017 49.321 100.614 50.8553 100.286 51.9427C99.9574 53.045 99.7186 53.7153 99.6887 53.7004C99.644 53.6855 99.8082 53.0003 100.092 51.8831C100.361 50.7659 100.734 49.2316 101.122 47.5334C101.495 45.8353 101.809 44.2861 102.047 43.154C102.271 42.0517 102.406 41.3516 102.45 41.3516Z" fill="#3C424C"/>
<path d="M67.0719 41.858C67.0868 41.858 67.1316 42.0964 67.1764 42.5581C67.2212 43.005 67.2958 43.6605 67.3705 44.4648C67.5347 46.0736 67.7884 48.2782 68.087 50.7212C68.3706 53.1642 68.5945 55.3837 68.714 57.0074C68.7737 57.8117 68.8035 58.4672 68.8185 58.914C68.8334 59.3609 68.8334 59.6142 68.8035 59.6142C68.7886 59.6142 68.7438 59.3609 68.699 58.914C68.6543 58.4672 68.5796 57.8117 68.505 57.0074C68.3408 55.3986 68.087 53.194 67.7884 50.7361C67.5048 48.2931 67.2809 46.0736 67.1615 44.45C67.1018 43.6456 67.0719 42.9901 67.057 42.5433C67.042 42.1113 67.057 41.858 67.0719 41.858Z" fill="#3C424C"/>
<path opacity="0.15" d="M0 24.2359L60.7716 5.7052L120.215 11.5892L122.215 56.8286L66.5935 65.8705L0 24.2359Z" fill="url(#paint0_linear_1_1283)"/>
<path d="M29.752 76.6404L30.7521 61.208L36.5442 62.7125L40.3209 76.6404H29.752Z" fill="#262626"/>
<path d="M1.25395 65.7365L66.5935 65.8705L64.5782 25.6213L0 24.236L1.25395 65.7365Z" fill="#262626"/>
<path d="M37.797 46.2672H29.3926V47.727H37.797V46.2672Z" fill="#E8E8E8"/>
<path d="M30.3485 67.3899L37.7975 67.3154L38.2304 68.9242L30.1544 70.3244L30.3485 67.3899Z" fill="#0C0C0B"/>
</g>
<defs>
<linearGradient id="paint0_linear_1_1283" x1="9.04155" y1="97.8714" x2="101.542" y2="-4.43605" gradientUnits="userSpaceOnUse">
<stop offset="0.0391" stop-color="#15EEFF"/>
<stop offset="1" stop-color="#6DBFBE" stop-opacity="0"/>
</linearGradient>
<clipPath id="clip0_1_1283">
<rect width="174" height="167" fill="white"/>
</clipPath>
</defs>
</svg>
