<svg width="78" height="78" viewBox="0 0 78 78" fill="none" xmlns="http://www.w3.org/2000/svg">
<rect opacity="0.5" width="78" height="78" rx="10" fill="#FF9900" fill-opacity="0.4"/>
<g clip-path="url(#clip0_31_44)">
<path d="M33.0234 19.0547C29.0078 19.5313 26.0938 20.8828 23.4922 23.4922C21.1562 25.8281 19.7734 28.5391 19.1797 31.9297C19 33.0078 19 35.4609 19.1797 36.5391C19.7734 39.9531 21.1406 42.6328 23.4922 44.9766C25.9688 47.4531 28.9062 48.8906 32.4609 49.3516C35.2812 49.7109 38.2812 49.1953 40.9531 47.875C41.3594 47.6719 41.8047 47.4375 41.9453 47.3516L42.1953 47.1953L43.0781 48.25L43.9531 49.3047L45.3047 47.9766C46.0469 47.25 47.25 46.0469 47.9766 45.3047L49.3047 43.9531L48.2578 43.0781L47.2109 42.2031L47.7109 41.25C48.3516 40.0234 48.7109 39.0859 49 37.8828C49.5625 35.6094 49.6094 33.5078 49.1562 31.2656L49 30.5234L50.2422 29.2813L51.4844 28.0391L51.8594 28.1719C53.8984 28.8672 56.0781 27.5391 56.4375 25.375C56.8125 23.1172 54.7266 21.0313 52.4688 21.4063C50.3047 21.7656 48.9766 23.9453 49.6719 25.9844L49.8047 26.3594L48.9922 27.1719C48.5469 27.6172 48.1641 27.9844 48.1406 27.9844C48.1172 27.9844 47.9609 27.7031 47.7969 27.3594C47.1484 26.0234 46.1562 24.6641 44.9062 23.4141C42.4531 20.9609 39.2578 19.4609 35.7031 19.0781C34.9922 19.0078 33.5469 18.9922 33.0234 19.0547ZM35.8203 21.4609C38.9844 21.875 41.625 23.2656 43.7812 25.6406C44.7734 26.7266 45.6641 28.1406 46.1719 29.4375L46.3281 29.8359L44.5469 31.6172L42.7656 33.3906L42.3516 33.25C41.7812 33.0547 40.75 33.0547 40.1797 33.25L39.7656 33.3906L38.5859 32.2188L37.4141 31.0469L37.5469 30.6719C38.3828 28.2266 36.2422 25.6719 33.7188 26.0938C31.5547 26.4531 30.2266 28.6328 30.9219 30.6719L31.0547 31.0469L29.875 32.2188L28.7031 33.3984L28.3281 33.2656C26.2891 32.5703 24.1094 33.8984 23.75 36.0625C23.375 38.3203 25.4609 40.4063 27.7188 40.0313C29.8828 39.6719 31.2109 37.4922 30.5156 35.4531L30.3828 35.0781L31.5547 33.9063L32.7344 32.7344L33.1484 32.875C33.4297 32.9766 33.7891 33.0234 34.2344 33.0234C34.6797 33.0234 35.0391 32.9766 35.3203 32.875L35.7344 32.7344L36.9141 33.9063L38.0859 35.0781L37.9531 35.4531C37.1172 37.8984 39.2578 40.4531 41.7812 40.0313C43.9453 39.6719 45.2734 37.4922 44.5781 35.4531L44.4453 35.0781L45.7031 33.8203C46.3984 33.125 46.9844 32.5781 47.0078 32.6016C47.0312 32.625 47.0703 33.0859 47.0938 33.6172C47.25 36.6406 46.3281 39.5703 44.4609 42.0469C42.9453 44.0625 40.7734 45.6094 38.2656 46.4531C35.7344 47.3125 32.8594 47.3281 30.3047 46.4922C25.625 44.9609 22.2656 41.0156 21.4922 36.1484C21.3594 35.3438 21.3594 33.125 21.4922 32.3203C22.0938 28.5078 24.3359 25.1719 27.6172 23.1953C30.0625 21.7188 33.0312 21.0938 35.8203 21.4609Z" fill="#FF9900"/>
<path d="M48.2656 48.3126L45.4688 51.1251L45.625 51.2892C45.7031 51.3829 46.8828 52.7814 48.2422 54.3907C49.5938 56.0001 50.875 57.4845 51.0781 57.6876C51.8672 58.4532 52.8672 58.8829 54.0312 58.9689C56.6562 59.1642 59 56.9689 59 54.3126C59 53.7267 58.8203 52.922 58.5547 52.336C58.3516 51.8907 57.8281 51.1564 57.5078 50.8751C56.8203 50.2735 51.1641 45.5235 51.125 45.5079C51.0938 45.5001 49.8125 46.7657 48.2656 48.3126Z" fill="#FF9900"/>
</g>
<defs>
<clipPath id="clip0_31_44">
<rect width="40" height="40" fill="white" transform="translate(19 19)"/>
</clipPath>
</defs>
</svg>
