<svg width="78" height="78" viewBox="0 0 78 78" fill="none" xmlns="http://www.w3.org/2000/svg">
<rect opacity="0.5" width="78" height="78" rx="10" fill="#FF9900" fill-opacity="0.4"/>
<path d="M37.9451 19.0781C36.2654 19.3438 34.5858 20.2969 33.5389 21.5859C32.3826 23.0156 31.8201 24.9375 32.0233 26.7578C32.1483 27.8281 32.4139 28.5859 33.1014 29.8516C33.6639 30.8906 33.9764 31.7109 34.1561 32.6094L34.242 33.0625H36.0389H37.8279V31.1875C37.8279 29.4531 37.8436 29.2812 37.9842 29C38.1639 28.6484 38.6092 28.375 38.9998 28.375C39.3904 28.375 39.8357 28.6484 40.0154 29C40.1561 29.2812 40.1717 29.4531 40.1717 31.1875V33.0625H41.9686H43.7654L43.7967 32.8828C44.0936 31.5312 44.3357 30.875 44.9764 29.7031C45.4529 28.8281 45.7264 28.1484 45.8826 27.3984C46.0311 26.7188 46.0154 25.0938 45.8514 24.4453C45.2107 21.875 43.2889 19.9141 40.7576 19.2344C40.0389 19.0469 38.6639 18.9688 37.9451 19.0781Z" fill="#FF9900"/>
<path d="M27.2026 19.7969C26.6401 20.1797 26.5073 20.9141 26.9136 21.4375C27.0308 21.6016 27.5542 21.9531 28.3042 22.375C29.3354 22.9688 29.5542 23.0625 29.8667 23.0625C30.9292 23.0625 31.4214 21.7734 30.6245 21.0625C30.5308 20.9766 29.9683 20.625 29.3901 20.2891C28.4995 19.7734 28.2729 19.6719 27.9058 19.6406C27.5464 19.6172 27.4292 19.6406 27.2026 19.7969Z" fill="#FF9900"/>
<path d="M49.5854 19.75C48.937 20.0859 47.5307 20.9219 47.3745 21.0625C46.5776 21.7734 47.0698 23.0625 48.1323 23.0625C48.4448 23.0625 48.6636 22.9688 49.6948 22.375C51.0073 21.6328 51.2651 21.3906 51.3198 20.8516C51.4057 19.9609 50.4057 19.3203 49.5854 19.75Z" fill="#FF9900"/>
<path d="M25.5469 26.1953C25.2109 26.3672 24.9375 26.8281 24.9375 27.2031C24.9375 27.5938 25.2109 28.0391 25.5625 28.2188C25.8359 28.3594 26.0234 28.375 27.2812 28.375C28.5391 28.375 28.7266 28.3594 29 28.2188C29.3516 28.0391 29.625 27.5938 29.625 27.2031C29.625 26.8125 29.3516 26.3672 29 26.1875C28.7266 26.0469 28.5469 26.0312 27.2656 26.0312C26 26.0391 25.8047 26.0547 25.5469 26.1953Z" fill="#FF9900"/>
<path d="M48.9844 26.1953C48.6484 26.3672 48.375 26.8281 48.375 27.2031C48.375 27.5938 48.6484 28.0391 49 28.2188C49.2734 28.3594 49.4609 28.375 50.7188 28.375C51.9766 28.375 52.1641 28.3594 52.4375 28.2188C52.7891 28.0391 53.0625 27.5938 53.0625 27.2031C53.0625 26.8125 52.7891 26.3672 52.4375 26.1875C52.1641 26.0469 51.9844 26.0312 50.7031 26.0312C49.4375 26.0391 49.2422 26.0547 48.9844 26.1953Z" fill="#FF9900"/>
<path d="M28.3278 32.0157C26.9997 32.7735 26.8434 32.8985 26.7262 33.3048C26.5543 33.8673 26.8356 34.4844 27.359 34.7032C27.8278 34.8985 28.2575 34.7735 29.4293 34.086C30.0309 33.7266 30.5856 33.3829 30.6715 33.3126C31.4293 32.6251 30.8981 31.3438 29.859 31.3438C29.5465 31.3438 29.3356 31.4376 28.3278 32.0157Z" fill="#FF9900"/>
<path d="M47.5077 31.5235C46.8827 31.9376 46.7967 32.8282 47.328 33.3126C47.4139 33.3829 47.9686 33.7266 48.5702 34.086C49.742 34.7735 50.1717 34.8985 50.6405 34.7032C51.1639 34.4844 51.4452 33.8673 51.2733 33.3048C51.1561 32.8985 50.9998 32.7735 49.6717 32.0157C48.6639 31.4376 48.453 31.3438 48.1405 31.3438C47.8905 31.3438 47.6873 31.3985 47.5077 31.5235Z" fill="#FF9900"/>
<path d="M34.9834 35.5C35.0147 35.5547 35.6709 36.4375 36.4365 37.4531L37.8272 39.3125V39.7812V40.25H32.4444C29.1162 40.25 26.9053 40.2812 26.6475 40.3281C25.2412 40.5938 24.1084 41.7266 23.8428 43.1328C23.8037 43.3672 23.7647 43.9062 23.7647 44.3281C23.7647 45.0703 23.7569 45.1094 23.5928 45.1562C23.1787 45.2656 22.21 45.8203 21.8037 46.1797C21.2569 46.6719 20.7647 47.4141 20.5069 48.1562C20.2178 48.9688 20.21 50.1953 20.4756 51.0156C20.6787 51.6328 21.0772 52.3047 21.5381 52.8203L21.8272 53.1406L21.5459 53.4531C21.0928 53.9609 20.7178 54.5703 20.5069 55.1797C20.335 55.6719 20.2959 55.9219 20.2647 56.8984C20.2334 57.9453 20.2412 58.0625 20.3975 58.3594C20.5069 58.5781 20.6709 58.7422 20.874 58.8438C21.1709 58.9922 21.3272 59 24.9365 59C28.5459 59 28.7022 58.9922 28.999 58.8438C29.2022 58.7422 29.3662 58.5781 29.4756 58.3594C29.6319 58.0625 29.6397 57.9453 29.6084 56.8984C29.5772 55.9219 29.5381 55.6719 29.3662 55.1797C29.1553 54.5703 28.7803 53.9609 28.3272 53.4531L28.0459 53.1406L28.335 52.8203C28.7959 52.3047 29.1944 51.6328 29.3975 51.0156C29.6631 50.1953 29.6553 48.9688 29.3662 48.1562C29.1084 47.4141 28.6162 46.6719 28.0694 46.1797C27.6631 45.8203 26.6944 45.2656 26.2803 45.1562C26.1162 45.1094 26.1084 45.0703 26.1084 44.3203C26.1084 43.3516 26.249 43 26.7334 42.75C27.0303 42.6016 27.1787 42.5938 32.4365 42.5938H37.8272V43.8516C37.8272 45.0859 37.8272 45.1094 37.6553 45.1562C37.2412 45.2656 36.2725 45.8203 35.8662 46.1797C35.3194 46.6719 34.8272 47.4141 34.5694 48.1562C34.2803 48.9688 34.2725 50.1953 34.5381 51.0156C34.7412 51.6328 35.1397 52.3047 35.6006 52.8203L35.8897 53.1406L35.6084 53.4531C35.1553 53.9609 34.7803 54.5703 34.5694 55.1797C34.3975 55.6719 34.3584 55.9219 34.3272 56.8984C34.2959 57.9453 34.3037 58.0625 34.46 58.3594C34.5694 58.5781 34.7334 58.7422 34.9365 58.8438C35.2334 58.9922 35.3897 59 38.999 59C42.6084 59 42.7647 58.9922 43.0615 58.8438C43.2647 58.7422 43.4287 58.5781 43.5381 58.3594C43.6944 58.0625 43.7022 57.9453 43.6709 56.8984C43.6397 55.9219 43.6006 55.6719 43.4287 55.1797C43.2178 54.5703 42.8428 53.9609 42.3897 53.4531L42.1084 53.1406L42.3975 52.8203C42.8584 52.3047 43.2569 51.6328 43.46 51.0156C43.7256 50.1953 43.7178 48.9688 43.4287 48.1562C43.1709 47.4141 42.6787 46.6719 42.1319 46.1797C41.7256 45.8203 40.7569 45.2656 40.3428 45.1562C40.1709 45.1094 40.1709 45.0859 40.1709 43.8516V42.5938H45.5615C50.8194 42.5938 50.9678 42.6016 51.2647 42.75C51.749 43 51.8897 43.3516 51.8897 44.3203C51.8897 45.0703 51.8819 45.1094 51.7178 45.1562C51.3037 45.2656 50.335 45.8203 49.9287 46.1797C49.3819 46.6719 48.8897 47.4141 48.6319 48.1562C48.3428 48.9688 48.335 50.1953 48.6006 51.0156C48.8037 51.6328 49.2022 52.3047 49.6631 52.8203L49.9522 53.1406L49.6709 53.4531C49.2178 53.9609 48.8428 54.5703 48.6319 55.1797C48.46 55.6719 48.4209 55.9219 48.3897 56.8984C48.3584 57.9453 48.3662 58.0625 48.5225 58.3594C48.6319 58.5781 48.7959 58.7422 48.999 58.8438C49.2959 58.9922 49.4522 59 53.0615 59C56.6709 59 56.8272 58.9922 57.124 58.8438C57.3272 58.7422 57.4912 58.5781 57.6006 58.3594C57.7569 58.0625 57.7647 57.9453 57.7334 56.8984C57.7022 55.9219 57.6631 55.6719 57.4912 55.1797C57.2803 54.5703 56.9053 53.9609 56.4522 53.4531L56.1709 53.1406L56.46 52.8203C56.9209 52.3047 57.3194 51.6328 57.5225 51.0156C57.7881 50.1953 57.7803 48.9688 57.4912 48.1562C57.2334 47.4141 56.7412 46.6719 56.1944 46.1797C55.7881 45.8203 54.8194 45.2656 54.4053 45.1562C54.2412 45.1094 54.2334 45.0703 54.2334 44.3281C54.2334 43.9062 54.1944 43.3672 54.1553 43.1328C53.8897 41.7266 52.7569 40.5938 51.3506 40.3281C51.0928 40.2812 48.8819 40.25 45.5537 40.25H40.1709V39.7812V39.3125L41.5615 37.4531C42.3272 36.4375 42.9834 35.5547 43.0147 35.5C43.0615 35.4297 42.2334 35.4062 38.999 35.4062C35.7647 35.4062 34.9365 35.4297 34.9834 35.5Z" fill="#FF9900"/>
</svg>
