<svg width="78" height="78" viewBox="0 0 78 78" fill="none" xmlns="http://www.w3.org/2000/svg">
<rect opacity="0.5" width="78" height="78" rx="10" fill="#FF9900" fill-opacity="0.4"/>
<g clip-path="url(#clip0_31_43)">
<path d="M37.6719 19.0781C36.4453 19.2499 35.1016 19.664 34.0703 20.1718C33.3281 20.5468 32.2422 21.3202 31.5781 21.9452C29.9922 23.4374 28.9688 25.1874 28.3984 27.3906C28.1875 28.1796 28.1875 28.1874 28.1641 31.8671L28.1328 35.5624H27.1719C25.6016 35.5624 24.9453 35.8827 24.4531 36.8671L24.1953 37.3984V47.2421C24.1953 55.4609 24.2109 57.1406 24.3047 57.3984C24.5547 58.1249 25.1172 58.6718 25.8438 58.8906C26.4141 59.0624 51.5938 59.0546 52.1797 58.8827C52.7891 58.7031 53.2422 58.3046 53.5469 57.6952L53.8047 57.164V47.2812V37.3984L53.5469 36.8671C53.0547 35.8749 52.3984 35.5624 50.8203 35.5624H49.8594V32.2187C49.8594 28.6171 49.8203 28.1327 49.4297 26.7734C48.7578 24.4687 47.1172 22.2343 45.0781 20.8671C43.8125 20.0312 42.6562 19.539 41.2031 19.2343C40.3359 19.0468 38.4688 18.9687 37.6719 19.0781ZM40.8359 23.1327C43.3125 23.8437 45.1641 25.7421 45.8125 28.2343C45.9688 28.8359 45.9766 29.1171 46.0078 32.2187L46.0469 35.5624H39H31.9531L31.9922 32.2187C32.0234 29.1171 32.0312 28.8359 32.1875 28.2343C32.8672 25.6171 34.9297 23.6171 37.5547 23.0312C38.3281 22.8593 40.0859 22.914 40.8359 23.1327ZM39.9453 42.6406C41.125 43.0156 41.9141 44.1406 41.9219 45.4609C41.9219 46.039 41.8906 46.1484 41.6328 46.6874C41.4375 47.0781 41.2188 47.3827 40.9609 47.6093L40.5781 47.9452L41 49.8984C41.2266 50.9687 41.4141 51.914 41.4219 51.9843C41.4219 52.1171 41.2578 52.1249 39 52.1249C36.7422 52.1249 36.5781 52.1171 36.5859 51.9843C36.5859 51.914 36.7734 50.9687 37 49.8984L37.4141 47.9452L37.0391 47.6093C36.3047 46.9609 35.9219 45.8202 36.1094 44.8827C36.4766 43.1015 38.2109 42.0937 39.9453 42.6406Z" fill="#FF9900"/>
</g>
<defs>
<clipPath id="clip0_31_43">
<rect width="40" height="40" fill="white" transform="translate(19 19)"/>
</clipPath>
</defs>
</svg>
