<svg width="78" height="78" viewBox="0 0 78 78" fill="none" xmlns="http://www.w3.org/2000/svg">
<rect opacity="0.5" width="78" height="78" rx="10" fill="#FF9900" fill-opacity="0.4"/>
<g clip-path="url(#clip0_31_42)">
<path d="M28.1406 20.0547C28.0781 20.0703 27.7578 20.125 27.4375 20.1719C26.1562 20.375 24.6094 21.0078 23.4219 21.8047C23.1172 22 22.5625 22.4609 22.1797 22.8203C20.1094 24.7891 19 27.3672 19 30.2031C19 34.6797 21.8281 38.5781 26.0469 39.9297C27.1328 40.2734 28.0078 40.4062 29.1953 40.4062C30.9297 40.4062 32.2656 40.0938 33.7578 39.3516C36.6484 37.9062 38.625 35.2891 39.2422 32.0938C39.4375 31.1172 39.4453 29.4922 39.2734 28.4922C38.8984 26.375 37.8672 24.4219 36.3125 22.9219C34.8281 21.4844 33.2734 20.6562 31.2266 20.2031C30.7344 20.0938 28.4297 19.9844 28.1406 20.0547ZM29.7422 23.3125C30.0156 23.5234 30.1719 23.8984 30.1719 24.3359C30.1719 24.6719 30.1719 24.6719 30.6094 24.8516C31.1328 25.0703 31.7109 25.625 31.9687 26.1484C32.1484 26.5 32.1641 26.6562 32.1875 27.6953L32.2109 28.8516L31.9453 29.1172C31.7109 29.3516 31.6172 29.3906 31.3125 29.3906C31.0312 29.3906 30.9062 29.3438 30.7187 29.1719C30.4219 28.9141 30.3359 28.5625 30.3281 27.6875C30.3281 27.3281 30.2891 26.9688 30.25 26.8828C30.0937 26.6016 29.7266 26.4844 29.0937 26.5156C28.5547 26.5391 28.5 26.5625 28.2891 26.7969C28.0703 27.0391 28.0625 27.0781 28.0625 27.8281C28.0625 29.1094 28.1875 29.2422 29.4766 29.3125C30.5 29.375 31 29.5859 31.5312 30.1797C32.0859 30.7969 32.2031 31.2109 32.2031 32.5547C32.2031 33.5156 32.1797 33.75 32.0312 34.1328C31.8125 34.7344 31.1406 35.4141 30.5781 35.6094L30.1719 35.7578V36.1328C30.1719 36.7734 29.8516 37.2422 29.3828 37.2812C28.9687 37.3203 28.8203 37.2734 28.5625 37.0156C28.3125 36.7656 28.2969 36.7188 28.2969 36.25V35.7422L28 35.6562C27.2187 35.4219 26.4453 34.5703 26.2656 33.7422C26.2109 33.5156 26.1875 32.9531 26.2031 32.4609C26.2266 31.5859 26.2266 31.5781 26.4844 31.3281C26.7031 31.1094 26.7891 31.0703 27.125 31.0703C27.4609 31.0703 27.5469 31.1094 27.7656 31.3281C28.0156 31.5781 28.0234 31.5938 28.0469 32.3828C28.0703 33.3828 28.1016 33.5 28.3516 33.7344C28.5312 33.8984 28.625 33.9219 29.2109 33.9219C29.8359 33.9219 29.8828 33.9062 30.1016 33.6953C30.3281 33.4688 30.3281 33.4531 30.3281 32.5625C30.3281 31.7266 30.3125 31.6484 30.1406 31.4453C29.9609 31.2422 29.9062 31.2266 29.1406 31.1797C28.6172 31.1406 28.1797 31.0703 27.8906 30.9609C27.3047 30.7344 26.7266 30.1875 26.4453 29.5859C26.25 29.1641 26.2266 29.0156 26.2031 28.0859C26.1797 27.2969 26.2031 26.9609 26.3047 26.6172C26.5469 25.7812 27.0703 25.1797 27.8516 24.8594L28.2969 24.6719V24.2578C28.2969 24.0234 28.3516 23.7344 28.4141 23.6094C28.6562 23.1484 29.3359 22.9922 29.7422 23.3125Z" fill="#FF9900"/>
<path d="M42.7344 33.5626C42.2656 33.6876 41.9219 33.9532 41.3672 34.6251C39.6328 36.7267 39.0469 39.211 39.6641 41.8595C39.7266 42.1407 39.7812 42.3985 39.7812 42.4376C39.7812 42.4767 38.5703 42.5157 37.0312 42.5313C34.3281 42.5548 34.2656 42.5548 33.9141 42.7345C33.3281 43.0235 32.9375 43.4142 32.6562 43.9845C32.4297 44.4454 32.3984 44.5782 32.3984 45.1329C32.4062 45.8438 32.6094 46.3985 33.0547 46.9063L33.3047 47.1876L33.1328 47.6876C32.8359 48.5782 33.0547 49.6563 33.6797 50.3204L33.9219 50.586L33.7578 51.0782C33.4531 51.9845 33.6484 52.9845 34.2734 53.672L34.5547 53.9923L34.3828 54.461C34.25 54.8438 34.2188 55.047 34.25 55.5157C34.3203 56.547 34.8281 57.2892 35.7891 57.7423L36.2266 57.9454L41.125 57.9688C45.2266 57.9845 46.1094 57.9688 46.5781 57.8751C46.9453 57.797 47.6016 57.5313 48.4453 57.1251C49.1641 56.7813 49.7969 56.5001 49.8438 56.5001C49.9141 56.5001 49.9375 54.7892 49.9375 49.5626V42.6251L49.6875 42.3829C49.0156 41.7579 47.9766 41.1407 47.2812 40.9532C46.4844 40.7423 45.5391 40.0392 45.4531 39.6017C45.4062 39.3595 45.1016 36.2892 45.0469 35.4454C44.9844 34.6095 44.9453 34.5001 44.6094 34.1095C44.1641 33.6017 43.3984 33.3751 42.7344 33.5626Z" fill="#FF9900"/>
<path d="M51.8125 50.2891V57.5156H54.6875C57.875 57.5156 57.9062 57.5078 58.4297 56.9688C58.9922 56.3906 58.9609 56.8047 58.9609 50.2891C58.9609 44.4375 58.9609 44.4297 58.7891 44.1172C58.5703 43.7109 58.2578 43.4219 57.8281 43.2266C57.4922 43.0781 57.3281 43.0625 54.6484 43.0625H51.8125V50.2891Z" fill="#FF9900"/>
</g>
<defs>
<clipPath id="clip0_31_42">
<rect width="40" height="40" fill="white" transform="translate(19 19)"/>
</clipPath>
</defs>
</svg>
