<svg width="78" height="78" viewBox="0 0 78 78" fill="none" xmlns="http://www.w3.org/2000/svg">
<rect opacity="0.5" width="78" height="78" rx="10" fill="#FF9900" fill-opacity="0.4"/>
<g clip-path="url(#clip0_31_16)">
<path d="M51.843 19.086C50.8664 19.1719 49.7649 19.3516 48.6711 19.6016C47.593 19.8516 47.6399 19.7656 47.9758 20.9219C48.8352 23.9141 50.6477 26.4141 53.2102 28.1406C53.9289 28.625 55.2336 29.2578 56.1868 29.5781C56.9993 29.8516 58.1321 30.125 58.1946 30.0625C58.3899 29.8672 58.843 27.1328 58.9368 25.5703C59.0305 24.0313 58.9524 22.4219 58.718 21.0313C58.4914 19.711 58.4133 19.6172 57.3196 19.3906C55.6555 19.0391 53.6086 18.9297 51.843 19.086Z" fill="#FF9900"/>
<path d="M44.2344 21.2109C41.9375 22.2734 39.9375 23.5703 37.9453 25.2891C37.5625 25.625 34.6172 28.5234 31.3984 31.7266L25.5625 37.5547L33.0078 45L40.4453 52.4375L46.5078 46.3672C52.9609 39.8984 53.4297 39.3828 54.8828 37.1953C55.6484 36.0469 56.5781 34.3281 57.0859 33.1484C57.375 32.4687 57.3672 32.3672 57.0391 32.3594C56.9687 32.3594 56.5469 32.25 56.0937 32.125C52.125 30.9844 48.8672 28.3672 46.8672 24.7031C46.3516 23.7734 45.8047 22.3125 45.4844 21.0469C45.4375 20.8672 45.375 20.7187 45.3437 20.7266C45.3125 20.7266 44.8125 20.9453 44.2344 21.2109ZM43.6875 30.2578C44.6797 30.5312 45.4297 30.9766 46.2266 31.7734C47.0312 32.5703 47.4609 33.2969 47.7656 34.3594C48.0078 35.2266 48.0078 36.5234 47.7656 37.3984C47.1875 39.4297 45.7031 40.9453 43.7266 41.5156C42.8281 41.7734 41.3203 41.7734 40.4844 41.5078C38.5078 40.8984 37.1094 39.4922 36.4844 37.5156C36.25 36.7578 36.2266 35.1875 36.4453 34.3906C37.0469 32.1484 38.9453 30.4609 41.3047 30.0859C41.8906 29.9922 43.0312 30.0703 43.6875 30.2578Z" fill="#FF9900"/>
<path d="M41.4984 32.4455C40.1703 32.6721 39.0766 33.7111 38.725 35.0705C38.1078 37.4455 40.1859 39.6955 42.6313 39.3127C44.5688 39.008 45.85 37.2815 45.5609 35.3752C45.2719 33.4299 43.4359 32.1096 41.4984 32.4455ZM42.6859 34.7658C42.9516 34.9221 43.2172 35.3986 43.2172 35.7111C43.2172 36.7658 41.9281 37.2893 41.2094 36.5315C40.4672 35.7424 41.1391 34.4377 42.2016 34.594C42.35 34.6174 42.5688 34.6955 42.6859 34.7658Z" fill="#FF9900"/>
<path d="M28.0852 29.1172C24.9446 29.5781 24.6478 29.6328 23.929 29.9062C23.0696 30.2422 22.4134 30.7344 21.0228 32.1016C19.3353 33.7578 19.1946 34.0156 19.554 34.7578C19.7181 35.0938 19.7728 35.125 21.3665 35.9219L23.0071 36.75L27.0384 32.7188C29.2571 30.5 31.0306 28.6875 30.9915 28.6953C30.9446 28.7031 29.6399 28.8906 28.0852 29.1172Z" fill="#FF9900"/>
<path d="M25.5626 41.3594C25.4141 41.7656 25.3751 42.836 25.4844 43.3047C25.7188 44.3203 25.7344 44.336 29.5782 48.2031C31.5626 50.1953 33.3438 51.9297 33.5547 52.0547C34.336 52.5625 35.4219 52.7266 36.3829 52.4766C36.6407 52.4063 36.8594 52.336 36.8829 52.3125C36.9297 52.2735 25.7891 41.1094 25.711 41.1094C25.6797 41.1094 25.6172 41.2266 25.5626 41.3594Z" fill="#FF9900"/>
<path d="M23.3352 47.539C20.843 52.7031 19.1946 56.6562 19.0305 57.8828C18.9836 58.289 18.9836 58.3046 19.2883 58.6015C19.6789 59 20.0539 59.0781 20.6008 58.8828C21.8118 58.4609 28.0461 55.9296 29.0774 55.4453C30.3586 54.8437 31.9055 54 31.9368 53.875C31.9524 53.8359 31.7727 53.6562 31.5461 53.4687C31.0774 53.0859 24.7961 46.789 24.3743 46.289L24.1008 45.9531L23.3352 47.539Z" fill="#FF9900"/>
<path d="M45.2578 50.9844L41.25 54.9922L42.0703 56.625C42.8203 58.125 42.9141 58.2734 43.2031 58.4375C43.5703 58.6406 43.9141 58.6562 44.2734 58.4844C44.6562 58.3047 47.125 55.7656 47.5391 55.125C47.9219 54.5313 48.2266 53.8125 48.375 53.1563C48.4688 52.7578 49.3047 47.0234 49.2812 46.9922C49.2734 46.9844 47.4609 48.7813 45.2578 50.9844Z" fill="#FF9900"/>
</g>
<defs>
<clipPath id="clip0_31_16">
<rect width="40" height="40" fill="white" transform="translate(19 19)"/>
</clipPath>
</defs>
</svg>
