<svg width="188" height="257" viewBox="0 0 188 257" fill="none" xmlns="http://www.w3.org/2000/svg">
<path d="M96.5862 255.476C143.442 255.476 181.426 252.478 181.426 248.78C181.426 245.082 143.442 242.084 96.5862 242.084C49.7307 242.084 11.7467 245.082 11.7467 248.78C11.7467 252.478 49.7307 255.476 96.5862 255.476Z" fill="#CDD4E2"/>
<g clip-path="url(#clip0_120_4)">
<path d="M98.6213 19.2037C98.6213 19.2037 95.7517 42.3471 95.155 43.3935C94.5894 44.422 87.9966 46.6295 87.9966 46.6295L87.8499 48.742L89.4352 48.7626C90.1489 48.7795 90.7378 49.2974 90.7622 49.9852C90.8204 50.7315 90.2412 51.3779 89.4851 51.5025L87.6567 51.7782L86.9778 63.4399L95.8342 66.5157L95.7843 70.0152L69.6664 69.0281L70.1216 66.2306L79.6541 63.8077L79.5687 52.0413L78.3952 52.0169C77.4277 51.9906 76.6868 51.2094 76.7643 50.2678C76.8417 49.3262 77.6862 48.5656 78.6538 48.592L79.5734 48.607L79.4696 46.1322L72.4563 42.3042L72.609 19.4036L83.1491 14.5661L89.0306 14.641L98.6213 19.2037Z" fill="#F0C32B"/>
<path d="M85.6717 2.92355C85.6717 2.92355 81.8073 6.21279 81.9406 7.23174C82.1023 8.23428 83.596 9.63928 83.596 9.63928L83.5439 11.2566L79.2742 12.399L79.1831 14.6056L82.6305 14.7315L82.7039 17.4856L88.2148 17.7049L88.3136 15.3805L91.787 14.6978L91.8711 12.8731L87.9811 11.7179L87.9444 10.3408C87.9444 10.3408 89.8209 7.74588 89.7539 7.10437C89.6911 6.53596 88.8 3.87607 85.6717 2.92355Z" fill="#F0C32B"/>
<path d="M93.5952 24.8345C93.5952 24.8345 96.9939 19.6223 102.138 21.1114C107.328 22.6124 107.225 30.3809 104.005 34.1295C100.785 37.8781 92.9751 43.3317 92.9751 43.3317L93.1381 39.3452C93.1381 39.3452 101.438 34.4778 102.878 28.9603C103.373 27.125 102.797 22.3182 98.1999 24.141C93.6026 25.9639 93.9566 29.992 93.9566 29.992L93.5952 24.8345Z" fill="#F0C32B"/>
<path d="M74.6027 23.3279C74.6027 23.3279 71.9934 17.692 66.6727 18.4588C61.3235 19.242 60.2763 26.9511 62.9178 31.1323C65.543 35.2851 72.5093 41.7687 72.5093 41.7687L72.9084 37.7971C72.9084 37.7971 65.3862 31.8612 64.7587 26.1771C64.5576 24.2525 65.797 19.569 70.0855 22.0057C74.3741 24.4424 73.458 28.3724 73.458 28.3724L74.6027 23.3279Z" fill="#F0C32B"/>
<path d="M83.2843 21.2789L77.7006 22.996L78.6617 27.1562L82.429 26.3139L81.6246 42.2235L86.4192 42.4512L87.4796 21.4781L83.2843 21.2789Z" fill="#E5A900"/>
<path opacity="0.26" d="M72.058 33.3011L96.0139 20.415L95.5539 23.0991L72.1182 37.0832L72.058 33.3011Z" fill="#F7F7F7"/>
<path opacity="0.26" d="M71.9704 28.5512L93.3034 19.0688L90.0916 17.4465L71.8938 24.7408L71.9704 28.5512Z" fill="#F7F7F7"/>
<path d="M79.0709 102.426L81.0168 94.0421L88.9635 90.7175L90.3774 102.426C90.3774 102.426 89.1983 110.034 81.8891 112.756C74.5799 115.483 79.0709 102.426 79.0709 102.426Z" fill="#FCB47E"/>
<path d="M75.9462 80.3823C75.9462 80.3823 73.1184 96.1428 77.7148 96.2633C82.3112 96.3837 86.0832 94.6058 87.0274 93.5362C87.9716 92.4713 88.6762 87.258 88.6762 87.258C88.6762 87.258 89.2657 80.5028 86.4379 79.2018C83.6053 77.8961 77.4751 75.6459 75.9462 80.3823Z" fill="#FCB47E"/>
<path d="M91.0671 90.409C90.166 92.0857 89.2698 93.7288 89.2698 93.7288C87.9278 93.5168 86.442 91.8304 86.1783 90.3753C86.1783 90.3753 81.951 89.9802 81.8024 84.7186C81.8024 84.7186 74.4644 84.7668 74.2919 78.3633C74.1146 71.9647 81.4525 73.6125 83.8825 75.5687C86.3125 77.5201 87.784 78.5175 91.5704 79.7462C95.5533 81.0375 92.227 88.26 91.0671 90.409Z" fill="#374263"/>
<path d="M87.6359 242.642L86.7301 233.328H76.9382L79.0662 242.372C79.0662 242.372 80.2021 245.403 83.4949 245.292C86.6582 245.186 87.6359 242.642 87.6359 242.642Z" fill="#FCB47E"/>
<path d="M135.858 213.506L128.337 207.989L121.824 215.342L131.462 220.251C131.462 220.251 132.656 220.488 135.072 218.372C137.463 216.286 135.858 213.506 135.858 213.506Z" fill="#FCB47E"/>
<path d="M95.8796 236.229C90.2096 238.383 82.9675 237.795 75.1598 236.229C74.9346 235.68 74.7093 235.135 74.4936 234.581C59.6164 196.782 70.1513 141.883 70.1513 141.883H93.5455L93.0183 160.028C91.9926 164.822 91.288 169.679 90.8327 174.493C87.8659 206.149 95.8796 236.229 95.8796 236.229Z" fill="#BB8A5C"/>
<path d="M95.8742 236.214C95.51 235.477 82.1857 208.259 86.1542 177.552L90.3768 180.973C88.9485 209.719 95.6825 235.492 95.8742 236.214Z" fill="#BB8A5C"/>
<path d="M133.686 203.662C131.538 209.724 129.252 214.426 126.765 217.177C125.61 218.454 124.411 219.312 123.16 219.683C119.575 217.833 116.292 215.828 113.287 213.703C112.875 213.419 112.477 213.13 112.074 212.836C111.538 212.446 111.015 212.046 110.507 211.646C110.272 211.463 110.037 211.285 109.812 211.097C109.352 210.735 108.897 210.364 108.456 209.998C108.058 209.666 107.67 209.333 107.291 209.001C105.273 207.242 103.414 205.435 101.693 203.58C101.53 203.407 101.362 203.224 101.204 203.05C101.084 202.92 100.969 202.785 100.849 202.66L100.845 202.655C77.2491 176.29 81.5819 141.892 81.5819 141.892H102.105C103.864 174.868 133.686 203.662 133.686 203.662Z" fill="#BB8A5C"/>
<path d="M105.655 70.0869C103.749 69.0463 102.443 68.5081 102.12 68.3379C101.713 68.1206 101.539 67.4732 101.016 66.8631C99.8161 65.4646 97.384 63.0366 95.1501 62.5752C94.861 62.5122 94.692 62.8365 95.0291 63.1118C95.6297 63.6189 96.73 64.3162 96.5967 64.4752C96.3064 64.7965 93.615 62.3111 93.0521 63.0484C92.6294 63.6064 96.3149 65.6462 96.2032 65.8217C95.9845 66.1722 93.0758 63.653 92.5509 64.3852C92.0493 65.0753 95.2917 66.2707 95.1996 66.5554C95.0993 66.851 92.7691 65.3913 92.4094 65.8435C91.8638 66.5299 95.9628 68.3728 95.9054 68.7355C95.8486 69.3169 93.7323 68.402 93.5329 69.1097C93.3325 69.7737 96.2277 70.5832 96.781 70.7759C98.0592 71.2157 98.8929 70.8356 100.05 72.2058C100.689 72.9558 101.317 73.7071 101.942 74.4638L105.655 70.0869Z" fill="#FCB47E"/>
<path d="M60.7467 73.0106C62.3524 71.5458 63.4883 70.7074 63.7615 70.4665C64.1018 70.1581 64.121 69.4884 64.4804 68.7705C65.3144 67.1275 67.0926 64.1883 69.1583 63.2006C69.4219 63.0705 69.6664 63.3403 69.4028 63.692C68.9426 64.328 68.0416 65.2676 68.2093 65.3929C68.5688 65.6338 70.5866 62.579 71.3103 63.1572C71.8567 63.5957 68.7653 66.4625 68.9139 66.6023C69.211 66.8914 71.4302 63.7499 72.1156 64.3329C72.7674 64.887 69.9012 66.8191 70.0642 67.0745C70.2319 67.3395 72.1491 65.3592 72.6044 65.7157C73.2994 66.2505 69.7574 69.0259 69.8964 69.3631C70.0929 69.9172 71.9238 68.5199 72.2881 69.1559C72.6428 69.7534 70.021 71.2326 69.5322 71.5506C68.3962 72.283 67.4952 72.1192 66.6995 73.7237C66.2586 74.6054 65.8272 75.4823 65.4007 76.3689L60.7467 73.0106Z" fill="#FCB47E"/>
<path d="M102.316 144.576C100.485 145.747 97.2787 147.645 93.3294 149.289C89.7874 150.753 85.6463 152.025 81.3567 152.401C77.1916 152.767 72.878 152.285 68.8328 150.329C69.0916 148.402 69.336 146.764 69.5421 145.458C73.2518 147.433 77.2779 148.262 81.2704 148.378C85.4834 148.503 89.6628 147.824 93.4013 146.846C96.8186 145.954 99.8717 144.808 102.239 143.781C102.263 144.046 102.287 144.311 102.316 144.576Z" fill="#9B6C49"/>
<path d="M67.2194 142.075V116.119C67.2194 116.119 44.9396 112.159 49.3164 89.5757C52.0962 75.2269 61.8807 70.1003 61.8807 70.1003L67.3068 74.6632C67.3068 74.6632 55.7689 93.1219 70.9565 99.535C70.9565 99.535 79.4983 99.2556 81.7212 101.771C81.7212 101.771 86.6135 105.871 91.7773 99.0677C91.7773 99.0677 97.0285 96.9235 101.502 98.1859C105.184 99.2218 109.929 89.6624 101.12 73.4538L106.638 68.2356C106.638 68.2356 138.937 100.744 107.259 116.861L105.492 142.793C105.492 142.798 80.9757 157.354 67.2194 142.075Z" fill="#0061BB"/>
<path d="M85.1626 91.3199C86.1738 91.3199 86.9935 90.4959 86.9935 89.4794C86.9935 88.4629 86.1738 87.6388 85.1626 87.6388C84.1514 87.6388 83.3317 88.4629 83.3317 89.4794C83.3317 90.4959 84.1514 91.3199 85.1626 91.3199Z" fill="#FCB47E"/>
<path d="M90.1568 187.4C85.8432 178.988 83.025 169.626 81.7692 159.584L82.1766 159.531C83.4276 169.525 86.2314 178.838 90.5211 187.208L90.1568 187.4Z" fill="white"/>
<path d="M101.186 157.691C94.6918 157.691 92.6164 152.02 92.5925 151.962L92.9759 151.823C92.9951 151.881 95.0273 157.446 101.488 157.277L101.498 157.687C101.392 157.691 101.287 157.691 101.186 157.691Z" fill="white"/>
<path d="M83.3273 105.157C83.2075 105.157 83.0829 105.153 82.963 105.138C80.0441 104.868 78.5679 101.443 78.5104 101.293L78.8843 101.134C78.8986 101.168 80.3269 104.483 83.0014 104.729C85.2493 104.936 87.732 102.994 90.3873 98.9563L90.7276 99.1828C88.125 103.153 85.6327 105.157 83.3273 105.157Z" fill="#2E4882"/>
<path d="M67.9892 116.324C67.9892 116.324 44.7818 112.363 49.3399 89.775C49.5844 88.5415 49.8911 87.3659 50.241 86.2673C50.2985 86.2047 50.3608 86.142 50.4135 86.0842C50.0301 91.1819 49.848 95.6485 52.0958 100.476C56.7929 110.575 68.3055 116.295 67.9892 116.324Z" fill="#064B8C"/>
<path d="M106.683 116.866L104.843 142.798C104.843 142.798 99.5417 145.824 92.4099 147.669C93.6416 146.73 98.8324 138.751 99.6999 134.718C101.258 127.486 101.454 123.323 101.655 115.618C109.334 113.614 118.081 106.815 121.091 95.4683C121.771 103.211 118.507 111.089 106.683 116.866Z" fill="#064B8C"/>
<path d="M82.1488 146.334C82.0769 146.334 82.0386 146.334 82.029 146.334L82.0386 145.925C82.1488 145.925 92.9329 146.079 102.269 140.355L102.48 140.707C93.5703 146.166 83.3614 146.334 82.1488 146.334Z" fill="#2E4882"/>
<path d="M126.761 217.173C125.606 218.45 124.407 219.307 123.156 219.678C119.571 217.828 116.288 215.824 113.283 213.699C112.871 213.414 112.473 213.125 112.07 212.831C111.534 212.441 111.011 212.041 110.503 211.641C110.268 211.458 110.033 211.28 109.808 211.092C109.348 210.731 108.893 210.36 108.452 209.993C108.054 209.661 107.666 209.329 107.287 208.996C105.269 207.237 103.41 205.431 101.689 203.576C101.526 203.402 101.358 203.219 101.2 203.046C101.08 202.915 100.965 202.781 100.845 202.655C114.889 214.311 123.866 216.696 126.761 217.173Z" fill="#9B6C49"/>
<path d="M130.643 202.833C120.765 196.386 114.486 184.731 114.424 184.615L114.764 184.432C114.826 184.548 121.057 196.112 130.854 202.506L130.643 202.833Z" fill="white"/>
<path d="M88.8772 250.057H66.662C65.8903 250.057 65.272 249.397 65.3296 248.622C65.3296 248.612 65.3296 248.602 65.3296 248.593C65.3439 248.424 65.3679 248.246 65.3919 248.072C65.4685 247.48 65.6267 246.882 65.9047 246.511C66.9591 245.104 69.0009 244.464 72.6483 243.013C74.9346 242.098 76.8757 240.884 77.7288 240.315C78.0068 240.127 78.3663 240.175 78.6059 240.407C83.001 244.724 85.6947 243.803 86.5047 242.025C87.123 240.667 87.9953 240.951 88.2349 241.351C88.973 242.594 89.3804 246.241 89.5434 248.072C89.5626 248.27 89.5817 248.448 89.5913 248.593C89.6153 248.935 89.6345 249.142 89.6345 249.142C89.7207 249.619 89.3565 250.057 88.8772 250.057Z" fill="#0061BB"/>
<path d="M73.9045 245.36C72.3277 244.589 72.5625 242.95 72.5625 242.936L72.9411 242.994C72.9316 243.052 72.7542 244.367 74.0675 245.008L73.9045 245.36Z" fill="white"/>
<path d="M71.9582 246.02C70.5059 245.196 70.6641 243.774 70.6689 243.717L71.0523 243.765C71.0475 243.813 70.9277 244.993 72.1499 245.687L71.9582 246.02Z" fill="white"/>
<path d="M84.496 245.047C83.0102 245.047 81.6634 244.367 81.6442 244.353L81.8216 244.006C81.8551 244.025 85.2246 245.726 86.9596 243.558L87.2615 243.799C86.4899 244.758 85.4642 245.047 84.496 245.047Z" fill="white"/>
<path d="M86.8877 248.318H73.942V248.703H86.8877V248.318Z" fill="white"/>
<path d="M72.284 248.318H69.2214V248.703H72.284V248.318Z" fill="white"/>
<path d="M142.481 214.85L131.63 234.335C131.251 235.015 130.379 235.236 129.732 234.803C129.727 234.798 129.717 234.793 129.712 234.788C129.569 234.692 129.43 234.586 129.286 234.48C128.811 234.118 128.37 233.69 128.188 233.266C127.484 231.656 127.925 229.551 128.447 225.643C128.773 223.191 128.663 220.902 128.591 219.866C128.567 219.533 128.783 219.24 129.099 219.143C134.994 217.399 135.512 214.585 134.362 213.005C133.484 211.8 134.155 211.169 134.62 211.155C136.063 211.111 139.423 212.533 141.091 213.289C141.278 213.366 141.441 213.438 141.575 213.501C141.882 213.646 142.069 213.732 142.069 213.732C142.514 213.891 142.711 214.426 142.481 214.85Z" fill="#0061BB"/>
<path d="M129.066 225.889C128.697 225.889 128.429 225.836 128.4 225.831L128.477 225.45C128.491 225.455 130.077 225.768 130.863 224.737L131.17 224.973C130.59 225.74 129.684 225.889 129.066 225.889Z" fill="white"/>
<path d="M128.893 227.999C128.524 227.999 128.256 227.946 128.227 227.942L128.304 227.561C128.318 227.566 129.905 227.879 130.691 226.848L130.997 227.084C130.417 227.85 129.507 227.999 128.893 227.999Z" fill="white"/>
<path d="M134.382 218.426L134.132 218.132C134.161 218.108 137.008 215.617 135.666 213.183L136.002 212.995C137.497 215.708 134.415 218.401 134.382 218.426Z" fill="white"/>
<path d="M139.721 216.177L133.517 227.599L133.854 227.784L140.057 216.361L139.721 216.177Z" fill="white"/>
<path d="M132.725 229.063L131.257 231.765L131.594 231.95L133.061 229.248L132.725 229.063Z" fill="white"/>
<path d="M68.8041 99.7901C68.6027 99.7322 63.8625 98.3349 61.399 93.7817C59.7023 90.6402 59.5297 86.7904 60.8909 82.3431L61.3798 82.4973C60.0618 86.8048 60.2199 90.5149 61.8447 93.5311C64.198 97.8917 68.8951 99.2793 68.9383 99.2938L68.8041 99.7901Z" fill="#2E4882"/>
<path d="M80.8341 85.0221C79.0463 85.0221 76.2329 84.256 74.7615 82.4106C73.8508 81.2687 73.1079 79.2499 74.7471 76.1324L75.0874 76.3107C73.8508 78.6668 73.8412 80.6375 75.0634 82.1697C76.7697 84.309 80.3692 84.921 81.7591 84.5403L81.8598 84.9161C81.5866 84.9836 81.2367 85.0221 80.8341 85.0221Z" fill="#374263"/>
<path d="M79.1802 85.3982C77.9437 85.3982 76.4626 85.0561 74.8522 83.9864L75.0631 83.6636C79.2761 86.4582 82.5065 84.049 82.5353 84.0249L82.7701 84.3333C82.7509 84.3478 81.3418 85.3982 79.1802 85.3982Z" fill="#374263"/>
<path d="M156.747 63.3393C156.747 63.3393 160.021 60.7189 164.62 62.8411C167.452 64.1513 173.302 65.9044 174.608 63.9114L175.381 57.0281C175.381 57.0281 171.223 57.065 167.452 55.1089C163.755 53.1897 157.409 54.5553 157.409 54.5553L156.747 63.3393Z" fill="#6F9331"/>
<path d="M166.735 55.9207C168.868 56.6773 169.457 59.0578 168.611 60.5711C167.765 62.0843 165.171 62.2319 163.681 61.383C162.173 60.5342 161.639 58.6334 162.485 57.1202C163.332 55.607 165.116 55.3486 166.735 55.9207Z" fill="#99C445"/>
<path d="M167.27 57.3414C167.252 57.3967 167.123 57.3783 166.902 57.3229C166.681 57.286 166.387 57.2122 166.038 57.2122C165.872 57.2122 165.688 57.2491 165.523 57.3229C165.357 57.3967 165.21 57.5259 165.173 57.6551C165.118 57.8027 165.136 57.9873 165.21 58.1164C165.283 58.2456 165.467 58.3379 165.743 58.4117C165.872 58.4486 166.038 58.4855 166.185 58.5409C166.35 58.5962 166.516 58.67 166.681 58.7808C166.755 58.8361 166.847 58.9099 166.902 59.0022C166.976 59.0945 167.031 59.1868 167.049 59.279C167.123 59.482 167.123 59.685 167.068 59.8695C167.013 60.0541 166.921 60.2202 166.81 60.3494C166.681 60.4785 166.534 60.5708 166.406 60.6262C166.111 60.7369 165.854 60.7369 165.633 60.7184C165.394 60.6815 165.21 60.6262 165.063 60.5523C164.916 60.4785 164.787 60.4047 164.695 60.3494C164.493 60.2202 164.401 60.1279 164.437 60.0725C164.456 60.0172 164.584 60.0356 164.805 60.0725C165.026 60.1094 165.339 60.2017 165.67 60.1833C165.835 60.1833 166.019 60.1464 166.166 60.0541C166.314 59.9803 166.406 59.8695 166.424 59.7219C166.442 59.6481 166.424 59.5743 166.406 59.5189C166.387 59.482 166.369 59.4636 166.35 59.4451C166.332 59.4267 166.295 59.3897 166.258 59.3713C166.111 59.279 165.854 59.2052 165.541 59.1314C165.375 59.0945 165.21 59.0391 165.044 58.9284C164.952 58.873 164.879 58.8177 164.805 58.7439C164.732 58.67 164.658 58.5778 164.603 58.4855C164.382 58.1164 164.401 57.692 164.566 57.3598C164.75 57.0092 165.044 56.8247 165.32 56.7324C165.596 56.6401 165.854 56.6401 166.093 56.6586C166.553 56.7324 166.847 56.8985 167.049 57.0276C167.215 57.1937 167.307 57.3045 167.27 57.3414Z" fill="#6F9331"/>
<path d="M165.796 56.1788C165.888 56.1973 165.832 57.323 165.667 58.707C165.483 60.091 165.262 61.1983 165.17 61.1798C165.078 61.1614 165.133 60.0357 165.299 58.6516C165.464 57.2676 165.685 56.1604 165.796 56.1788Z" fill="#6F9331"/>
<path d="M166.331 56.3632C166.423 56.3816 166.387 57.3966 166.221 58.6514C166.056 59.9063 165.853 60.9213 165.743 60.9028C165.632 60.8844 165.688 59.8694 165.853 58.6145C166.019 57.3597 166.239 56.3632 166.331 56.3632Z" fill="#6F9331"/>
<path d="M157.463 62.2322C157.518 61.9554 160.222 60.2761 162.871 61.3464C165.52 62.4168 170.597 65.0926 173.816 63.7823L174.515 57.711C174.515 57.711 170.56 57.7295 168.389 56.4746C166.219 55.2013 162.19 54.094 158.125 55.5334L157.463 62.2322Z" stroke="#99C445" stroke-width="0.25" stroke-miterlimit="10"/>
<path d="M115.747 39.3393C115.747 39.3393 119.021 36.7189 123.62 38.8411C126.452 40.1513 132.302 41.9044 133.608 39.9114L134.381 33.0281C134.381 33.0281 130.223 33.065 126.452 31.1089C122.755 29.1897 116.409 30.5553 116.409 30.5553L115.747 39.3393Z" fill="#6F9331"/>
<path d="M125.735 31.9207C127.868 32.6773 128.457 35.0578 127.611 36.5711C126.765 38.0843 124.171 38.2319 122.681 37.383C121.173 36.5342 120.639 34.6334 121.485 33.1202C122.332 31.607 124.116 31.3486 125.735 31.9207Z" fill="#99C445"/>
<path d="M126.27 33.3414C126.252 33.3967 126.123 33.3783 125.902 33.3229C125.681 33.286 125.387 33.2122 125.038 33.2122C124.872 33.2122 124.688 33.2491 124.523 33.3229C124.357 33.3967 124.21 33.5259 124.173 33.6551C124.118 33.8027 124.136 33.9873 124.21 34.1164C124.283 34.2456 124.467 34.3379 124.743 34.4117C124.872 34.4486 125.038 34.4855 125.185 34.5409C125.35 34.5962 125.516 34.67 125.681 34.7808C125.755 34.8361 125.847 34.9099 125.902 35.0022C125.976 35.0945 126.031 35.1868 126.049 35.279C126.123 35.482 126.123 35.685 126.068 35.8695C126.013 36.0541 125.921 36.2202 125.81 36.3494C125.681 36.4785 125.534 36.5708 125.406 36.6262C125.111 36.7369 124.854 36.7369 124.633 36.7184C124.394 36.6815 124.21 36.6262 124.063 36.5523C123.916 36.4785 123.787 36.4047 123.695 36.3494C123.493 36.2202 123.401 36.1279 123.437 36.0725C123.456 36.0172 123.584 36.0356 123.805 36.0725C124.026 36.1094 124.339 36.2017 124.67 36.1833C124.835 36.1833 125.019 36.1464 125.166 36.0541C125.314 35.9803 125.406 35.8695 125.424 35.7219C125.442 35.6481 125.424 35.5743 125.406 35.5189C125.387 35.482 125.369 35.4636 125.35 35.4451C125.332 35.4267 125.295 35.3897 125.258 35.3713C125.111 35.279 124.854 35.2052 124.541 35.1314C124.375 35.0945 124.21 35.0391 124.044 34.9284C123.952 34.873 123.879 34.8177 123.805 34.7439C123.732 34.67 123.658 34.5778 123.603 34.4855C123.382 34.1164 123.401 33.692 123.566 33.3598C123.75 33.0092 124.044 32.8247 124.32 32.7324C124.596 32.6401 124.854 32.6401 125.093 32.6586C125.553 32.7324 125.847 32.8985 126.049 33.0276C126.215 33.1937 126.307 33.3045 126.27 33.3414Z" fill="#6F9331"/>
<path d="M124.796 32.1788C124.888 32.1973 124.832 33.323 124.667 34.707C124.483 36.091 124.262 37.1983 124.17 37.1798C124.078 37.1614 124.133 36.0357 124.299 34.6516C124.464 33.2676 124.685 32.1604 124.796 32.1788Z" fill="#6F9331"/>
<path d="M125.331 32.3632C125.423 32.3816 125.387 33.3966 125.221 34.6514C125.056 35.9063 124.853 36.9213 124.743 36.9028C124.632 36.8844 124.688 35.8694 124.853 34.6145C125.019 33.3597 125.239 32.3632 125.331 32.3632Z" fill="#6F9331"/>
<path d="M116.463 38.2322C116.518 37.9554 119.222 36.2761 121.871 37.3464C124.52 38.4168 129.597 41.0926 132.816 39.7823L133.515 33.711C133.515 33.711 129.56 33.7295 127.389 32.4746C125.219 31.2013 121.19 30.094 117.125 31.5334L116.463 38.2322Z" stroke="#99C445" stroke-width="0.25" stroke-miterlimit="10"/>
<path d="M33.7467 39.3393C33.7467 39.3393 37.021 36.7189 41.6197 38.8411C44.4524 40.1513 50.3019 41.9044 51.608 39.9114L52.3805 33.0281C52.3805 33.0281 48.2233 33.065 44.4524 31.1089C40.7551 29.1897 34.409 30.5553 34.409 30.5553L33.7467 39.3393Z" fill="#6F9331"/>
<path d="M43.7346 31.9207C45.8684 32.6773 46.457 35.0578 45.6108 36.5711C44.7647 38.0843 42.1711 38.2319 40.6811 37.383C39.1727 36.5342 38.6393 34.6334 39.4854 33.1202C40.3316 31.607 42.1159 31.3486 43.7346 31.9207Z" fill="#99C445"/>
<path d="M44.2701 33.3414C44.2517 33.3967 44.1229 33.3783 43.9022 33.3229C43.6815 33.286 43.3871 33.2122 43.0376 33.2122C42.8721 33.2122 42.6881 33.2491 42.5226 33.3229C42.357 33.3967 42.2099 33.5259 42.1731 33.6551C42.1179 33.8027 42.1363 33.9873 42.2099 34.1164C42.2835 34.2456 42.4674 34.3379 42.7433 34.4117C42.8721 34.4486 43.0376 34.4855 43.1848 34.5409C43.3503 34.5962 43.5159 34.67 43.6815 34.7808C43.755 34.8361 43.847 34.9099 43.9022 35.0022C43.9758 35.0945 44.0309 35.1868 44.0493 35.279C44.1229 35.482 44.1229 35.685 44.0677 35.8695C44.0126 36.0541 43.9206 36.2202 43.8102 36.3494C43.6815 36.4785 43.5343 36.5708 43.4055 36.6262C43.1112 36.7369 42.8537 36.7369 42.633 36.7184C42.3938 36.6815 42.2099 36.6262 42.0627 36.5523C41.9156 36.4785 41.7868 36.4047 41.6948 36.3494C41.4925 36.2202 41.4005 36.1279 41.4373 36.0725C41.4557 36.0172 41.5845 36.0356 41.8052 36.0725C42.0259 36.1094 42.3386 36.2017 42.6697 36.1833C42.8353 36.1833 43.0193 36.1464 43.1664 36.0541C43.3136 35.9803 43.4055 35.8695 43.4239 35.7219C43.4423 35.6481 43.4239 35.5743 43.4055 35.5189C43.3871 35.482 43.3687 35.4636 43.3504 35.4451C43.332 35.4267 43.2952 35.3897 43.2584 35.3713C43.1112 35.279 42.8537 35.2052 42.541 35.1314C42.3754 35.0945 42.2099 35.0391 42.0443 34.9284C41.9524 34.873 41.8788 34.8177 41.8052 34.7439C41.7316 34.67 41.658 34.5778 41.6029 34.4855C41.3821 34.1164 41.4005 33.692 41.5661 33.3598C41.75 33.0092 42.0443 32.8247 42.3203 32.7324C42.5962 32.6401 42.8537 32.6401 43.0928 32.6586C43.5527 32.7324 43.847 32.8985 44.0493 33.0276C44.2149 33.1937 44.3069 33.3045 44.2701 33.3414Z" fill="#6F9331"/>
<path d="M42.7955 32.1788C42.8875 32.1973 42.8323 33.323 42.6668 34.707C42.4828 36.091 42.2621 37.1983 42.1701 37.1798C42.0781 37.1614 42.1333 36.0357 42.2989 34.6516C42.4644 33.2676 42.6852 32.1604 42.7955 32.1788Z" fill="#6F9331"/>
<path d="M43.3314 32.3632C43.4234 32.3816 43.3866 33.3966 43.2211 34.6514C43.0555 35.9063 42.8532 36.9213 42.7428 36.9028C42.6324 36.8844 42.6876 35.8694 42.8532 34.6145C43.0187 33.3597 43.2395 32.3632 43.3314 32.3632Z" fill="#6F9331"/>
<path d="M34.4628 38.2322C34.518 37.9554 37.222 36.2761 39.8708 37.3464C42.5197 38.4168 47.5966 41.0926 50.8157 39.7823L51.5147 33.711C51.5147 33.711 47.5598 33.7295 45.3892 32.4746C43.2187 31.2013 39.1902 30.094 35.125 31.5334L34.4628 38.2322Z" stroke="#99C445" stroke-width="0.25" stroke-miterlimit="10"/>
<path d="M2.91179 62.37C2.91179 62.37 6.77467 60.7276 10.6192 64.0124C12.9921 66.0424 18.1426 69.3087 19.9452 67.7401L22.5389 61.3182C22.5389 61.3182 18.5105 60.2294 15.4202 57.3321C12.385 54.4902 5.89173 54.0842 5.89173 54.0842L2.91179 62.37Z" fill="#6F9331"/>
<path d="M14.5369 57.904C16.3763 59.1957 16.3028 61.6686 15.0887 62.8865C13.8747 64.1045 11.3362 63.5508 10.1222 62.3329C8.90811 61.1149 8.90811 59.1219 10.1222 57.904C11.3362 56.686 13.1205 56.9259 14.5369 57.904Z" fill="#99C445"/>
<path d="M14.6639 59.4355C14.6271 59.4724 14.4984 59.417 14.3144 59.3248C14.1121 59.2325 13.8361 59.0664 13.505 58.9926C13.3395 58.9557 13.1555 58.9372 12.9716 58.9741C12.7877 58.9926 12.6221 59.0849 12.5485 59.1956C12.4565 59.3248 12.4198 59.5093 12.4565 59.6569C12.4933 59.7861 12.6405 59.9337 12.8796 60.0814C13.0084 60.1552 13.1372 60.229 13.2659 60.3213C13.4131 60.4135 13.5602 60.5243 13.689 60.6903C13.7442 60.7642 13.7994 60.8564 13.8361 60.9672C13.8729 61.0594 13.9097 61.1701 13.9097 61.2809C13.9281 61.5023 13.8729 61.7053 13.781 61.8714C13.689 62.0375 13.5602 62.1667 13.3947 62.2589C13.2291 62.3512 13.082 62.3881 12.9164 62.4066C12.6037 62.4435 12.3646 62.3696 12.1438 62.2774C11.9231 62.1851 11.7759 62.0744 11.6288 61.9637C11.5 61.8529 11.3897 61.7607 11.3161 61.6684C11.1689 61.5023 11.0953 61.3731 11.1321 61.3362C11.1689 61.2993 11.2977 61.3362 11.4816 61.447C11.684 61.5392 11.9599 61.7053 12.291 61.7791C12.4565 61.816 12.6405 61.8345 12.806 61.7976C12.9716 61.7607 13.082 61.6869 13.1555 61.5392C13.1923 61.4654 13.1923 61.41 13.1923 61.3362C13.1923 61.2993 13.1739 61.2809 13.1555 61.244C13.1371 61.2071 13.1188 61.1886 13.1004 61.1517C12.99 61.0225 12.7509 60.8933 12.4749 60.7273C12.3278 60.635 12.1806 60.5427 12.0519 60.3951C11.9783 60.3213 11.9231 60.2475 11.8679 60.1552C11.8127 60.0629 11.7576 59.9706 11.7392 59.8599C11.6288 59.4355 11.7576 59.0295 12.0151 58.7527C12.2726 58.4574 12.6221 58.3652 12.9164 58.3652C13.2107 58.3467 13.4683 58.4205 13.6706 58.5128C14.0937 58.6973 14.3328 58.9372 14.4984 59.1218C14.6455 59.2694 14.7007 59.3986 14.6639 59.4355Z" fill="#6F9331"/>
<path d="M13.5439 57.9044C13.6359 57.9413 13.268 59.0117 12.7345 60.3034C12.2011 61.5952 11.686 62.5917 11.5941 62.5548C11.5021 62.5179 11.87 61.4476 12.4034 60.1558C12.9369 58.864 13.4519 57.8675 13.5439 57.9044Z" fill="#6F9331"/>
<path d="M14.0228 58.2358C14.1147 58.2727 13.802 59.2508 13.3054 60.4134C12.8087 61.576 12.3489 62.4987 12.2385 62.4433C12.1465 62.4064 12.4592 61.4284 12.9559 60.2658C13.4525 59.1032 13.9308 58.1989 14.0228 58.2358Z" fill="#6F9331"/>
<path d="M3.90495 61.484C4.03372 61.2441 7.08723 60.3398 9.34977 62.093C11.6123 63.8461 15.7695 67.7952 19.2277 67.3892L21.527 61.7239C21.527 61.7239 17.7193 60.6905 15.9718 58.882C14.2244 57.0735 10.6558 54.9144 6.35144 55.2097L3.90495 61.484Z" stroke="#99C445" stroke-width="0.25" stroke-miterlimit="10"/>
<path d="M151.611 43.3394C152.99 45.1294 152.199 47.4546 150.691 48.2666C149.164 49.0786 146.92 47.8052 146.111 46.2736C145.301 44.7419 145.89 42.8596 147.398 42.0476C148.907 41.2172 150.544 41.9738 151.611 43.3394Z" fill="#D39C11"/>
<path d="M152.089 42.7303C153.469 44.5203 152.678 46.8455 151.17 47.6574C149.643 48.4694 147.399 47.1961 146.589 45.6644C145.78 44.1328 146.369 42.2505 147.877 41.4385C149.385 40.6081 151.022 41.3647 152.089 42.7303Z" fill="#E0BA44"/>
<path d="M151.759 44.2069C151.723 44.2438 151.612 44.1515 151.447 44.0039C151.281 43.8563 151.06 43.6164 150.766 43.4503C150.619 43.358 150.453 43.2842 150.269 43.2657C150.104 43.2473 149.902 43.2657 149.791 43.358C149.662 43.4503 149.57 43.6164 149.57 43.764C149.57 43.9116 149.662 44.0777 149.865 44.2992C149.975 44.3914 150.086 44.5021 150.196 44.6313C150.306 44.7605 150.417 44.9081 150.49 45.1111C150.527 45.2034 150.545 45.3141 150.564 45.4064C150.582 45.5171 150.564 45.6278 150.545 45.7386C150.49 45.9416 150.38 46.1261 150.251 46.2553C150.086 46.3844 149.92 46.4767 149.736 46.5136C149.552 46.5505 149.387 46.5505 149.239 46.5136C148.945 46.4583 148.724 46.3106 148.54 46.163C148.356 46.0154 148.246 45.8493 148.154 45.7201C148.062 45.5725 147.989 45.4433 147.952 45.351C147.86 45.148 147.823 45.0189 147.878 44.9819C147.915 44.945 148.025 45.0373 148.191 45.1849C148.356 45.3326 148.577 45.5725 148.871 45.757C149.019 45.8493 149.184 45.9046 149.35 45.9231C149.515 45.9416 149.644 45.8862 149.754 45.7755C149.81 45.7201 149.828 45.6463 149.846 45.5909C149.846 45.554 149.846 45.5356 149.846 45.4987C149.846 45.4617 149.828 45.4248 149.81 45.3879C149.754 45.2218 149.552 45.0373 149.331 44.7974C149.221 44.6682 149.111 44.5391 149.019 44.3545C148.982 44.2622 148.945 44.17 148.908 44.0777C148.89 43.967 148.871 43.8563 148.871 43.764C148.89 43.3395 149.129 42.9889 149.442 42.7859C149.773 42.5829 150.141 42.6014 150.417 42.6752C150.693 42.749 150.913 42.8782 151.097 43.0258C151.447 43.3211 151.612 43.6348 151.704 43.8378C151.796 44.0593 151.815 44.1884 151.759 44.2069Z" fill="#D39C11"/>
<path d="M151.149 42.4161C151.223 42.4899 150.56 43.3942 149.677 44.4645C148.776 45.5348 148.004 46.3468 147.912 46.273C147.838 46.1992 148.5 45.2949 149.383 44.2246C150.284 43.1727 151.075 42.3608 151.149 42.4161Z" fill="#D39C11"/>
<path d="M151.498 42.8783C151.571 42.9521 150.983 43.7825 150.173 44.7606C149.364 45.7386 148.647 46.4583 148.555 46.403C148.481 46.3292 149.07 45.4987 149.879 44.5207C150.707 43.5611 151.424 42.8229 151.498 42.8783Z" fill="#D39C11"/>
<path d="M148.501 47.1589C148.501 47.1773 148.464 47.1773 148.409 47.1589C148.354 47.1404 148.262 47.122 148.152 47.0666C147.931 46.9744 147.618 46.8083 147.305 46.513C146.993 46.2177 146.662 45.7933 146.459 45.2397C146.238 44.7045 146.183 44.0033 146.367 43.3574C146.459 43.0252 146.606 42.73 146.809 42.4716C147.011 42.2132 147.213 42.0103 147.434 41.8073C147.876 41.4382 148.372 41.1983 148.795 41.1245C149.237 41.0506 149.586 41.0876 149.825 41.1614C149.936 41.1798 150.028 41.2352 150.083 41.2536C150.138 41.2721 150.175 41.309 150.157 41.309C150.157 41.3275 150.12 41.3275 150.065 41.3275C150.009 41.3275 149.917 41.309 149.807 41.309C149.586 41.2905 149.255 41.2905 148.869 41.3828C148.483 41.4751 148.06 41.715 147.673 42.0656C147.471 42.2502 147.269 42.4531 147.121 42.6746C146.956 42.896 146.827 43.1728 146.754 43.4497C146.588 44.0217 146.625 44.6123 146.809 45.1105C146.974 45.6088 147.25 46.0148 147.508 46.31C147.784 46.6053 148.041 46.7898 148.244 46.919C148.335 46.9744 148.409 47.0297 148.464 47.0666C148.483 47.122 148.501 47.1589 148.501 47.1589Z" fill="#FFD066"/>
<path d="M24.6107 43.3394C25.9903 45.1294 25.1994 47.4546 23.691 48.2666C22.1643 49.0786 19.9201 47.8052 19.1107 46.2736C18.3014 44.7419 18.89 42.8596 20.3984 42.0476C21.9067 41.2172 23.5439 41.9738 24.6107 43.3394Z" fill="#D39C11"/>
<path d="M25.0893 42.7303C26.4689 44.5203 25.6779 46.8455 24.1695 47.6574C22.6428 48.4694 20.3986 47.1961 19.5893 45.6644C18.7799 44.1328 19.3685 42.2505 20.8769 41.4385C22.3852 40.6081 24.0224 41.3647 25.0893 42.7303Z" fill="#E0BA44"/>
<path d="M24.7594 44.2069C24.7226 44.2438 24.6123 44.1515 24.4467 44.0039C24.2812 43.8563 24.0604 43.6164 23.7661 43.4503C23.619 43.358 23.4534 43.2842 23.2695 43.2657C23.1039 43.2473 22.9016 43.2657 22.7912 43.358C22.6624 43.4503 22.5705 43.6164 22.5705 43.764C22.5705 43.9116 22.6624 44.0777 22.8648 44.2992C22.9751 44.3914 23.0855 44.5021 23.1959 44.6313C23.3062 44.7605 23.4166 44.9081 23.4902 45.1111C23.527 45.2034 23.5454 45.3141 23.5638 45.4064C23.5822 45.5171 23.5638 45.6278 23.5454 45.7386C23.4902 45.9416 23.3798 46.1261 23.2511 46.2553C23.0855 46.3844 22.92 46.4767 22.736 46.5136C22.5521 46.5505 22.3865 46.5505 22.2393 46.5136C21.945 46.4583 21.7243 46.3106 21.5404 46.163C21.3564 46.0154 21.246 45.8493 21.1541 45.7201C21.0621 45.5725 20.9885 45.4433 20.9517 45.351C20.8598 45.148 20.823 45.0189 20.8781 44.9819C20.9149 44.945 21.0253 45.0373 21.1909 45.1849C21.3564 45.3326 21.5771 45.5725 21.8715 45.757C22.0186 45.8493 22.1842 45.9046 22.3497 45.9231C22.5153 45.9416 22.644 45.8862 22.7544 45.7755C22.8096 45.7201 22.828 45.6463 22.8464 45.5909C22.8464 45.554 22.8464 45.5356 22.8464 45.4987C22.8464 45.4617 22.828 45.4248 22.8096 45.3879C22.7544 45.2218 22.5521 45.0373 22.3313 44.7974C22.221 44.6682 22.1106 44.5391 22.0186 44.3545C21.9818 44.2622 21.945 44.17 21.9082 44.0777C21.8898 43.967 21.8715 43.8563 21.8715 43.764C21.8899 43.3395 22.129 42.9889 22.4417 42.7859C22.7728 42.5829 23.1407 42.6014 23.4166 42.6752C23.6925 42.749 23.9133 42.8782 24.0972 43.0258C24.4467 43.3211 24.6123 43.6348 24.7042 43.8378C24.7962 44.0593 24.8146 44.1884 24.7594 44.2069Z" fill="#D39C11"/>
<path d="M24.149 42.4161C24.2226 42.4899 23.5603 43.3942 22.6774 44.4645C21.7761 45.5348 21.0035 46.3468 20.9115 46.273C20.8379 46.1992 21.5001 45.2949 22.3831 44.2246C23.2844 43.1727 24.0754 42.3608 24.149 42.4161Z" fill="#D39C11"/>
<path d="M24.4979 42.8783C24.5714 42.9521 23.9828 43.7825 23.1734 44.7606C22.3641 45.7386 21.6467 46.4583 21.5547 46.403C21.4811 46.3292 22.0698 45.4987 22.8791 44.5207C23.7069 43.5611 24.4243 42.8229 24.4979 42.8783Z" fill="#D39C11"/>
<path d="M21.501 47.1589C21.501 47.1773 21.4643 47.1773 21.4091 47.1589C21.3539 47.1404 21.2619 47.122 21.1515 47.0666C20.9308 46.9744 20.6181 46.8083 20.3054 46.513C19.9927 46.2177 19.6616 45.7933 19.4592 45.2397C19.2385 44.7045 19.1833 44.0033 19.3673 43.3574C19.4592 43.0252 19.6064 42.73 19.8087 42.4716C20.0111 42.2132 20.2134 42.0103 20.4342 41.8073C20.8756 41.4382 21.3723 41.1983 21.7954 41.1245C22.2368 41.0506 22.5863 41.0876 22.8255 41.1614C22.9358 41.1798 23.0278 41.2352 23.083 41.2536C23.1382 41.2721 23.175 41.309 23.1566 41.309C23.1566 41.3275 23.1198 41.3275 23.0646 41.3275C23.0094 41.3275 22.9174 41.309 22.8071 41.309C22.5863 41.2905 22.2552 41.2905 21.8689 41.3828C21.4827 41.4751 21.0596 41.715 20.6733 42.0656C20.4709 42.2502 20.2686 42.4531 20.1214 42.6746C19.9559 42.896 19.8271 43.1728 19.7535 43.4497C19.588 44.0217 19.6248 44.6123 19.8087 45.1105C19.9743 45.6088 20.2502 46.0148 20.5077 46.31C20.7837 46.6053 21.0412 46.7898 21.2435 46.919C21.3355 46.9744 21.4091 47.0297 21.4643 47.0666C21.4826 47.122 21.501 47.1589 21.501 47.1589Z" fill="#FFD066"/>
</g>
<defs>
<clipPath id="clip0_120_4">
<rect width="187" height="256" fill="white" transform="translate(0.74675 0.0842285)"/>
</clipPath>
</defs>
</svg>
