<svg width="150" height="218" viewBox="0 0 150 218" fill="none" xmlns="http://www.w3.org/2000/svg">
<g clip-path="url(#clip0_1_1080)">
<path d="M84.2165 83.688C84.2165 83.688 97.9251 96.2344 102.89 92.2002C107.222 88.677 105.414 80.5817 103.538 72.8898L101.825 68.2908L104.766 66.0854C104.766 66.0854 121.443 93.128 107.532 101.56C93.3241 110.179 81.8418 91.6354 81.8418 91.6354L84.2165 83.688Z" fill="#494F5E"/>
<path d="M62.4277 91.5007C69.2551 87.991 76.3522 85.2343 82.9232 83.4592L90.5331 94.997L89.71 113.931L73.0465 108.713L64.2088 91.931L62.4277 91.5007Z" fill="#E0E0E0"/>
<path d="M105.009 69.5816C105.009 69.5816 104.537 68.5731 104.065 66.0719C103.862 64.9826 102.23 61.2712 100.948 61.4191C99.6662 61.567 97.0351 61.8763 97.2375 63.2748C97.4534 64.6733 99.2344 66.6636 99.936 66.7173C100.638 66.7577 101.852 66.0584 101.852 66.0584L102.729 69.4606L105.009 69.5816Z" fill="#FCCAB1"/>
<path d="M99.1944 64.66C99.1944 64.66 96.2934 64.4448 96.0101 65.0499C95.7267 65.6416 97.2919 64.5524 98.7086 65.8299L99.1944 64.66Z" fill="#FCCAB1"/>
<path d="M60.74 92.3883C60.1059 92.227 55.2755 109.789 48.0838 105.889C40.8922 101.99 42.9161 84.9788 42.9161 84.9788L39.381 82.5718C39.381 82.5718 30.8536 111.739 47.5306 115.397C62.6965 118.705 68.4578 104.679 68.4578 104.679C68.4578 104.679 74.4621 95.9115 60.74 92.3883Z" fill="#494F5E"/>
<path d="M76.3774 131.17C76.3774 131.17 51.9286 187.905 49.9316 211.478L53.7636 212.634C53.7636 212.634 71.5875 162.637 85.6199 148.491C85.6199 148.491 82.9213 208.802 86.4564 214.154L89.1145 214.14C89.1145 214.14 92.4337 183.911 93.8909 173.839C95.3481 163.767 100.34 141.834 98.6673 134.357C98.6673 134.357 91.7321 132.945 76.3774 131.17Z" fill="#434954"/>
<path d="M92.1504 135.877V137.181L96.4006 136.522V135.379L92.1504 135.877Z" fill="#725B4C"/>
<path d="M97.1163 135.164C97.0084 135.205 97.1163 136.59 97.1163 136.59L99.0053 135.877L98.9379 134.425L97.1163 135.164Z" fill="#725B4C"/>
<path d="M71.6275 87.2515L70.6426 81.8994L78.1175 81.7112L79.5883 84.2124C79.5883 84.2258 76.4175 89.0803 71.6275 87.2515Z" fill="#FCCAB1"/>
<path d="M80.9532 83.4055L79.6174 81.7246L76.8379 85.1806L78.3761 87.7356L80.9532 83.4055Z" fill="#EAEAEA"/>
<path d="M76.8379 85.1807L76.9458 87.2516L77.9713 87.0633L76.8379 85.1807Z" fill="#CECECE"/>
<path d="M76.9437 87.2513L75.5 85.8394L75.8508 88.2464L76.9437 87.2513Z" fill="#CECECE"/>
<path d="M69.9961 85.8125C70.0366 85.8797 75.5011 85.8259 75.5011 85.8259L76.0813 88.6768L70.1445 88.1254L69.9961 85.8125Z" fill="#EAEAEA"/>
<path d="M52.7109 212.164C52.7109 212.164 52.7244 212.097 52.7514 211.962C52.7784 211.828 52.8189 211.626 52.8863 211.357C53.0078 210.832 53.1832 210.053 53.4126 209.057C53.5205 208.56 53.6554 208.009 53.8038 207.403C53.8713 207.094 53.9523 206.785 54.0467 206.462C54.1277 206.139 54.2221 205.79 54.3166 205.44C54.5055 204.741 54.6944 203.988 54.9102 203.181C55.0182 202.778 55.1126 202.374 55.2341 201.957C55.3555 201.54 55.4769 201.11 55.6119 200.666C55.8682 199.792 56.1381 198.864 56.4214 197.91C56.4889 197.668 56.5564 197.425 56.6373 197.183C56.7183 196.941 56.7992 196.699 56.8667 196.444C57.0286 195.946 57.1905 195.449 57.3524 194.938C57.5143 194.427 57.6897 193.902 57.8517 193.378C57.9326 193.109 58.0271 192.84 58.108 192.571C58.2025 192.302 58.2969 192.033 58.3914 191.764C58.7692 190.675 59.147 189.559 59.5517 188.416C61.1844 183.857 63.1003 178.895 65.2727 173.731C69.6308 163.431 74.0024 154.3 77.1462 147.684C78.7249 144.376 79.9932 141.7 80.8837 139.857C81.329 138.93 81.6798 138.217 81.9092 137.733C82.0306 137.491 82.1251 137.302 82.179 137.181C82.2465 137.06 82.2735 136.993 82.287 136.993C82.287 136.993 82.26 137.06 82.206 137.181C82.152 137.302 82.0711 137.491 81.9631 137.746C81.7338 138.23 81.41 138.956 80.9917 139.898C80.1416 141.754 78.8868 144.443 77.3351 147.764C74.2453 154.407 69.9007 163.538 65.5425 173.839C63.3837 178.989 61.4542 183.951 59.8081 188.496C59.4033 189.639 59.012 190.756 58.6342 191.831C58.5398 192.1 58.4453 192.369 58.3509 192.638C58.2699 192.907 58.1755 193.176 58.0945 193.432C57.9191 193.956 57.7572 194.481 57.5818 194.992C57.4199 195.503 57.2445 196 57.0961 196.498C57.0151 196.74 56.9342 196.995 56.8532 197.237C56.7722 197.479 56.7048 197.721 56.6373 197.963C56.354 198.918 56.0706 199.833 55.8143 200.72C55.6793 201.164 55.5579 201.581 55.423 201.998C55.3015 202.414 55.1936 202.831 55.0857 203.221C54.8698 204.015 54.6674 204.768 54.465 205.467C54.3705 205.817 54.2761 206.153 54.1816 206.476C54.1007 206.798 54.0062 207.108 53.9388 207.417C53.7904 208.022 53.6554 208.573 53.534 209.071C53.2911 210.066 53.0887 210.832 52.9673 211.357C52.8998 211.612 52.8459 211.814 52.8054 211.949C52.7379 212.097 52.7109 212.164 52.7109 212.164Z" fill="#32383F"/>
<path d="M89.1139 214.14C89.1139 214.14 89.0869 214.073 89.0599 213.952C89.0194 213.831 88.979 213.643 88.9115 213.401C88.844 213.159 88.7631 212.85 88.6686 212.486C88.6147 212.312 88.5742 212.11 88.5202 211.908C88.4662 211.707 88.4258 211.478 88.3718 211.236C88.2773 210.765 88.1694 210.241 88.048 209.663C88.021 209.515 87.994 209.367 87.967 209.219C87.94 209.071 87.913 208.909 87.8995 208.762C87.8456 208.452 87.7916 208.116 87.7376 207.78C87.7107 207.605 87.6837 207.444 87.6567 207.269C87.6297 207.094 87.6162 206.919 87.5892 206.731C87.5487 206.368 87.5083 205.991 87.4543 205.601C87.3463 204.835 87.3059 204.001 87.2384 203.141C87.2249 202.925 87.2114 202.71 87.1844 202.482C87.1709 202.267 87.1709 202.038 87.1574 201.809C87.144 201.352 87.117 200.895 87.1035 200.424C87.1035 200.303 87.09 200.182 87.09 200.075C87.09 199.954 87.09 199.833 87.09 199.712C87.09 199.469 87.09 199.227 87.09 198.985C87.09 198.743 87.09 198.488 87.09 198.246C87.09 197.99 87.0765 197.748 87.09 197.493C87.117 196.484 87.117 195.422 87.1844 194.346C87.2114 193.808 87.2249 193.257 87.2654 192.705C87.3059 192.154 87.3463 191.589 87.3868 191.025C87.5622 188.752 87.7916 186.358 88.1019 183.897C88.3988 181.437 88.7496 178.882 89.1139 176.273C89.856 171.055 90.6386 166.107 91.2188 161.588C91.2862 161.024 91.3672 160.459 91.4346 159.907C91.5021 159.356 91.5561 158.818 91.6235 158.28C91.7585 157.204 91.8529 156.169 91.9609 155.16C92.0148 154.649 92.0418 154.165 92.0958 153.668C92.1363 153.184 92.1902 152.7 92.2172 152.229C92.2442 151.758 92.2847 151.301 92.3117 150.844C92.3252 150.615 92.3387 150.4 92.3521 150.172C92.3656 149.956 92.3656 149.728 92.3791 149.513C92.4196 148.652 92.4601 147.832 92.4736 147.052C92.4871 146.272 92.5141 145.546 92.5141 144.86C92.5141 144.174 92.5141 143.542 92.5141 142.95C92.5006 142.359 92.4871 141.834 92.4601 141.35C92.4601 141.108 92.4466 140.879 92.4466 140.664C92.4331 140.449 92.4196 140.247 92.4061 140.073C92.3926 139.696 92.3656 139.387 92.3521 139.131C92.3387 138.876 92.3387 138.688 92.3252 138.553C92.3252 138.419 92.3252 138.351 92.3252 138.351C92.3252 138.351 92.3387 138.419 92.3521 138.553C92.3656 138.688 92.3791 138.876 92.4061 139.131C92.4331 139.387 92.4466 139.696 92.4871 140.073C92.5006 140.261 92.5141 140.463 92.541 140.664C92.5545 140.879 92.568 141.108 92.568 141.35C92.595 141.834 92.6085 142.372 92.6355 142.95C92.649 143.542 92.649 144.174 92.6625 144.86C92.676 145.546 92.649 146.285 92.649 147.052C92.649 147.832 92.6085 148.652 92.568 149.513C92.5545 149.728 92.5545 149.943 92.541 150.172C92.5275 150.387 92.5141 150.615 92.5006 150.844C92.4736 151.301 92.4466 151.758 92.4196 152.229C92.3926 152.7 92.3521 153.184 92.3117 153.668C92.2712 154.152 92.2307 154.649 92.1902 155.16C92.0823 156.169 92.0013 157.218 91.8664 158.294C91.7989 158.832 91.745 159.37 91.6775 159.934C91.61 160.486 91.5426 161.05 91.4751 161.615C90.9084 166.147 90.1258 171.096 89.3837 176.313C89.0194 178.922 88.6686 181.463 88.3583 183.924C88.048 186.385 87.8186 188.765 87.6297 191.038C87.5892 191.603 87.5487 192.168 87.5083 192.719C87.4678 193.27 87.4543 193.822 87.4138 194.359C87.3463 195.435 87.3463 196.484 87.3059 197.493C87.2924 197.748 87.3059 198.004 87.3059 198.246C87.3059 198.501 87.3059 198.743 87.3059 198.985C87.3059 199.227 87.3059 199.469 87.3059 199.712C87.3059 199.833 87.3059 199.954 87.3059 200.075C87.3059 200.196 87.3194 200.317 87.3194 200.424C87.3329 200.895 87.3463 201.352 87.3733 201.809C87.3868 202.038 87.3868 202.253 87.4003 202.482C87.4138 202.697 87.4273 202.925 87.4408 203.127C87.5083 203.988 87.5352 204.808 87.6432 205.575C87.6837 205.965 87.7241 206.341 87.7646 206.704C87.7916 206.879 87.8051 207.067 87.8321 207.242C87.8591 207.417 87.8861 207.592 87.913 207.753C87.967 208.089 88.0075 208.412 88.0615 208.735C88.0884 208.896 88.1019 209.044 88.1289 209.192C88.1559 209.34 88.1694 209.488 88.1964 209.636C88.3043 210.214 88.4123 210.738 88.4932 211.209C88.5472 211.451 88.5742 211.666 88.6282 211.881C88.6821 212.083 88.7226 212.285 88.7631 212.46C88.844 212.823 88.925 213.132 88.979 213.374C89.0329 213.616 89.0734 213.804 89.1004 213.939C89.1004 214.073 89.1139 214.14 89.1139 214.14Z" fill="#32383F"/>
<path d="M50.5386 211.666C50.5386 211.666 48.3123 215.942 49.4322 216.507C50.5521 217.072 53.0752 212.419 53.0752 212.419L50.5386 211.666Z" fill="#272E33"/>
<path d="M86.457 214.154C86.457 214.154 91.6382 218.914 92.3938 217.852C93.1494 216.79 89.1826 214.141 89.1826 214.141L86.457 214.154Z" fill="#272E33"/>
<path d="M43.4956 77.0449C43.8734 75.996 44.8179 75.1622 45.9108 74.9202C46.2076 74.853 46.5719 74.853 46.7473 75.1085C46.9228 75.364 46.7743 75.7405 46.518 75.9287C46.2616 76.117 45.9513 76.1842 45.6544 76.3053C45.1552 76.507 44.7234 76.8701 44.4401 77.3138C44.3456 77.4617 44.2647 77.6231 44.1567 77.7441C44.0353 77.8652 43.8599 77.9593 43.698 77.9189C43.4956 77.8786 43.3607 77.6634 43.3472 77.4483C43.3337 77.2466 43.4146 77.0314 43.4956 76.8432" fill="#FCCAB1"/>
<path d="M43.2792 79.2906C43.2792 79.2906 44.2911 78.5779 44.48 77.5424C44.6689 76.507 43.8054 75.4177 43.7514 74.5706C43.6975 73.7234 44.3316 73.3872 44.7499 72.7686C45.1682 72.1366 44.6689 71.4239 43.63 71.9752C42.5911 72.5266 42.2672 73.9789 42.5776 74.974C42.5776 74.974 42.7125 76.3994 41.5656 74.705C40.4187 73.0107 40.4187 72.3786 39.3798 73.0107C38.975 73.2527 39.2179 73.8847 39.2179 73.8847C39.2179 73.8847 38.044 73.683 38.3274 74.6378C38.3274 74.6378 37.0591 74.974 37.4234 75.875C37.4234 75.875 36.3304 75.8884 37.0591 77.5693C37.8012 79.2637 38.3813 79.5864 40.1489 80.9446C41.9434 82.3162 43.2792 79.2906 43.2792 79.2906Z" fill="#FCCAB1"/>
<path d="M39.7168 79.6671L39.7978 83.6475L42.955 84.8309L43.3598 78.9141L39.7168 79.6671Z" fill="#FCCAB1"/>
<path d="M53.4671 67.3494C53.4671 67.3494 48.1779 74.7588 47.7866 75.0009C47.4088 75.243 44.8452 74.6916 44.8452 74.6916L44.3999 75.3909L44.9127 75.7136C45.142 75.8615 45.2365 76.1574 45.1151 76.3994C44.9936 76.6684 44.6833 76.7759 44.4134 76.6684L43.7658 76.3994L41.3506 80.2857L43.6578 83.1096L42.9832 84.3065L34.6582 78.7662L35.3328 77.8921L38.8949 78.9544L41.0807 74.8799L40.7029 74.6378C40.3926 74.4361 40.2982 74.0192 40.5005 73.71C40.7029 73.4007 41.1212 73.3065 41.4315 73.5082L41.7284 73.6965L42.1602 72.8224L40.595 70.1061L44.9531 62.2394L49.2978 62.6697L51.2003 63.8665L53.4671 67.3494Z" fill="#F0C32B"/>
<path d="M53.0625 58.7565C53.0625 58.7565 51.0116 59.133 50.8497 59.523C50.7012 59.9129 50.9441 60.7198 50.9441 60.7198L50.5933 61.2846L48.8393 60.8139L48.3535 61.5804L49.5544 62.3335L49.0147 63.3286L50.9306 64.5388L51.4433 63.732L52.8196 64.2026L53.2244 63.5706L52.0775 62.3604L52.3474 61.8628C52.3474 61.8628 53.5482 61.3249 53.6562 61.0829C53.7506 60.8677 53.98 59.7381 53.0625 58.7565Z" fill="#F0C32B"/>
<path d="M51.6986 68.4252C51.6986 68.4252 53.9788 67.2688 55.5035 68.8556C57.0417 70.4558 55.4091 73.199 53.4931 73.8714C51.5771 74.5438 47.6777 74.88 47.6777 74.88L48.5548 73.4949C48.5548 73.4949 52.5081 73.468 54.1542 71.8005C54.7074 71.2492 55.49 69.4203 53.4796 69.1245C51.4692 68.8287 50.7676 70.3348 50.7676 70.3348L51.6986 68.4252Z" fill="#F0C32B"/>
<path d="M45.2501 63.9874C45.2501 63.9874 45.4795 61.4459 43.4286 60.6256C41.3642 59.8053 39.4078 62.3334 39.4888 64.3639C39.5697 66.381 40.7166 70.1194 40.7166 70.1194L41.6746 68.7881C41.6746 68.7881 40.2174 65.1304 41.1619 62.9789C41.4857 62.2527 42.8889 60.8407 43.9144 62.5889C44.9398 64.337 43.8064 65.5473 43.8064 65.5473L45.2501 63.9874Z" fill="#F0C32B"/>
<path d="M48.3506 65.0697L47.1445 64.7933L46.8803 65.6582L47.6605 65.9027L45.8281 68.7356L46.6834 69.2851L49.099 65.5505L48.3506 65.0697Z" fill="#E5A900"/>
<path opacity="0.26" d="M42.2949 67.0132L53.4669 67.3494L52.7518 68.21L41.5393 68.3714L42.2949 67.0132Z" fill="#F7F7F7"/>
<path opacity="0.26" d="M43.2402 65.3053L52.7796 66.3139L51.97 65.0767L43.9958 63.9337L43.2402 65.3053Z" fill="#F7F7F7"/>
<path d="M38.4902 78.1072C38.814 78.4031 39.1378 78.6855 39.4482 78.9813C39.5561 79.0889 39.6775 79.1965 39.826 79.2099C40.1228 79.2637 40.3792 78.9275 40.3792 78.6317C40.3792 78.3224 40.2038 78.0534 40.0283 77.8114C40.1768 78.0534 40.3927 78.3224 40.676 78.3089C40.9593 78.2955 41.1617 77.9727 41.1482 77.6904C41.1348 77.408 40.9728 77.1525 40.8109 76.9104C40.8784 77.1659 41.2292 77.2869 41.4721 77.1794C41.7149 77.0718 41.8499 76.7894 41.8634 76.5204C41.8768 76.2515 41.7824 75.9825 41.688 75.7405C41.4991 75.2698 41.2157 74.7992 40.757 74.5975C40.3927 74.4495 39.9474 74.5033 39.5966 74.6916C39.2458 74.8799 38.9759 75.1892 38.76 75.5253C38.4632 75.9825 38.2743 76.507 38.2878 77.0583C38.3013 77.5962 38.5441 78.1476 39.0029 78.4569" fill="#FCCAB1"/>
<path d="M54.1694 66.0048L55.9505 67.6857L53.5757 67.4033L51.9296 69.9314L52.1725 66.8251L50.0137 65.3055L52.7527 65.4131L54.4123 62.885L54.1694 66.0048Z" fill="#F7F7F7"/>
<path d="M31.7577 62.7369L31.9871 64.0817L32.9046 65.0902L31.5553 65.3054L30.5299 66.2198L30.314 64.8751L29.3965 63.8665L30.7458 63.6379L31.7577 62.7369Z" fill="#F0C32B"/>
<path d="M56.7053 52.2885L56.9752 53.9425L58.0951 55.1796L56.449 55.4486L55.1941 56.5782L54.9243 54.9241L53.7909 53.6735L55.4505 53.4046L56.7053 52.2885Z" fill="#F0C32B"/>
<path d="M42.3629 54.4265L42.4168 55.2602L42.9026 55.9461L42.066 55.9864L41.3914 56.484L41.3374 55.6368L40.8517 54.9644L41.6882 54.9241L42.3629 54.4265Z" fill="#F0C32B"/>
<path d="M31.5275 72.8494L31.6625 73.6697L32.2291 74.2882L31.3926 74.4227L30.7719 74.9875L30.637 74.1672L30.0703 73.5352L30.9069 73.4007L31.5275 72.8494Z" fill="#F0C32B"/>
<path d="M56.4885 77.3945L56.6234 78.2148L57.1901 78.8468L56.367 78.9813L55.7329 79.5327L55.5979 78.7124L55.0312 78.0938L55.8678 77.9593L56.4885 77.3945Z" fill="#F0C32B"/>
<path d="M75.7577 87.3455L76.4863 87.2514C76.4863 87.2514 77.5522 86.3638 77.5792 86.4042C77.5927 86.4445 78.0784 87.2514 78.0784 87.2514L77.0935 87.7355L75.9871 88.2465L75.7577 87.3455Z" fill="#EA9315"/>
<path d="M76.2441 87.0766C76.2441 87.0766 85.1089 104.639 85.5946 107.463L89.9392 118.207L94.2704 115.585L77.1886 86.5925L76.2441 87.0766Z" fill="#F9AC30"/>
<path d="M81.8281 83.6878C81.8281 83.6878 91.7453 102.111 89.7079 113.917C89.6539 114.24 89.3031 119.538 88.9118 125.791C88.48 132.676 87.9943 140.557 87.9943 140.557L99.0044 137.531C99.0044 137.531 98.8424 113.904 95.024 101.398C91.7453 90.6804 84.2298 83.6743 84.2298 83.6743C84.2298 83.6743 83.1909 83.1634 81.8281 83.6878Z" fill="#494F5E"/>
<path d="M89.7097 113.931C89.7097 113.931 92.1788 109.305 91.855 106.562L90.4113 105.378V99.7171L82.653 83.4592L81.8164 83.7013C81.8299 83.6878 91.4907 105.93 89.7097 113.931Z" fill="#3C424C"/>
<path d="M88.8982 132.945C88.8847 132.945 88.9521 132.676 89.1006 132.206C89.141 132.085 89.1815 131.964 89.222 131.816C89.2625 131.668 89.303 131.52 89.3569 131.345C89.4109 131.184 89.4514 130.996 89.5188 130.807C89.5458 130.713 89.5728 130.619 89.5998 130.511C89.6268 130.417 89.6538 130.31 89.6808 130.202C89.7887 129.785 89.9101 129.315 90.0181 128.817C90.072 128.562 90.1395 128.306 90.1935 128.037C90.2474 127.768 90.3014 127.486 90.3419 127.203C90.5308 126.06 90.6927 124.81 90.7602 123.479C90.8141 122.147 90.7872 120.883 90.6927 119.727C90.6657 119.444 90.6387 119.162 90.6117 118.893C90.5983 118.758 90.5848 118.624 90.5578 118.49C90.5443 118.355 90.5173 118.234 90.5038 118.1C90.4903 117.979 90.4633 117.844 90.4498 117.723C90.4363 117.656 90.4363 117.602 90.4228 117.535C90.4094 117.481 90.3959 117.414 90.3959 117.36C90.3554 117.131 90.3149 116.903 90.2744 116.688C90.2609 116.58 90.234 116.472 90.2205 116.378C90.207 116.271 90.18 116.177 90.153 116.082C90.1125 115.894 90.072 115.706 90.0316 115.545C89.9911 115.37 89.9641 115.208 89.9236 115.074C89.8831 114.926 89.8562 114.792 89.8292 114.684C89.7077 114.213 89.6538 113.944 89.6808 113.931C89.6942 113.931 89.7887 114.186 89.9371 114.644C89.9776 114.765 90.0181 114.886 90.0585 115.034C90.099 115.182 90.1395 115.329 90.18 115.504C90.2205 115.679 90.2744 115.854 90.3149 116.042C90.3419 116.136 90.3689 116.23 90.3824 116.338C90.4094 116.446 90.4229 116.54 90.4498 116.647C90.4903 116.862 90.5443 117.091 90.5848 117.32C90.5983 117.373 90.6117 117.441 90.6252 117.494C90.6387 117.548 90.6387 117.615 90.6522 117.683C90.6657 117.804 90.6927 117.938 90.7062 118.059C90.7197 118.194 90.7467 118.315 90.7602 118.449C90.7737 118.584 90.8006 118.718 90.8141 118.853C90.8411 119.122 90.8681 119.404 90.9086 119.7C91.0165 120.856 91.057 122.147 90.9895 123.492C90.9221 124.837 90.7467 126.101 90.5443 127.257C90.4903 127.54 90.4363 127.822 90.3824 128.091C90.3284 128.36 90.2609 128.615 90.1935 128.871C90.072 129.382 89.9371 129.839 89.8157 130.256C89.7887 130.364 89.7617 130.471 89.7212 130.565C89.6942 130.659 89.6538 130.767 89.6268 130.861C89.5593 131.049 89.5053 131.224 89.4514 131.399C89.3974 131.56 89.3434 131.722 89.2895 131.856C89.2355 131.991 89.1815 132.125 89.141 132.233C89.0196 132.703 88.9117 132.945 88.8982 132.945Z" fill="#3C424C"/>
<path d="M92.151 117.79C92.151 118.019 91.9621 118.207 91.7327 118.207C91.5034 118.207 91.3145 118.019 91.3145 117.79C91.3145 117.562 91.5034 117.374 91.7327 117.374C91.9621 117.374 92.151 117.562 92.151 117.79Z" fill="#3C424C"/>
<path d="M92.2994 123.438C92.2994 123.667 92.1105 123.855 91.8812 123.855C91.6518 123.855 91.4629 123.667 91.4629 123.438C91.4629 123.21 91.6518 123.021 91.8812 123.021C92.1105 123.021 92.2994 123.21 92.2994 123.438Z" fill="#3C424C"/>
<path d="M91.3005 91.8505C91.314 91.837 91.4085 91.9849 91.5704 92.2673C91.7323 92.5497 91.9482 92.9531 92.2045 93.4641C92.4609 93.9751 92.7442 94.5937 93.0546 95.2795C93.3514 95.9788 93.6752 96.7453 93.9856 97.5521C94.2959 98.3724 94.5658 99.1524 94.7951 99.8785C95.0245 100.605 95.2134 101.25 95.3618 101.801C95.5103 102.353 95.6182 102.81 95.6857 103.119C95.7531 103.429 95.7801 103.603 95.7666 103.617C95.7261 103.63 95.5237 102.945 95.1864 101.869C95.011 101.331 94.8086 100.685 94.5658 99.9592C94.3229 99.2465 94.053 98.4665 93.7427 97.6597C93.4324 96.8529 93.122 96.0729 92.8387 95.3871C92.5553 94.6878 92.272 94.0693 92.0426 93.5448C91.5704 92.5094 91.2735 91.8773 91.3005 91.8505Z" fill="#3C424C"/>
<path d="M85.2967 139.71L71.8849 137.545C71.8849 137.545 74.8128 131.157 76.9312 121.69C78.4289 115.02 60.7264 92.3884 60.7264 92.3884L68.5792 88.2466L89.6953 113.931C89.6953 113.931 90.4104 125.899 89.0746 132.435L85.2967 139.71Z" fill="#494F5E"/>
<path d="M67.3926 88.8786L78.9019 106.965L83.9077 108.996L85.3919 112.64L89.7095 113.931L68.5799 88.2466L67.3926 88.8786Z" fill="#3C424C"/>
<path d="M68.7957 103.63C68.7822 103.63 68.7417 103.415 68.6878 103.039C68.6338 102.649 68.5528 102.097 68.4314 101.411C68.31 100.726 68.1346 99.9188 67.8647 99.0447C67.7298 98.6144 67.5679 98.1572 67.3655 97.7C67.1631 97.2428 66.9337 96.7856 66.6504 96.3418C66.5829 96.2342 66.5154 96.1132 66.4345 96.0191C66.3535 95.9115 66.2861 95.8039 66.2051 95.7098C66.0432 95.5081 65.8948 95.3064 65.7194 95.1315C65.6384 95.0374 65.5575 94.9433 65.4765 94.8626C65.3955 94.7819 65.3146 94.6878 65.2201 94.6071C65.0447 94.4457 64.8828 94.2844 64.6939 94.1499C63.9923 93.5716 63.2637 93.1682 62.6295 92.8993C61.9954 92.6303 61.4422 92.5093 61.0644 92.4421C60.9699 92.4152 60.889 92.4152 60.808 92.4017C60.7406 92.3883 60.6731 92.3748 60.6191 92.3748C60.5112 92.3614 60.4707 92.3479 60.4707 92.3345C60.4707 92.321 60.5247 92.321 60.6326 92.321C60.6866 92.321 60.7541 92.321 60.8215 92.321C60.9025 92.321 60.9834 92.321 61.0779 92.3345C61.4692 92.3748 62.0359 92.4824 62.697 92.7245C63.3581 92.9665 64.1137 93.3699 64.8423 93.9616C65.0312 94.1095 65.2066 94.2709 65.3821 94.4323C65.4765 94.513 65.5575 94.6071 65.6519 94.6878C65.7464 94.7685 65.8273 94.8626 65.9083 94.9702C66.0837 95.1584 66.2456 95.3601 66.4075 95.5619C66.4885 95.6694 66.5559 95.777 66.6369 95.8846C66.7178 95.9922 66.7853 96.1132 66.8528 96.2208C67.1361 96.678 67.379 97.1486 67.5814 97.6193C67.7838 98.09 67.9457 98.5472 68.0806 98.9909C68.337 99.8784 68.4989 100.699 68.5933 101.398C68.6878 102.097 68.7417 102.649 68.7687 103.039C68.8227 103.415 68.8227 103.63 68.7957 103.63Z" fill="#3C424C"/>
<path d="M95.3219 119.928C95.3219 119.969 94.8091 119.982 93.9861 120.049C93.7837 120.063 93.5543 120.076 93.3115 120.117C93.0686 120.143 92.8122 120.17 92.5424 120.211C92.0027 120.291 91.409 120.386 90.8018 120.52C90.1811 120.654 89.6144 120.816 89.0882 120.964C88.8319 121.044 88.5755 121.125 88.3461 121.206C88.1168 121.286 87.9009 121.354 87.712 121.434C86.9429 121.717 86.4706 121.932 86.4437 121.892C86.4302 121.865 86.8754 121.596 87.631 121.26C87.8199 121.179 88.0358 121.085 88.2652 121.004C88.4946 120.91 88.7374 120.829 89.0073 120.735C89.5335 120.56 90.1137 120.399 90.7343 120.264C91.355 120.13 91.9622 120.036 92.5019 119.969C92.7717 119.942 93.0416 119.915 93.2845 119.901C93.5273 119.888 93.7567 119.875 93.9726 119.875C94.8091 119.848 95.3219 119.901 95.3219 119.928Z" fill="#3C424C"/>
<path d="M64.2343 68.7344C63.7755 68.9495 61.2119 69.7833 62.4532 73.0779C63.6946 76.3725 65.9074 75.337 65.9074 75.337L64.2343 68.7344Z" fill="#EAB69B"/>
<path d="M64.9364 74.1671C64.9364 74.1805 64.8689 74.2074 64.7475 74.194C64.6261 74.194 64.4507 74.1671 64.2618 74.0729C64.0594 73.9922 63.8435 73.8443 63.6411 73.6426C63.5466 73.535 63.4522 73.414 63.3712 73.2795C63.2903 73.1451 63.2363 72.9971 63.1823 72.8358C63.1014 72.513 63.1149 72.1903 63.1689 71.9079C63.2363 71.6255 63.3443 71.3969 63.4792 71.2221C63.6006 71.0473 63.7355 70.9262 63.83 70.8725C63.9244 70.8052 63.9919 70.7918 64.0054 70.8052C64.0324 70.8456 63.83 70.9935 63.6411 71.3297C63.5466 71.491 63.4657 71.7062 63.4117 71.9617C63.3712 72.2037 63.3712 72.4861 63.4387 72.7685C63.4792 72.903 63.5332 73.0375 63.5871 73.1585C63.6546 73.2795 63.7221 73.3871 63.803 73.4812C63.9649 73.6695 64.1538 73.8174 64.3157 73.9116C64.6935 74.0998 64.9364 74.1267 64.9364 74.1671Z" fill="#D68772"/>
<path d="M65.003 72.5937C64.9625 72.6206 64.8816 72.5265 64.7331 72.4324C64.5847 72.3382 64.3419 72.2441 64.0855 72.2979C63.9236 72.3248 63.7887 72.4055 63.6807 72.4996C63.5728 72.5937 63.5053 72.6879 63.4513 72.7685L63.3164 72.7013C63.3839 72.6072 63.4513 72.5534 63.4648 72.5668C63.4918 72.5803 63.4783 72.6475 63.4513 72.7685L63.3164 72.7013C63.3434 72.5937 63.3974 72.4593 63.5188 72.3248C63.6402 72.1903 63.8156 72.0693 64.0315 72.0289C64.2069 71.9886 64.3823 72.0155 64.5308 72.0693C64.6792 72.1231 64.7871 72.2038 64.8681 72.2844C65.0165 72.4324 65.0435 72.5803 65.003 72.5937Z" fill="#D68772"/>
<path d="M81.5456 66.4082C82.0448 66.5158 84.7299 66.7982 84.2037 70.281C83.6774 73.7639 81.3027 73.2126 81.3027 73.2126L81.5456 66.4082Z" fill="#EAB69B"/>
<path d="M81.9909 71.8678C81.9774 71.8274 82.2203 71.7467 82.5171 71.4912C82.6655 71.3702 82.8139 71.182 82.9354 70.9668C82.9894 70.8592 83.0433 70.7382 83.0838 70.6037C83.1243 70.4692 83.1513 70.3348 83.1513 70.1869C83.1648 69.9045 83.0973 69.6221 83.0028 69.3935C82.9084 69.1649 82.7735 68.9631 82.652 68.8287C82.3957 68.5328 82.1663 68.4253 82.1798 68.3849C82.1798 68.3715 82.2473 68.3715 82.3687 68.4253C82.4766 68.4656 82.6251 68.5597 82.787 68.6942C82.9489 68.8421 83.1108 69.0438 83.2322 69.2993C83.3537 69.5548 83.4346 69.8641 83.4211 70.2003C83.4076 70.3617 83.3806 70.523 83.3402 70.671C83.2862 70.8189 83.2322 70.9534 83.1513 71.0744C83.0028 71.3164 82.8139 71.5047 82.6385 71.6257C82.4631 71.7467 82.3012 71.814 82.1798 71.8409C82.0718 71.8812 82.0044 71.8812 81.9909 71.8678Z" fill="#D68772"/>
<path d="M81.5983 70.3483C81.5714 70.3348 81.5579 70.2003 81.6793 70.0121C81.7333 69.918 81.8277 69.8104 81.9626 69.7431C82.0841 69.6625 82.2595 69.6087 82.4349 69.5952C82.6643 69.5952 82.8667 69.6759 83.0016 69.77C83.15 69.8776 83.231 69.9986 83.2849 70.0928L83.1635 70.1869C83.1095 70.0793 83.0825 70.0121 83.1095 69.9852C83.1365 69.9717 83.1905 69.9986 83.2849 70.0793L83.1635 70.1734C83.096 70.1062 83.0016 70.0255 82.8801 69.9583C82.7587 69.8911 82.6103 69.8507 82.4484 69.8507C82.192 69.8507 81.9761 69.9986 81.8412 70.1197C81.6928 70.2407 81.6388 70.3617 81.5983 70.3483Z" fill="#D68772"/>
<path d="M80.7361 80.9985C78.3884 84.0242 68.5522 83.0829 67.095 81.9936C65.6378 80.9044 63.2226 65.1845 63.2226 65.1845C61.8193 57.0892 66.4473 56.0941 70.8325 54.4669C75.2176 52.8398 80.2909 54.9241 81.4512 61.6075C81.4512 61.6209 82.6521 78.5377 80.7361 80.9985Z" fill="#FCCAB1"/>
<path d="M64.9758 75.0145C71.6412 74.5035 77.4701 73.374 81.9631 71.2358C81.9631 71.2358 81.8552 78.2553 81.6933 79.0218C81.3425 80.7431 81.329 82.9081 74.1643 83.0292C66.9997 83.1502 67.0942 82.5719 66.3386 81.0389C65.9338 80.1918 64.9353 75.0818 64.9758 75.0145Z" fill="#B76A2B"/>
<path d="M74.8947 71.6526C74.9081 71.666 74.8002 71.8005 74.5708 72.0022C74.3415 72.2174 74.0176 72.4998 73.5589 72.8225C73.3295 72.9839 73.0731 73.1453 72.7763 73.2797C72.6953 73.3066 72.6279 73.347 72.5334 73.3739C72.4929 73.3873 72.4525 73.4008 72.412 73.4142C72.3715 73.4277 72.3175 73.4277 72.2771 73.4411C72.2231 73.4411 72.1961 73.468 72.1152 73.4545C72.0342 73.4411 71.9667 73.3873 71.9263 73.3335C71.8588 73.2259 71.8318 73.1184 71.8183 73.0242C71.7913 72.8225 71.8048 72.6343 71.8183 72.446C71.8318 72.2577 71.8588 72.056 71.8993 71.8678C71.9667 71.4778 72.0477 71.0744 72.1421 70.6709C72.331 69.8641 72.5604 69.0976 72.7628 68.4118C72.8168 68.237 72.8707 68.0756 72.9112 67.9142C72.9247 67.8739 72.9382 67.8336 72.9517 67.7932L72.9652 67.7394C72.9652 67.726 72.9652 67.7125 72.9652 67.6991V67.6722V67.6453V67.5915C72.9652 67.5512 72.9517 67.5108 72.9517 67.4839C72.8977 67.1746 72.8168 66.8922 72.7493 66.6367C72.4525 65.5879 72.2501 64.9558 72.2906 64.9424C72.3041 64.9424 72.385 65.0903 72.493 65.3727C72.6009 65.6551 72.7628 66.072 72.9247 66.583C73.0057 66.8385 73.1001 67.1343 73.1676 67.4436C73.1811 67.4839 73.1811 67.5243 73.1946 67.5646L73.2081 67.6318V67.6587V67.6991V67.7798C73.2081 67.8067 73.1946 67.8201 73.1946 67.847C73.1811 67.8873 73.1676 67.9277 73.1676 67.968C73.1271 68.1294 73.0731 68.3042 73.0327 68.479C72.8438 69.1783 72.6279 69.9313 72.439 70.7382C72.3445 71.1416 72.2636 71.5316 72.1961 71.9081C72.1556 72.0964 72.1286 72.2846 72.1152 72.4729C72.1017 72.6612 72.0882 72.836 72.1017 72.9973C72.1152 73.078 72.1286 73.1587 72.1556 73.1856C72.1691 73.199 72.1691 73.2125 72.1826 73.2125C72.1826 73.2125 72.2366 73.2125 72.2771 73.199C72.3175 73.199 72.358 73.1856 72.385 73.1856C72.4255 73.1722 72.466 73.1587 72.493 73.1587C72.5739 73.1453 72.6414 73.1049 72.7088 73.078C72.9922 72.957 73.2485 72.8091 73.4779 72.6612C73.9367 72.3653 74.2875 72.1098 74.5304 71.9216C74.7462 71.7467 74.8812 71.6392 74.8947 71.6526Z" fill="#E2A893"/>
<path d="M74.3412 62.8177L79.7653 62.7639L79.8598 61.4999L74.1523 60.7334L74.3412 62.8177Z" fill="#B9682B"/>
<path d="M66.2051 68.0354C66.2051 68.0354 66.6368 65.1308 68.7282 65.1846C70.8061 65.2384 71.2514 67.6992 71.2514 67.6992C69.8346 65.0501 67.1766 65.3325 66.2051 68.0354Z" fill="#EFA98E"/>
<path d="M71.2506 67.7127C71.2102 67.7262 71.0752 67.3496 70.6839 66.8655C70.495 66.6235 70.2117 66.3814 69.8474 66.2066C69.4831 66.0318 69.0513 65.9377 68.5926 65.9915C68.1338 66.0453 67.7155 66.2201 67.3917 66.4487C67.0544 66.6773 66.825 66.9731 66.6631 67.2286C66.3393 67.7531 66.2718 68.1565 66.2178 68.143C66.2044 68.143 66.2044 68.0355 66.2313 67.8606C66.2718 67.6858 66.3393 67.4303 66.4877 67.1345C66.6496 66.8521 66.879 66.5159 67.2298 66.247C67.5806 65.978 68.0394 65.7763 68.5521 65.7091C69.0648 65.6553 69.564 65.7763 69.9553 65.978C70.3466 66.1932 70.63 66.4756 70.8189 66.7445C71.2102 67.2959 71.2776 67.6993 71.2506 67.7127Z" fill="#443949"/>
<path d="M65.2601 64.2835C65.2601 64.2835 70.9001 63.6111 70.927 63.4901C70.954 63.3825 70.6977 61.3385 70.6977 61.3385L65.1387 63.1001L65.2601 64.2835Z" fill="#B9682B"/>
<path d="M64.4914 70.2541C64.4914 70.2541 62.2381 60.814 64.262 58.0708C64.262 58.0708 75.5689 60.2627 77.2825 58.6894C79.0096 57.116 79.0905 56.363 79.0905 56.363C79.0905 56.363 80.3454 60.5317 80.966 62.1319C81.5867 63.7321 81.4787 66.946 81.4787 66.946L82.1804 66.5561C82.1804 66.5561 81.7216 55.5158 80.8176 55.0989C79.9001 54.6821 75.3935 50.984 71.656 52.5843C67.9186 54.1845 61.604 58.0842 61.8198 60.4375C62.0357 62.7908 64.1136 70.4154 64.1136 70.4154L64.4914 70.2541Z" fill="#B76A2B"/>
<path d="M69.5918 53.5659C69.5918 53.5659 75.758 49.4914 77.3366 50.5403C78.9153 51.5892 78.7264 53.8349 78.7264 53.8349C78.7264 53.8349 79.5224 53.1356 80.3455 53.6601C81.1685 54.1845 81.344 56.6588 81.344 56.6588L76.4731 55.5561L69.5918 53.5659Z" fill="#B76A2B"/>
<path d="M64.2613 58.0708C64.2613 58.0708 61.5898 60.3837 61.9541 61.8226L62.4398 63.8128L63.4248 62.3874C63.4248 62.4008 63.5867 59.6979 64.2613 58.0708Z" fill="#D17933"/>
<path d="M68.7684 58.7969C78.9015 55.0048 75.5283 50.5403 75.5283 50.5403L73.4909 51.3471C76.2839 55.1393 65.5977 58.3128 65.5977 58.3128L68.7684 58.7969Z" fill="#D17933"/>
<path d="M74.1113 59.2542C74.1113 59.2542 78.8608 56.1209 78.7123 53.8214C78.7123 53.8214 79.279 53.2701 79.8053 53.4584C79.8053 53.4584 80.4124 56.242 75.7979 59.1735L74.1113 59.2542Z" fill="#D17933"/>
<path d="M79.4279 57.4791C79.4279 57.4791 81.3573 57.385 81.4653 57.8556L81.7486 59.9265L79.8326 58.7835L79.4279 57.4791Z" fill="#D17933"/>
<path d="M75.3392 62.8043L74.7051 60.8007L75.9869 60.9755L76.6076 62.7909L75.3392 62.8043Z" fill="#D17933"/>
<path d="M77.511 62.7907L77.1602 61.1367L77.4705 61.1771L78.0642 62.7773L77.511 62.7907Z" fill="#D17933"/>
<path d="M70.1984 61.4998L69.9555 63.6244L68.957 63.8127L69.3483 61.7687L70.1984 61.4998Z" fill="#D17933"/>
<path d="M67.9183 63.9606L68.1207 62.1587L67.6485 62.4276L67.5001 63.5303L67.2437 62.4814L66.623 62.6428L66.9064 64.0548L67.9183 63.9606Z" fill="#D17933"/>
<path d="M74.8281 67.457C74.8281 67.457 75.2599 64.5524 77.3378 64.6062C79.4156 64.66 79.8609 67.1209 79.8609 67.1209C78.4577 64.4717 75.7996 64.7541 74.8281 67.457Z" fill="#EFA98E"/>
<path d="M79.8737 67.1209C79.8332 67.1344 79.6983 66.7578 79.307 66.2737C79.1181 66.0317 78.8347 65.7896 78.4704 65.6148C78.1061 65.44 77.6744 65.3459 77.2156 65.3997C76.7569 65.4535 76.3386 65.6283 76.0148 65.8569C75.6774 66.0855 75.4481 66.3813 75.2862 66.6368C74.9623 67.1613 74.8949 67.5647 74.8409 67.5512C74.8274 67.5512 74.8274 67.4437 74.8544 67.2688C74.8949 67.094 74.9623 66.8385 75.1108 66.5427C75.2727 66.2603 75.502 65.9241 75.8528 65.6552C76.2037 65.3862 76.6624 65.1845 77.1751 65.1173C77.6879 65.0635 78.1871 65.1845 78.5784 65.3862C78.9697 65.6014 79.253 65.8838 79.4419 66.1527C79.8332 66.7175 79.9007 67.1209 79.8737 67.1209Z" fill="#443949"/>
<path d="M77.916 73.8042C77.9564 73.858 77.7676 74.1001 77.3763 74.3825C77.1874 74.5304 76.9445 74.6783 76.6611 74.8262C76.3778 74.9742 76.054 75.1086 75.7032 75.2296C75.3524 75.3372 75.0015 75.4179 74.6912 75.4717C74.3809 75.512 74.084 75.5389 73.8412 75.5389C73.3554 75.5389 73.0586 75.4583 73.0586 75.391C73.0586 75.2297 74.2055 75.1624 75.5143 74.7187C76.85 74.3018 77.8215 73.6832 77.916 73.8042Z" fill="#D68772"/>
<path d="M68.7891 12.9155C68.7891 12.9155 71.1832 15.3974 69.7891 19.3169C68.9254 21.7383 67.9405 26.6567 69.6831 27.5798L75.3804 27.6857C75.3804 27.6857 75.0319 24.2807 76.335 21.0573C77.6381 17.8793 76.0319 12.7793 76.0319 12.7793L68.7891 12.9155Z" fill="#6F9331"/>
<path d="M75.6221 20.5277C75.1675 22.3286 73.2583 22.9945 71.9703 22.4194C70.6824 21.8443 70.3642 19.7408 70.94 18.4393C71.5158 17.153 73.031 16.5628 74.3341 17.1378C75.6221 17.7129 75.9706 19.1506 75.6221 20.5277Z" fill="#99C445"/>
<path d="M74.5001 21.0724C74.4546 21.0573 74.4546 20.9513 74.4849 20.7697C74.5001 20.5881 74.5455 20.3309 74.5001 20.0433C74.4849 19.9071 74.4394 19.7558 74.3637 19.6347C74.2879 19.5136 74.1819 19.4077 74.0606 19.3774C73.9394 19.3472 73.7879 19.3623 73.6818 19.438C73.5909 19.4985 73.5303 19.665 73.4848 19.892C73.4697 20.0131 73.4394 20.1341 73.4242 20.2703C73.3939 20.4065 73.3485 20.5427 73.2727 20.6941C73.2273 20.7697 73.1818 20.8303 73.106 20.8908C73.0454 20.9513 72.9697 20.9967 72.8939 21.0421C72.7272 21.1178 72.5605 21.1329 72.409 21.1027C72.2575 21.0724 72.106 21.0119 71.9999 20.9211C71.8787 20.8303 71.8029 20.7092 71.7423 20.6033C71.6362 20.3763 71.6059 20.1644 71.6211 19.9677C71.6211 19.7709 71.6665 19.6196 71.712 19.4834C71.7575 19.3472 71.8029 19.2412 71.8484 19.1656C71.9393 18.9991 72.0151 18.9234 72.0454 18.9234C72.0908 18.9386 72.0908 19.0445 72.0757 19.2261C72.0605 19.4077 72.0151 19.665 72.0605 19.9525C72.0757 20.0887 72.1211 20.2401 72.1969 20.346C72.2726 20.4671 72.3636 20.5276 72.4999 20.5276C72.5605 20.5276 72.6212 20.5125 72.6666 20.4973C72.6969 20.4822 72.7121 20.4671 72.7272 20.4519C72.7424 20.4368 72.7727 20.4065 72.7878 20.3763C72.8636 20.2552 72.8787 20.0282 72.9242 19.7709C72.9545 19.6347 72.9848 19.4985 73.0454 19.3472C73.0757 19.2715 73.1212 19.1958 73.1666 19.1353C73.2273 19.0596 73.2879 18.9991 73.3485 18.9537C73.6364 18.7418 73.9849 18.7267 74.2728 18.8326C74.5758 18.9537 74.7425 19.1807 74.8334 19.4077C74.9243 19.6347 74.9546 19.8466 74.9395 20.0282C74.9243 20.4065 74.8031 20.6638 74.7122 20.8303C74.6213 21.0119 74.5455 21.0875 74.5001 21.0724Z" fill="#6F9331"/>
<path d="M75.3499 19.7712C75.3499 19.862 74.4105 19.8922 73.2741 19.8468C72.1376 19.8014 71.1982 19.7106 71.2133 19.6198C71.2133 19.529 72.1528 19.4988 73.2892 19.5442C74.4256 19.5896 75.3499 19.6955 75.3499 19.7712Z" fill="#6F9331"/>
<path d="M75.2268 20.2402C75.2268 20.331 74.3783 20.3613 73.3479 20.331C72.3024 20.3007 71.469 20.1948 71.469 20.1191C71.469 20.0283 72.3175 19.9981 73.3479 20.0283C74.3934 20.0586 75.2268 20.1494 75.2268 20.2402Z" fill="#6F9331"/>
<path d="M69.7579 13.4149C69.9852 13.4452 71.5611 15.5185 70.8943 17.7733C70.2125 20.0282 68.4093 24.3867 69.7428 26.9139L74.7582 27.0199C74.7582 27.0199 74.44 23.7813 75.3037 21.9048C76.1826 20.0282 76.7887 16.6535 75.2886 13.4301L69.7579 13.4149Z" stroke="#99C445" stroke-width="0.25" stroke-miterlimit="10"/>
<path d="M115.609 39.5956C115.609 39.5956 118.306 37.4467 122.095 39.187C124.428 40.2615 129.246 41.6992 130.322 40.0648L130.959 34.42C130.959 34.42 127.534 34.4503 124.428 32.8461C121.382 31.2723 116.155 32.3921 116.155 32.3921L115.609 39.5956Z" fill="#6F9331"/>
<path d="M123.837 33.5119C125.594 34.1323 126.079 36.0846 125.382 37.3255C124.685 38.5664 122.549 38.6875 121.321 37.9914C120.079 37.2952 119.64 35.7365 120.337 34.4955C121.034 33.2546 122.503 33.0427 123.837 33.5119Z" fill="#99C445"/>
<path d="M124.277 34.6773C124.262 34.7227 124.156 34.7076 123.974 34.6622C123.792 34.6319 123.55 34.5714 123.262 34.5714C123.126 34.5714 122.974 34.6017 122.838 34.6622C122.701 34.7227 122.58 34.8287 122.55 34.9346C122.504 35.0557 122.52 35.207 122.58 35.3129C122.641 35.4189 122.792 35.4945 123.02 35.5551C123.126 35.5853 123.262 35.6156 123.383 35.661C123.52 35.7064 123.656 35.7669 123.792 35.8577C123.853 35.9031 123.929 35.9637 123.974 36.0393C124.035 36.115 124.08 36.1907 124.095 36.2664C124.156 36.4328 124.156 36.5993 124.111 36.7506C124.065 36.902 123.989 37.0382 123.898 37.1441C123.792 37.25 123.671 37.3257 123.565 37.3711C123.323 37.4619 123.111 37.4619 122.929 37.4468C122.732 37.4165 122.58 37.3711 122.459 37.3106C122.338 37.25 122.232 37.1895 122.156 37.1441C121.989 37.0382 121.913 36.9625 121.944 36.9171C121.959 36.8717 122.065 36.8868 122.247 36.9171C122.429 36.9474 122.686 37.023 122.959 37.0079C123.095 37.0079 123.247 36.9776 123.368 36.902C123.489 36.8414 123.565 36.7506 123.58 36.6296C123.595 36.569 123.58 36.5085 123.565 36.4631C123.55 36.4328 123.535 36.4177 123.52 36.4026C123.505 36.3874 123.474 36.3572 123.444 36.342C123.323 36.2664 123.111 36.2058 122.853 36.1453C122.717 36.115 122.58 36.0696 122.444 35.9788C122.368 35.9334 122.307 35.888 122.247 35.8275C122.186 35.7669 122.126 35.6913 122.08 35.6156C121.898 35.3129 121.913 34.9649 122.05 34.6925C122.201 34.4049 122.444 34.2536 122.671 34.1779C122.898 34.1023 123.111 34.1023 123.308 34.1174C123.686 34.1779 123.929 34.3141 124.095 34.4201C124.232 34.5563 124.308 34.6471 124.277 34.6773Z" fill="#6F9331"/>
<path d="M123.063 33.7238C123.139 33.739 123.093 34.6621 122.957 35.7971C122.805 36.9321 122.624 37.8401 122.548 37.825C122.472 37.8098 122.518 36.8867 122.654 35.7517C122.79 34.6167 122.972 33.7087 123.063 33.7238Z" fill="#6F9331"/>
<path d="M123.505 33.8749C123.58 33.89 123.55 34.7224 123.414 35.7514C123.277 36.7805 123.111 37.6128 123.02 37.5977C122.929 37.5826 122.974 36.7502 123.111 35.7212C123.247 34.6921 123.429 33.8749 123.505 33.8749Z" fill="#6F9331"/>
<path d="M116.199 38.6875C116.245 38.4605 118.472 37.0833 120.654 37.9611C122.836 38.8388 127.018 41.0332 129.67 39.9587L130.245 34.9798C130.245 34.9798 126.988 34.9949 125.2 33.9658C123.412 32.9216 120.093 32.0136 116.745 33.194L116.199 38.6875Z" stroke="#99C445" stroke-width="0.25" stroke-miterlimit="10"/>
<path d="M24.832 36.8721C24.832 36.8721 28.0141 35.5252 31.1809 38.2189C33.1356 39.8836 37.3783 42.5622 38.8632 41.2759L40.9997 36.0095C40.9997 36.0095 37.6813 35.1166 35.1357 32.7406C32.6356 30.4101 27.2867 30.0771 27.2867 30.0771L24.832 36.8721Z" fill="#6F9331"/>
<path d="M34.4081 33.2098C35.9234 34.2691 35.8628 36.297 34.8627 37.2958C33.8626 38.2946 31.7716 37.8406 30.7715 36.8418C29.7715 35.843 29.7715 34.2086 30.7715 33.2098C31.7716 32.211 33.2414 32.4077 34.4081 33.2098Z" fill="#99C445"/>
<path d="M34.5127 34.4658C34.4824 34.496 34.3763 34.4506 34.2248 34.375C34.0581 34.2993 33.8308 34.1631 33.5581 34.1026C33.4217 34.0723 33.2702 34.0572 33.1187 34.0874C32.9671 34.1026 32.8308 34.1782 32.7702 34.269C32.6944 34.375 32.6641 34.5263 32.6944 34.6474C32.7247 34.7533 32.8459 34.8744 33.0429 34.9954C33.149 35.056 33.255 35.1165 33.3611 35.1922C33.4823 35.2678 33.6036 35.3586 33.7096 35.4948C33.7551 35.5554 33.8005 35.631 33.8308 35.7218C33.8611 35.7975 33.8914 35.8883 33.8914 35.9791C33.9066 36.1607 33.8611 36.3272 33.7854 36.4634C33.7096 36.5996 33.6036 36.7055 33.4672 36.7812C33.3308 36.8568 33.2096 36.8871 33.0732 36.9022C32.8156 36.9325 32.6186 36.872 32.4368 36.7963C32.255 36.7206 32.1338 36.6298 32.0125 36.539C31.9065 36.4482 31.8156 36.3726 31.7549 36.2969C31.6337 36.1607 31.5731 36.0548 31.6034 36.0245C31.6337 35.9942 31.7398 36.0245 31.8913 36.1153C32.058 36.191 32.2853 36.3272 32.558 36.3877C32.6944 36.418 32.8459 36.4331 32.9823 36.4028C33.1187 36.3726 33.2096 36.312 33.2702 36.191C33.3005 36.1304 33.3005 36.085 33.3005 36.0245C33.3005 35.9942 33.2853 35.9791 33.2702 35.9488C33.255 35.9186 33.2399 35.9034 33.2247 35.8732C33.1338 35.7672 32.9368 35.6613 32.7096 35.5251C32.5883 35.4494 32.4671 35.3738 32.3611 35.2527C32.3004 35.1922 32.255 35.1316 32.2095 35.056C32.1641 34.9803 32.1186 34.9046 32.1035 34.8138C32.0125 34.4658 32.1186 34.1328 32.3307 33.9058C32.5429 33.6637 32.8308 33.588 33.0732 33.588C33.3157 33.5729 33.5278 33.6334 33.6945 33.7091C34.043 33.8604 34.24 34.0572 34.3763 34.2085C34.4976 34.3296 34.543 34.4355 34.5127 34.4658Z" fill="#6F9331"/>
<path d="M33.5903 33.2099C33.6661 33.2402 33.363 34.1179 32.9236 35.1773C32.4842 36.2366 32.0599 37.0538 31.9842 37.0235C31.9084 36.9933 32.2114 36.1155 32.6509 35.0562C33.0903 33.9969 33.5146 33.1797 33.5903 33.2099Z" fill="#6F9331"/>
<path d="M33.9847 33.4822C34.0605 33.5125 33.8029 34.3146 33.3937 35.268C32.9846 36.2214 32.6058 36.978 32.5149 36.9326C32.4391 36.9024 32.6967 36.1003 33.1059 35.1469C33.515 34.1935 33.9089 33.452 33.9847 33.4822Z" fill="#6F9331"/>
<path d="M25.6504 36.1455C25.7565 35.9488 28.2718 35.2073 30.1355 36.6449C31.9993 38.0826 35.4237 41.3212 38.2724 40.9882L40.1665 36.3423C40.1665 36.3423 37.0299 35.4948 35.5904 34.0117C34.1509 32.5286 31.2114 30.758 27.6657 31.0002L25.6504 36.1455Z" stroke="#99C445" stroke-width="0.25" stroke-miterlimit="10"/>
<path d="M48.8634 57.0147C50.6666 57.4535 51.3333 59.3604 50.7575 60.6618C50.1817 61.9633 48.0755 62.2811 46.7724 61.706C45.4693 61.131 44.8935 59.6176 45.4693 58.3162C46.0602 57.0298 47.4846 56.6817 48.8634 57.0147Z" fill="#D39C11"/>
<path d="M48.8633 56.3791C50.6665 56.8179 51.3332 58.7247 50.7574 60.0262C50.1816 61.3277 48.0754 61.6455 46.7723 61.0704C45.4691 60.4953 44.8934 58.982 45.4692 57.6805C46.0601 56.3942 47.4844 56.0461 48.8633 56.3791Z" fill="#E0BA44"/>
<path d="M49.424 57.5141C49.4089 57.5595 49.3028 57.5595 49.121 57.5292C48.9392 57.5141 48.6816 57.4687 48.3937 57.5141C48.2573 57.5292 48.1058 57.5746 47.9846 57.6503C47.8633 57.7259 47.7573 57.8319 47.727 57.9529C47.6815 58.074 47.7118 58.2253 47.7876 58.3313C47.8633 58.4221 48.0149 58.4826 48.2422 58.528C48.3634 58.5431 48.4846 58.5583 48.621 58.5885C48.7573 58.6188 48.9089 58.6642 49.0452 58.7399C49.121 58.7853 49.1816 58.8307 49.2422 58.9063C49.3028 58.9669 49.3483 59.0425 49.3937 59.1182C49.4695 59.2847 49.4847 59.4511 49.4544 59.6025C49.424 59.7538 49.3634 59.9051 49.2725 60.0111C49.1816 60.1321 49.0755 60.2078 48.9543 60.2683C48.727 60.3743 48.5149 60.4045 48.3179 60.4045C48.1209 60.4045 47.9694 60.3591 47.833 60.3137C47.6967 60.2683 47.5906 60.2229 47.5148 60.1775C47.3482 60.0867 47.2572 60.0262 47.2724 59.9808C47.2875 59.9354 47.3936 59.9354 47.5754 59.9505C47.7573 59.9657 48.0149 60.0111 48.3028 59.9657C48.4391 59.9505 48.5907 59.9051 48.6967 59.8295C48.8179 59.7538 48.8786 59.6479 48.8786 59.5268C48.8786 59.4663 48.8634 59.4057 48.8483 59.3603C48.8331 59.3301 48.8179 59.3149 48.8028 59.2998C48.7876 59.2847 48.7573 59.2695 48.727 59.2393C48.6058 59.1636 48.3785 59.1485 48.1209 59.1031C47.9846 59.0728 47.8482 59.0425 47.6967 58.982C47.6209 58.9517 47.5451 58.9063 47.4845 58.8609C47.4088 58.8004 47.3482 58.7399 47.3027 58.6793C47.0906 58.3918 47.0754 58.0437 47.1815 57.7562C47.3027 57.4535 47.53 57.2871 47.7573 57.1811C47.9694 57.0903 48.1967 57.0601 48.3785 57.0601C48.7573 57.0752 49.0149 57.1963 49.1816 57.2871C49.3483 57.393 49.4392 57.4687 49.424 57.5141Z" fill="#D39C11"/>
<path d="M48.1064 56.6665C48.1973 56.6665 48.2277 57.6048 48.1973 58.7398C48.167 59.8899 48.061 60.8131 47.9852 60.7979C47.8943 60.7979 47.864 59.8597 47.8943 58.7247C47.9246 57.5896 48.0307 56.6665 48.1064 56.6665Z" fill="#D39C11"/>
<path d="M48.5751 56.7876C48.666 56.7876 48.6963 57.6351 48.666 58.6641C48.6357 59.7083 48.5448 60.5407 48.4538 60.5407C48.3629 60.5407 48.3326 59.6932 48.3629 58.6641C48.3932 57.6199 48.4841 56.7876 48.5751 56.7876Z" fill="#D39C11"/>
<path d="M48.8034 61.0704C48.8034 61.0855 48.7883 61.1007 48.7428 61.1158C48.6974 61.1461 48.6216 61.1612 48.5307 61.1915C48.3489 61.252 48.0458 61.2974 47.6973 61.2671C47.3336 61.2369 46.9094 61.1158 46.5003 60.8737C46.076 60.6315 45.6972 60.2229 45.485 59.7084C45.379 59.4511 45.3184 59.1787 45.3184 58.9063C45.3184 58.6339 45.3487 58.3918 45.3941 58.1648C45.485 57.6956 45.682 57.3022 45.9245 57.0298C46.1669 56.7574 46.4245 56.606 46.6063 56.5304C46.6972 56.485 46.773 56.4698 46.8185 56.4547C46.8639 56.4396 46.8942 56.4396 46.8942 56.4547C46.8942 56.4698 46.8791 56.485 46.8336 56.5152C46.7882 56.5455 46.7275 56.5758 46.6518 56.6363C46.5003 56.7422 46.273 56.9087 46.076 57.166C45.879 57.4232 45.7275 57.7865 45.6517 58.2253C45.6214 58.4372 45.5911 58.6793 45.6063 58.9063C45.6214 59.1333 45.6669 59.3755 45.7578 59.6025C45.9396 60.0565 46.2578 60.4197 46.6366 60.6467C47.0003 60.8888 47.3791 61.0099 47.7125 61.0553C48.0458 61.1158 48.3186 61.1007 48.5004 61.0855C48.5913 61.0704 48.6671 61.0704 48.7125 61.0704C48.7731 61.0553 48.8034 61.0553 48.8034 61.0704Z" fill="#FFD066"/>
<path d="M53.3328 17.5917C54.9541 16.6988 56.7421 17.6371 57.2119 18.9688C57.6664 20.3157 56.3482 21.9804 54.9996 22.4344C53.6662 22.8884 52.1964 22.1771 51.7418 20.8454C51.2872 19.5136 52.0903 18.2727 53.3328 17.5917Z" fill="#D39C11"/>
<path d="M52.9089 17.1226C54.5302 16.2297 56.3182 17.168 56.7879 18.4997C57.2425 19.8466 55.9242 21.5113 54.5757 21.9653C53.2271 22.4193 51.7724 21.708 51.3179 20.3763C50.8481 19.0445 51.6664 17.8187 52.9089 17.1226Z" fill="#E0BA44"/>
<path d="M54.0765 17.5767C54.0916 17.6221 54.0159 17.6826 53.8644 17.8037C53.728 17.9096 53.5007 18.0609 53.3189 18.2879C53.2279 18.3939 53.1522 18.5301 53.1067 18.6663C53.0613 18.8025 53.0613 18.9689 53.1219 19.0597C53.1825 19.1808 53.3037 19.2716 53.4249 19.2868C53.531 19.3019 53.6977 19.2565 53.8947 19.1203C53.9856 19.0597 54.0916 18.9841 54.2129 18.9084C54.3341 18.8327 54.4705 18.7722 54.6371 18.7268C54.7129 18.7117 54.8038 18.6965 54.8947 18.7117C54.9856 18.7117 55.0766 18.7419 55.1523 18.7722C55.319 18.8327 55.4402 18.9538 55.5311 19.09C55.622 19.2262 55.6675 19.3624 55.6827 19.5138C55.6978 19.6651 55.6675 19.8013 55.622 19.9224C55.5311 20.1645 55.3948 20.3158 55.2432 20.452C55.0917 20.5731 54.9553 20.6488 54.8341 20.7093C54.7129 20.7698 54.5917 20.8001 54.5008 20.8304C54.3189 20.8758 54.2129 20.8909 54.1826 20.8455C54.1674 20.8001 54.2432 20.7244 54.3795 20.6185C54.5159 20.5126 54.7432 20.3612 54.925 20.1494C55.0159 20.0434 55.0917 19.9072 55.122 19.771C55.1523 19.6348 55.1372 19.5289 55.0614 19.423C55.0159 19.3776 54.9705 19.3473 54.925 19.3322C54.8947 19.317 54.8796 19.317 54.8493 19.317C54.819 19.317 54.7887 19.317 54.7584 19.3322C54.622 19.3624 54.4401 19.4986 54.2129 19.65C54.0916 19.7256 53.9704 19.8013 53.8189 19.8467C53.7431 19.877 53.6522 19.8921 53.5765 19.9072C53.4855 19.9072 53.3946 19.9072 53.3189 19.8921C52.9704 19.8164 52.7128 19.5894 52.6067 19.3019C52.4855 18.9992 52.5461 18.7117 52.637 18.4998C52.7279 18.2879 52.8794 18.1215 53.0158 17.9853C53.3037 17.7431 53.5765 17.6523 53.7583 17.5918C53.9401 17.5313 54.0613 17.5313 54.0765 17.5767Z" fill="#D39C11"/>
<path d="M52.5456 17.849C52.6062 17.7885 53.2729 18.4544 54.0154 19.3018C54.773 20.1645 55.3337 20.906 55.2579 20.9665C55.1821 21.0271 54.5306 20.3763 53.773 19.5137C53.0305 18.6511 52.485 17.9096 52.5456 17.849Z" fill="#D39C11"/>
<path d="M52.9542 17.6219C53.0148 17.5614 53.6209 18.1516 54.3028 18.9386C54.9846 19.7255 55.4847 20.4065 55.424 20.4519C55.3634 20.5124 54.7573 19.9222 54.0755 19.1353C53.3936 18.3484 52.8936 17.6825 52.9542 17.6219Z" fill="#D39C11"/>
<path d="M56.0458 20.6031C56.0609 20.6031 56.0458 20.6333 56.0306 20.6787C56.0155 20.7241 55.9852 20.7998 55.9246 20.8755C55.8185 21.0419 55.6518 21.2841 55.3639 21.4959C55.076 21.7229 54.6972 21.9197 54.2275 22.0256C53.7577 22.1467 53.1971 22.1013 52.6971 21.8591C52.4395 21.7381 52.2122 21.5867 52.0304 21.39C51.8485 21.1933 51.697 20.9965 51.5758 20.7998C51.3333 20.3912 51.197 19.9675 51.197 19.6043C51.1818 19.2411 51.2727 18.9535 51.3637 18.7719C51.394 18.6811 51.4394 18.6206 51.4697 18.5752C51.5 18.5298 51.5152 18.5146 51.5303 18.5146C51.5455 18.5146 51.5303 18.5449 51.5303 18.6054C51.5152 18.6508 51.5 18.7265 51.4697 18.8173C51.4243 18.9989 51.3788 19.2713 51.4091 19.5891C51.4394 19.9069 51.5758 20.2853 51.8182 20.6485C51.9394 20.8301 52.0758 21.0268 52.2425 21.1781C52.4092 21.3446 52.6062 21.4808 52.8334 21.5867C53.288 21.7986 53.7577 21.844 54.182 21.7532C54.6063 21.6775 54.9699 21.5111 55.2427 21.3295C55.5154 21.1479 55.7124 20.9511 55.8336 20.8149C55.8942 20.7393 55.9397 20.6939 55.9852 20.6485C56.0155 20.6182 56.0306 20.6031 56.0458 20.6031Z" fill="#FFD066"/>
<path d="M103.79 49.0387C105.411 48.1458 107.199 49.0841 107.669 50.4159C108.123 51.7627 106.805 53.4274 105.457 53.8814C104.123 54.3354 102.653 53.6241 102.199 52.2924C101.729 50.9607 102.547 49.7197 103.79 49.0387Z" fill="#D39C11"/>
<path d="M103.366 48.5696C104.987 47.6767 106.775 48.615 107.245 49.9467C107.7 51.2936 106.381 52.9583 105.033 53.4123C103.684 53.8663 102.229 53.155 101.775 51.8233C101.305 50.4915 102.123 49.2657 103.366 48.5696Z" fill="#E0BA44"/>
<path d="M104.534 49.0238C104.549 49.0692 104.473 49.1297 104.322 49.2508C104.185 49.3567 103.958 49.5081 103.776 49.7351C103.685 49.841 103.61 49.9772 103.564 50.1134C103.519 50.2496 103.519 50.4161 103.579 50.5069C103.64 50.6279 103.761 50.7187 103.882 50.7339C103.988 50.749 104.155 50.7036 104.352 50.5674C104.443 50.5069 104.549 50.4312 104.67 50.3555C104.791 50.2799 104.928 50.2193 105.095 50.1739C105.17 50.1588 105.261 50.1437 105.352 50.1588C105.443 50.1588 105.534 50.1891 105.61 50.2193C105.776 50.2799 105.898 50.4009 105.989 50.5371C106.079 50.6733 106.125 50.8095 106.14 50.9609C106.155 51.1122 106.125 51.2484 106.079 51.3695C105.989 51.6116 105.852 51.7629 105.701 51.8991C105.549 52.0202 105.413 52.0959 105.292 52.1564C105.17 52.2169 105.049 52.2472 104.958 52.2775C104.776 52.3229 104.67 52.338 104.64 52.2926C104.625 52.2472 104.701 52.1715 104.837 52.0656C104.973 51.9597 105.201 51.8083 105.382 51.5965C105.473 51.4905 105.549 51.3543 105.579 51.2181C105.61 51.0819 105.595 50.976 105.519 50.8701C105.473 50.8247 105.428 50.7944 105.382 50.7793C105.352 50.7641 105.337 50.7641 105.307 50.7641C105.276 50.7641 105.246 50.7641 105.216 50.7793C105.079 50.8095 104.898 50.9457 104.67 51.0971C104.549 51.1727 104.428 51.2484 104.276 51.2938C104.201 51.3241 104.11 51.3392 104.034 51.3543C103.943 51.3543 103.852 51.3543 103.776 51.3392C103.428 51.2635 103.17 51.0365 103.064 50.749C102.943 50.4463 103.003 50.1588 103.094 49.9469C103.185 49.7351 103.337 49.5686 103.473 49.4475C103.761 49.2054 104.034 49.1146 104.216 49.054C104.398 48.9784 104.519 48.9784 104.534 49.0238Z" fill="#D39C11"/>
<path d="M103.003 49.2959C103.064 49.2354 103.73 49.9013 104.473 50.7487C105.23 51.6114 105.791 52.3529 105.715 52.4134C105.655 52.474 104.988 51.8081 104.23 50.9606C103.488 50.0829 102.927 49.3413 103.003 49.2959Z" fill="#D39C11"/>
<path d="M103.411 49.069C103.472 49.0084 104.078 49.5986 104.76 50.3856C105.442 51.1725 105.942 51.8535 105.881 51.8989C105.82 51.9443 105.214 51.3692 104.533 50.5823C103.851 49.7954 103.351 49.1144 103.411 49.069Z" fill="#D39C11"/>
<path d="M106.503 52.0501C106.518 52.0501 106.503 52.0804 106.488 52.1258C106.473 52.1712 106.442 52.2468 106.382 52.3225C106.276 52.489 106.109 52.7311 105.821 52.943C105.533 53.17 105.154 53.3667 104.685 53.4726C104.215 53.5786 103.654 53.5332 103.154 53.3062C102.897 53.1851 102.669 53.0338 102.487 52.837C102.306 52.6403 102.154 52.4436 102.033 52.2468C101.79 51.8382 101.654 51.4145 101.654 51.0513C101.639 50.6881 101.73 50.4005 101.821 50.2189C101.851 50.1281 101.896 50.0676 101.927 50.0222C101.957 49.9768 101.972 49.9617 101.987 49.9617C102.003 49.9617 101.987 49.9919 101.987 50.0525C101.972 50.0979 101.957 50.1735 101.927 50.2643C101.881 50.4459 101.836 50.7183 101.866 51.0361C101.896 51.3539 102.033 51.7323 102.275 52.0955C102.396 52.2771 102.533 52.4738 102.7 52.6252C102.866 52.7916 103.063 52.9278 103.29 53.0338C103.73 53.2456 104.215 53.291 104.639 53.2002C105.063 53.1246 105.427 52.9581 105.7 52.7765C105.972 52.5949 106.169 52.3982 106.291 52.262C106.351 52.1863 106.397 52.1409 106.442 52.0955C106.472 52.0652 106.488 52.035 106.503 52.0501Z" fill="#FFD066"/>
<path d="M134.594 59.3299C135.731 60.7978 135.079 62.7046 133.836 63.3705C132.579 64.0364 130.73 62.9922 130.064 61.7361C129.397 60.48 129.882 58.9364 131.124 58.2705C132.367 57.6047 133.715 58.2251 134.594 59.3299Z" fill="#D39C11"/>
<path d="M134.989 58.8455C136.125 60.3134 135.474 62.2202 134.231 62.8861C132.973 63.552 131.125 62.5078 130.458 61.2517C129.791 59.9956 130.276 58.452 131.519 57.7861C132.761 57.1051 134.11 57.7256 134.989 58.8455Z" fill="#E0BA44"/>
<path d="M134.715 60.0563C134.685 60.0714 134.594 60.0109 134.458 59.8898C134.321 59.7688 134.139 59.572 133.897 59.4358C133.776 59.3602 133.639 59.3148 133.488 59.2845C133.336 59.2694 133.185 59.2845 133.094 59.3602C132.988 59.4358 132.912 59.572 132.912 59.6931C132.912 59.8142 132.988 59.9504 133.154 60.132C133.23 60.2228 133.321 60.3136 133.412 60.4195C133.503 60.5254 133.594 60.6465 133.654 60.813C133.685 60.8886 133.7 60.9794 133.715 61.0551C133.715 61.1459 133.715 61.2367 133.7 61.3275C133.654 61.494 133.564 61.6453 133.457 61.7513C133.336 61.8572 133.2 61.9329 133.063 61.9631C132.912 61.9934 132.776 61.9934 132.654 61.9631C132.412 61.9177 132.23 61.7967 132.079 61.6756C131.927 61.5545 131.836 61.4183 131.76 61.3124C131.685 61.1913 131.624 61.0854 131.594 61.0097C131.518 60.8281 131.488 60.7222 131.533 60.707C131.563 60.6768 131.654 60.7524 131.791 60.8735C131.927 60.9946 132.109 61.1913 132.351 61.3427C132.473 61.4183 132.609 61.4637 132.745 61.4789C132.882 61.494 132.988 61.4486 133.079 61.3578C133.124 61.3124 133.139 61.267 133.154 61.2065C133.154 61.1762 133.154 61.1611 133.154 61.1308C133.154 61.1005 133.139 61.0702 133.124 61.04C133.079 60.9038 132.912 60.7524 132.73 60.5557C132.639 60.4498 132.548 60.3438 132.473 60.1925C132.442 60.1168 132.397 60.0412 132.382 59.9655C132.366 59.8747 132.351 59.7839 132.351 59.7082C132.366 59.3602 132.563 59.0726 132.821 58.9062C133.094 58.7397 133.397 58.7548 133.624 58.8154C133.851 58.8759 134.033 58.9818 134.185 59.1029C134.473 59.345 134.609 59.6023 134.685 59.7688C134.745 59.9352 134.761 60.0412 134.715 60.0563Z" fill="#D39C11"/>
<path d="M134.215 58.5881C134.275 58.6487 133.73 59.3902 133.002 60.2679C132.26 61.1457 131.624 61.8115 131.548 61.751C131.487 61.6905 132.033 60.9489 132.76 60.0712C133.502 59.2086 134.154 58.5427 134.215 58.5881Z" fill="#D39C11"/>
<path d="M134.502 58.9666C134.562 59.0271 134.078 59.7081 133.411 60.5102C132.744 61.3122 132.153 61.9024 132.077 61.857C132.017 61.7965 132.502 61.1155 133.168 60.3134C133.85 59.5114 134.441 58.9212 134.502 58.9666Z" fill="#D39C11"/>
<path d="M132.034 62.4775C132.034 62.4926 132.003 62.4926 131.958 62.4775C131.912 62.4623 131.837 62.4472 131.746 62.4018C131.564 62.3261 131.306 62.1899 131.049 61.9478C130.791 61.7057 130.518 61.3576 130.352 60.9036C130.17 60.4647 130.124 59.8897 130.291 59.36C130.367 59.0876 130.488 58.8455 130.655 58.6336C130.821 58.4217 130.988 58.2553 131.17 58.0888C131.534 57.7861 131.943 57.5894 132.291 57.5288C132.655 57.4683 132.943 57.4986 133.14 57.5591C133.231 57.5742 133.306 57.6196 133.352 57.6348C133.397 57.665 133.428 57.6802 133.412 57.6802C133.412 57.6953 133.382 57.6953 133.337 57.6953C133.291 57.6953 133.215 57.6802 133.125 57.6802C132.943 57.665 132.67 57.6499 132.352 57.7407C132.034 57.8164 131.685 58.0131 131.367 58.3007C131.2 58.452 131.049 58.6185 130.912 58.8001C130.776 58.9817 130.67 59.2087 130.609 59.4357C130.473 59.9048 130.503 60.3891 130.655 60.7977C130.791 61.2063 131.018 61.5392 131.246 61.7813C131.473 62.0235 131.685 62.1899 131.852 62.2807C131.927 62.3261 131.988 62.3715 132.034 62.4018C132.018 62.4472 132.034 62.4623 132.034 62.4775Z" fill="#FFD066"/>
<path d="M13.8754 50.9154C15.0118 52.3833 14.3602 54.2902 13.1177 54.956C11.8601 55.6219 10.0115 54.5777 9.34476 53.3216C8.67805 52.0655 9.16293 50.5219 10.4054 49.8561C11.6479 49.1902 12.9965 49.7955 13.8754 50.9154Z" fill="#D39C11"/>
<path d="M14.2699 50.416C15.4063 51.884 14.7548 53.7908 13.5123 54.4566C12.2546 55.1225 10.406 54.0783 9.73929 52.8222C9.07258 51.5661 9.55746 50.0225 10.8 49.3567C12.0425 48.6908 13.391 49.2961 14.2699 50.416Z" fill="#E0BA44"/>
<path d="M13.9963 51.642C13.966 51.6723 13.8751 51.5966 13.7388 51.4755C13.6024 51.3545 13.4206 51.1577 13.1781 51.0215C13.0569 50.9459 12.9205 50.9005 12.769 50.8702C12.6175 50.8551 12.4659 50.8702 12.375 50.9459C12.269 51.0215 12.1932 51.1577 12.1932 51.2788C12.1932 51.3999 12.269 51.5361 12.4356 51.7177C12.5114 51.8085 12.6023 51.8993 12.6932 52.0052C12.7841 52.1111 12.8751 52.2322 12.9357 52.3987C12.966 52.4743 12.9811 52.5651 12.9963 52.6408C12.9963 52.7316 12.9963 52.8224 12.9811 52.8981C12.9357 53.0645 12.8448 53.2159 12.7387 53.3218C12.6175 53.4277 12.4811 53.5034 12.3447 53.5337C12.1932 53.5639 12.0568 53.5639 11.9356 53.5337C11.6932 53.4883 11.4962 53.3672 11.3598 53.2461C11.2083 53.1251 11.1174 52.9889 11.0416 52.8829C10.9659 52.7619 10.9052 52.6559 10.8749 52.5803C10.7992 52.4138 10.7689 52.2927 10.8143 52.2776C10.8446 52.2473 10.9355 52.323 11.0719 52.4441C11.2083 52.5651 11.3901 52.7619 11.6326 52.9132C11.7538 52.9889 11.8902 53.0343 12.0265 53.0494C12.1629 53.0645 12.269 53.0191 12.3599 52.9283C12.4053 52.8829 12.4205 52.8375 12.4356 52.777C12.4356 52.7467 12.4356 52.7316 12.4356 52.7013C12.4356 52.6711 12.4205 52.6408 12.4053 52.6105C12.3447 52.4743 12.1932 52.323 12.0114 52.1263C11.9205 52.0203 11.8295 51.9144 11.7538 51.7631C11.7083 51.6874 11.678 51.6117 11.6629 51.5361C11.6477 51.4453 11.6326 51.3545 11.6326 51.2788C11.6326 50.9005 11.8295 50.6129 12.0871 50.4616C12.3599 50.2951 12.6629 50.3103 12.8902 50.3708C13.1175 50.4313 13.2993 50.5373 13.4509 50.6583C13.7388 50.9005 13.8751 51.1577 13.9509 51.3242C14.0267 51.5058 14.0418 51.6117 13.9963 51.642Z" fill="#D39C11"/>
<path d="M13.4957 50.1737C13.5563 50.2343 13.0108 50.9758 12.2835 51.8536C11.541 52.7313 10.9046 53.3972 10.8288 53.3366C10.7682 53.2761 11.3137 52.5346 12.041 51.6568C12.7835 50.7791 13.435 50.1132 13.4957 50.1737Z" fill="#D39C11"/>
<path d="M13.783 50.5523C13.8436 50.6128 13.3588 51.2938 12.692 52.0959C12.0253 52.898 11.4344 53.4882 11.3586 53.4428C11.298 53.3822 11.7829 52.7012 12.4496 51.8991C13.1315 51.0971 13.7224 50.4917 13.783 50.5523Z" fill="#D39C11"/>
<path d="M11.3148 54.048C11.3148 54.0632 11.2845 54.0632 11.239 54.048C11.1936 54.0329 11.1178 54.0178 11.0269 53.9724C10.8451 53.8967 10.5875 53.7605 10.3299 53.5184C10.0723 53.2762 9.79954 52.9282 9.63286 52.4742C9.45103 52.0353 9.40557 51.4602 9.57225 50.9305C9.64801 50.6581 9.76923 50.416 9.93591 50.2041C10.1026 49.9923 10.2693 49.8258 10.4511 49.6593C10.8148 49.3567 11.2239 49.1599 11.5724 49.0994C11.936 49.0389 12.2239 49.0691 12.4209 49.1297C12.5118 49.1448 12.5876 49.1902 12.6331 49.2053C12.6785 49.2356 12.7088 49.2507 12.6937 49.2507C12.6937 49.2659 12.6634 49.2659 12.6179 49.2659C12.5724 49.2659 12.4967 49.2507 12.4058 49.2507C12.2239 49.2356 11.9512 49.2356 11.633 49.3113C11.3148 49.3869 10.9663 49.5837 10.6481 49.8712C10.4814 50.0225 10.3299 50.189 10.1935 50.3706C10.0571 50.5522 9.95106 50.7792 9.89045 51.0062C9.75408 51.4754 9.78439 51.9596 9.93591 52.3682C10.0723 52.7768 10.2996 53.1098 10.5117 53.3519C10.739 53.594 10.9663 53.7454 11.1178 53.8513C11.1936 53.8967 11.2542 53.9421 11.2996 53.9724C11.2996 54.0178 11.3148 54.048 11.3148 54.048Z" fill="#FFD066"/>
<path d="M96.0355 19.8902C97.1719 21.3581 96.5204 23.2649 95.2779 23.9308C94.0202 24.5967 92.1716 23.5525 91.5049 22.2964C90.8382 21.0403 91.3231 19.4967 92.5656 18.8308C93.8081 18.1498 95.1567 18.7703 96.0355 19.8902Z" fill="#D39C11"/>
<path d="M96.43 19.3909C97.5665 20.8588 96.9149 22.7656 95.6724 23.4315C94.4148 24.0974 92.5662 23.0532 91.8994 21.7971C91.2327 20.541 91.7176 18.9974 92.9601 18.3316C94.2026 17.6505 95.5512 18.271 96.43 19.3909Z" fill="#E0BA44"/>
<path d="M96.158 20.6017C96.1277 20.632 96.0368 20.5563 95.9004 20.4352C95.764 20.3142 95.5822 20.1174 95.3398 19.9812C95.2185 19.9056 95.0822 19.845 94.9306 19.8299C94.7943 19.8148 94.6276 19.8299 94.5367 19.9056C94.4306 19.9812 94.3548 20.1174 94.3548 20.2385C94.3548 20.3596 94.4306 20.4958 94.5973 20.6774C94.6882 20.7531 94.7791 20.8439 94.87 20.9498C94.9609 21.0557 95.0519 21.1768 95.1125 21.3433C95.1428 21.4189 95.1579 21.5097 95.1731 21.5854C95.1882 21.6762 95.1731 21.767 95.1579 21.8578C95.1125 22.0243 95.0216 22.1756 94.9155 22.2815C94.7791 22.3875 94.6427 22.4631 94.4912 22.4934C94.3397 22.5237 94.2033 22.5237 94.0821 22.4934C93.8397 22.448 93.6578 22.3269 93.5063 22.2059C93.3548 22.0848 93.2639 21.9486 93.1881 21.8427C93.1123 21.7216 93.0517 21.6157 93.0214 21.54C92.9457 21.3735 92.9154 21.2676 92.9608 21.2373C92.9911 21.2071 93.082 21.2827 93.2184 21.4038C93.3548 21.5249 93.5366 21.7216 93.779 21.8729C93.9003 21.9486 94.0366 21.994 94.173 22.0091C94.3094 22.0243 94.4155 21.9789 94.5064 21.8881C94.5518 21.8427 94.567 21.7821 94.5821 21.7367C94.5821 21.7065 94.5821 21.6913 94.5821 21.6611C94.5821 21.6308 94.567 21.6005 94.5518 21.5703C94.5064 21.4341 94.3397 21.2827 94.1579 21.086C94.0669 20.9801 93.976 20.8741 93.9003 20.7228C93.87 20.6471 93.8397 20.5714 93.8093 20.4958C93.7942 20.405 93.779 20.3142 93.779 20.2385C93.7942 19.8904 93.9912 19.6029 94.2488 19.4364C94.5215 19.27 94.8246 19.2851 95.0519 19.3456C95.2791 19.4062 95.461 19.5121 95.6125 19.6332C95.9004 19.8753 96.0368 20.1326 96.1125 20.299C96.1883 20.4806 96.2034 20.5866 96.158 20.6017Z" fill="#D39C11"/>
<path d="M95.6558 19.1335C95.7164 19.1941 95.1709 19.9356 94.4436 20.8133C93.7011 21.6911 93.0647 22.357 92.989 22.2964C92.9284 22.2359 93.4739 21.4944 94.2012 20.6166C94.9436 19.754 95.5952 19.0881 95.6558 19.1335Z" fill="#D39C11"/>
<path d="M95.9432 19.5119C96.0038 19.5725 95.5189 20.2535 94.8522 21.0555C94.1855 21.8576 93.5945 22.4478 93.5188 22.4024C93.4582 22.3419 93.9431 21.6609 94.6098 20.8588C95.2916 20.0719 95.8826 19.4665 95.9432 19.5119Z" fill="#D39C11"/>
<path d="M93.4739 23.0229C93.4739 23.038 93.4436 23.038 93.3981 23.0229C93.3527 23.0078 93.2769 22.9926 93.186 22.9472C93.0042 22.8716 92.7466 22.7354 92.489 22.4932C92.2314 22.2511 91.9587 21.903 91.792 21.449C91.6101 21.0101 91.5647 20.4351 91.7162 19.9054C91.792 19.633 91.9132 19.3909 92.0799 19.179C92.2465 18.9671 92.4132 18.8007 92.5951 18.6342C92.9587 18.3315 93.3678 18.1348 93.7163 18.0743C94.08 18.0137 94.3679 18.044 94.5649 18.1045C94.6558 18.1197 94.7316 18.1651 94.777 18.1802C94.8225 18.1953 94.8528 18.2256 94.8376 18.2256C94.8376 18.2407 94.8073 18.2407 94.7619 18.2407C94.7164 18.2407 94.6406 18.2256 94.5497 18.2256C94.3679 18.2105 94.0952 18.2105 93.777 18.2861C93.4588 18.3618 93.1102 18.5585 92.792 18.8461C92.6254 18.9974 92.4587 19.1639 92.3375 19.3455C92.2011 19.5271 92.095 19.7541 92.0344 19.9811C91.898 20.4502 91.9283 20.9345 92.0799 21.3431C92.2162 21.7517 92.4435 22.0846 92.6557 22.3267C92.883 22.5689 93.0951 22.7202 93.2618 22.8262C93.3375 22.8716 93.3981 22.917 93.4436 22.9472C93.4588 22.9926 93.4739 23.0229 93.4739 23.0229Z" fill="#FFD066"/>
</g>
<defs>
<clipPath id="clip0_1_1080">
<rect width="150" height="218" fill="white"/>
</clipPath>
</defs>
</svg>
