<svg width="188" height="239" viewBox="0 0 188 239" fill="none" xmlns="http://www.w3.org/2000/svg">
<g clip-path="url(#clip0_115_7)">
<path d="M96.3722 238.084C143.228 238.084 181.212 235.086 181.212 231.388C181.212 227.69 143.228 224.692 96.3722 224.692C49.5167 224.692 11.5328 227.69 11.5328 231.388C11.5328 235.086 49.5167 238.084 96.3722 238.084Z" fill="#CDD4E2"/>
<path d="M95.3249 108.499C115.255 88.592 115.255 56.3162 95.3249 36.4091C75.3948 16.5019 43.0817 16.5019 23.1516 36.4091C3.22154 56.3162 3.22154 88.592 23.1516 108.499C43.0817 128.406 75.3948 128.406 95.3249 108.499Z" fill="#F7EFDF"/>
<path d="M140.378 122.186C163.155 122.186 181.62 103.743 181.62 80.9918C181.62 58.2409 163.155 39.7976 140.378 39.7976C117.601 39.7976 99.1363 58.2409 99.1363 80.9918C99.1363 103.743 117.601 122.186 140.378 122.186Z" fill="#F7EFDF"/>
<path d="M98.4459 46.5239L100.212 40.049H103.601L102.568 43.7068H108.447L102.559 53.1765L103.735 46.5239H98.4459Z" fill="#BB8A5C"/>
<path d="M112.265 49.1286L114.86 39.6199H119.837L118.314 44.9896H126.957L118.305 58.8973L120.036 49.1286H112.265Z" fill="#BB8A5C"/>
<path d="M87.6509 41.7219H135.505C135.766 41.0198 135.904 40.257 135.904 39.4682C135.904 35.8277 132.95 32.8806 129.309 32.8806C128.441 32.8806 127.613 33.0453 126.853 33.353C126.472 27.7666 121.807 23.3459 116.114 23.3459C110.968 23.3459 106.664 26.9561 105.606 31.7755C104.824 31.4808 103.983 31.3204 103.098 31.3204C99.4485 31.3204 96.4373 34.0638 96.0294 37.6046C95.153 36.9242 94.0509 36.5211 92.8533 36.5211C89.9853 36.5168 87.6509 38.8485 87.6509 41.7219Z" fill="#0061BB"/>
<path d="M65.9556 226.53L67.5567 212.323L76.4862 213.068L73.7831 226.304L65.9556 226.53Z" fill="#EDA38F"/>
<path d="M121.429 103.038C121.403 103.047 115.889 104.061 111.997 104.096L112.261 107.624L80.7518 103.801L78.5996 103.541L65.1706 101.907C65.1706 101.907 71.7788 88.3289 91.8421 86.578C91.9636 86.565 98.5978 87.3278 102 86.8034C110.929 85.4165 117.312 90.5349 118.848 87.5012C120.818 83.6136 112.63 79.7521 112.63 79.7521L115.58 74.0139C115.58 74.0139 126.558 76.3239 130.789 82.8508C133.674 87.3018 136.62 98.7131 121.429 103.038Z" fill="#0061BB"/>
<path d="M94.81 64.3492C94.81 64.3492 89.2778 63.4997 90.2931 72.7874C91.009 79.3533 93.4823 80.8138 93.4823 80.8138L94.1504 75.2707L95.0703 71.5435L96.923 66.3861L94.81 64.3492Z" fill="#302824"/>
<path d="M101.913 87.7395L101.201 81.2733L94.1764 75.1234L91.8464 86.7947C91.8464 86.7991 99.5871 93.7334 101.913 87.7395Z" fill="#EDA38F"/>
<path d="M101.7 85.8154C97.2177 85.7157 95.8726 81.4641 95.8726 81.4641L101.335 82.4696L101.7 85.8154Z" fill="#302824"/>
<path d="M108.456 72.6011C107.141 78.0185 105.883 85.7416 100.377 84.3894C94.35 82.9116 93.5994 76.8787 93.8814 72.4624C94.0246 70.2478 95.9337 66.6983 101.149 67.1403C107.671 67.6994 108.99 70.4125 108.456 72.6011Z" fill="#EDA38F"/>
<path d="M95.1006 74.6596C95.3133 73.4982 94.1895 72.4667 93.0917 72.9001C92.7533 73.0344 92.4409 73.2815 92.2109 73.7105C91.2824 75.4484 92.4626 77.1777 94.6407 77.182L95.1006 74.6596Z" fill="#EDA38F"/>
<path d="M94.8096 64.3493C100.75 57.7183 110.226 63.7902 110.078 68.8696C109.987 72.0767 108.252 73.5199 108.252 73.5199C108.846 71.652 107.523 70.9109 107.523 70.9109C105.553 75.6825 97.4173 73.2165 97.4173 73.2165C96.2631 74.6294 96.3369 75.8862 96.3369 75.8862C94.4711 75.2622 95.0005 73.806 93.9244 73.2209C93.2085 72.8308 92.4362 73.2339 92.2062 73.7019C91.7549 74.6121 94.8096 64.3493 94.8096 64.3493Z" fill="#302824"/>
<path d="M101.566 74.7073C102.742 74.8243 103.801 74.6812 104.733 74.2695C107.011 73.264 107.68 71.0581 107.706 70.9671L107.345 70.863C107.341 70.8847 106.695 72.9997 104.573 73.9315C102.733 74.7419 100.351 74.4472 97.5004 73.0517L97.3355 73.3854C98.8802 74.1395 100.29 74.5816 101.566 74.7073Z" fill="#302824"/>
<path d="M99.691 227.024L100.307 212.718H109.254L107.497 226.764L99.691 227.024Z" fill="#EDA38F"/>
<path d="M114.266 219.873C114.266 219.873 120.514 186.9 119.946 174.939C119.399 163.363 111.455 127.01 111.455 127.01L84.7613 126.242L97.3442 179.814L95.1053 219.258L114.266 219.873Z" fill="#BB8A5C"/>
<path d="M97.9639 216.198L98.3241 219.361L95.1046 219.262L97.3435 179.81L94.2672 166.717L97.7426 162.418L100.845 177.682L97.9639 216.198Z" fill="#9B6C49"/>
<path d="M106.325 130.949L104.867 136.254L104.537 137.446L82.1268 218.872L62.1763 218.235L78.0309 140.462L78.916 136.132L80.2133 129.766L106.325 130.949Z" fill="#BB8A5C"/>
<path d="M115.814 216.54C115.814 216.54 101.001 219.227 93.6815 215.834L93.5513 220.055C100.45 222.105 107.371 222.053 115.684 220.761L115.814 216.54Z" fill="#BB8A5C"/>
<path d="M81.6938 119.494C81.7024 119.399 82.6396 109.804 88.0373 102.887L87.6425 102.549C82.1407 109.591 81.1948 119.343 81.1861 119.442L81.6938 119.494Z" fill="white"/>
<path d="M111.454 127.014L110.005 134.238C109.949 134.277 109.892 134.316 109.836 134.355C108.083 135.591 106.308 136.609 104.538 137.446C91.287 143.721 78.396 139.847 78.396 139.847L78.0315 140.462L78.9166 136.137C77.923 135.859 76.9337 135.552 75.9488 135.218L76.1397 132.943L76.8556 124.379L111.454 127.014Z" fill="#9B6C49"/>
<path d="M114.106 132.071C112.704 132.929 111.277 133.688 109.836 134.351C108.2 135.105 106.543 135.734 104.868 136.249C96.3766 138.854 87.4383 138.516 78.9166 136.132C77.923 135.855 76.9337 135.547 75.9488 135.213L76.1397 132.938L76.8556 124.374L77.923 111.645L78.5999 103.541L79.6846 91.4536C79.6846 91.4536 91.7426 86.5823 91.838 86.5823C98.6502 91.7527 102 86.8033 102 86.8033L111.78 101.274L114.106 132.071Z" fill="#0061BB"/>
<path d="M80.6083 110.211L76.7684 133.06L76.1392 132.938L77.9225 111.65L80.6083 110.211Z" fill="#064B8C"/>
<path d="M76.092 134.941C76.4391 135.357 77.4978 136.735 78.0055 136.93C78.4741 137.112 81.1252 137.779 80.9342 138.33C80.7347 138.906 79.0034 138.07 78.921 138.551C78.8689 138.846 82.2359 140.544 81.75 141.095C81.4289 141.455 79.5328 140.15 79.4373 140.397C79.3505 140.627 82.0233 141.749 81.5764 142.308C81.1078 142.893 78.7648 140.692 78.5652 140.974C78.4654 141.112 81.481 142.954 81.1035 143.401C80.6002 143.999 78.4394 141.823 78.1877 142.079C78.0619 142.204 78.9644 142.833 79.4503 143.279C79.7193 143.526 79.5675 143.782 79.3245 143.721C76.8296 143.088 74.3087 139.379 73.9355 139.149C73.3801 138.811 72.5774 138.486 72.0611 138.139L76.092 134.941Z" fill="#EDA38F"/>
<path d="M115.268 74.625L113.203 78.6425C112.63 78.2438 111.918 77.7844 111.567 77.7497C111.064 77.6977 108.33 77.7671 108.369 77.1863C108.404 76.5752 110.296 76.922 110.252 76.4409C110.222 76.1419 106.525 75.4007 106.846 74.742C107.054 74.3086 109.237 75.0627 109.263 74.7983C109.285 74.5513 106.408 74.1829 106.69 73.5285C106.985 72.8394 109.831 74.3389 109.944 74.0095C110.005 73.8492 106.608 72.874 106.855 72.3453C107.185 71.6345 109.84 73.1558 110.018 72.8437C110.105 72.692 109.068 72.3236 108.482 72.0289C108.152 71.8599 108.235 71.5739 108.482 71.5695C111.059 71.5132 114.478 74.4169 114.899 74.5383C115.016 74.5643 115.138 74.599 115.268 74.625Z" fill="#EDA38F"/>
<path d="M78.4952 135.881C78.4952 135.881 67.3224 119.139 80.4694 110.042L88.683 89.3256L88.6874 89.1869C79.9401 88.8316 70.351 93.8459 64.9924 101.153C56.0325 113.379 57.8505 132.158 72.9023 141.459L78.4952 135.881Z" fill="#0061BB"/>
<path d="M112.074 100.377C112.074 100.377 123 102.93 131.274 96.7107L131.205 96.9231C129.495 99.3977 126.454 101.604 121.429 103.038C121.403 103.047 115.888 104.065 112.001 104.096L112.074 100.377Z" fill="#064B8C"/>
<path d="M111.998 98.2419L111.556 98.2722L113.88 132.082L114.322 132.052L111.998 98.2419Z" fill="#302824"/>
<path d="M82.3442 218.932L81.9146 218.811L100.529 150.833L100.954 150.95L82.3442 218.932Z" fill="#302824"/>
<path d="M83.5674 216.224C83.5674 216.224 68.7542 218.911 61.4344 215.517L61.3043 219.739C68.2032 221.789 75.1238 221.737 83.4372 220.445L83.5674 216.224Z" fill="#BB8A5C"/>
<path d="M71.0195 217.463C67.0494 217.463 64.2291 217.052 61.3394 215.712L61.5259 215.309C68.7025 218.638 83.3725 216.024 83.5287 215.998L83.6025 216.436C83.2163 216.505 77.0811 217.463 71.0195 217.463Z" fill="#302824"/>
<path d="M103.696 217.784C99.726 217.784 96.4718 217.372 93.5864 216.033L93.7729 215.63C100.95 218.958 115.62 216.345 115.776 216.319L115.85 216.757C115.463 216.826 109.762 217.784 103.696 217.784Z" fill="#302824"/>
<path d="M64.932 232.342H85.4292C86.1408 232.342 86.7135 231.739 86.6614 231.029C86.6614 231.02 86.6614 231.011 86.6614 231.003C86.6484 230.847 86.6267 230.686 86.605 230.526C86.5356 229.98 86.3881 229.438 86.1321 229.096C85.1602 227.808 83.2727 227.219 79.91 225.888C77.8013 225.052 76.0093 223.938 75.2196 223.418C74.9636 223.249 74.6339 223.288 74.4082 223.505C70.3557 227.462 67.8651 226.621 67.1232 224.987C66.5548 223.743 65.7477 224.003 65.5264 224.367C64.8452 225.507 64.4677 228.853 64.3159 230.53C64.2985 230.712 64.2811 230.877 64.2725 231.007C64.2508 231.319 64.2334 231.51 64.2334 231.51C64.1553 231.939 64.4894 232.342 64.932 232.342Z" fill="#0061BB"/>
<path d="M78.7426 228.038C80.1961 227.332 79.9835 225.832 79.9792 225.815L79.6277 225.867C79.6364 225.919 79.8013 227.128 78.5864 227.713L78.7426 228.038Z" fill="#302824"/>
<path d="M80.5432 228.641C81.884 227.886 81.7408 226.582 81.7321 226.526L81.3807 226.569C81.385 226.617 81.4978 227.696 80.3697 228.333L80.5432 228.641Z" fill="#302824"/>
<path d="M68.9756 227.748C70.3467 227.748 71.5877 227.124 71.6094 227.111L71.4488 226.794C71.4184 226.812 68.3074 228.372 66.7107 226.383L66.433 226.604C67.1316 227.483 68.0818 227.748 68.9756 227.748Z" fill="#302824"/>
<path d="M98.3033 232.341H118.8C119.512 232.341 120.085 231.739 120.033 231.028C120.033 231.02 120.033 231.011 120.033 231.002C120.02 230.846 119.998 230.686 119.976 230.526C119.907 229.979 119.759 229.438 119.503 229.095C118.531 227.808 116.644 227.219 113.281 225.888C111.173 225.052 109.381 223.938 108.591 223.418C108.335 223.249 108.005 223.288 107.78 223.505C103.727 227.461 101.236 226.621 100.494 224.987C99.926 223.743 99.119 224.003 98.8977 224.367C98.2165 225.507 97.839 228.853 97.6871 230.53C97.6698 230.712 97.6524 230.877 97.6437 231.007C97.622 231.319 97.6047 231.509 97.6047 231.509C97.5266 231.938 97.8607 232.341 98.3033 232.341Z" fill="#0061BB"/>
<path d="M112.114 228.038C113.567 227.332 113.355 225.832 113.35 225.815L112.999 225.867C113.008 225.919 113.173 227.128 111.958 227.713L112.114 228.038Z" fill="#302824"/>
<path d="M113.915 228.64C115.255 227.886 115.112 226.582 115.103 226.525L114.752 226.569C114.756 226.616 114.869 227.696 113.741 228.333L113.915 228.64Z" fill="#302824"/>
<path d="M102.347 227.748C103.718 227.748 104.959 227.123 104.981 227.11L104.82 226.794C104.79 226.811 101.679 228.372 100.082 226.382L99.8043 226.603C100.503 227.483 101.449 227.748 102.347 227.748Z" fill="#302824"/>
<path d="M138.182 82.4998L146.192 83.8693C148.327 86.1403 151.134 87.8262 154.401 88.5933C163.266 90.678 172.139 85.1912 174.226 76.3369C176.313 67.4827 170.82 58.6198 161.955 56.5351C153.091 54.4505 144.218 59.9373 142.131 68.7915C141.567 71.1925 141.553 73.5979 142.022 75.8645L138.182 82.4998Z" fill="#F6CD93"/>
<path d="M159.274 87.9605C157.972 87.9605 156.662 87.8088 155.364 87.5055C152.167 86.7514 149.29 85.1131 147.038 82.7598L138.555 81.3079L142.63 74.2739C142.17 71.9206 142.217 69.5369 142.773 67.1749C143.81 62.7803 146.496 59.0531 150.34 56.6781C154.184 54.3031 158.723 53.562 163.122 54.5978C167.522 55.6336 171.254 58.3163 173.631 62.1562C176.009 65.9961 176.751 70.5294 175.714 74.924C174.677 79.3186 171.991 83.0458 168.147 85.4208C165.439 87.0981 162.385 87.9605 159.274 87.9605ZM139.935 80.6665L147.476 81.9537L147.576 82.0577C149.724 84.3417 152.488 85.9322 155.568 86.656C159.742 87.6398 164.047 86.9377 167.696 84.6841C171.34 82.4304 173.892 78.8939 174.872 74.7247C175.853 70.5554 175.154 66.2561 172.898 62.6113C170.642 58.9708 167.101 56.4224 162.927 55.4429C158.753 54.4635 154.449 55.1612 150.8 57.4149C147.155 59.6685 144.604 63.205 143.623 67.3743C143.085 69.6626 143.046 71.9813 143.519 74.2609L143.554 74.4213L139.935 80.6665Z" fill="white"/>
<path d="M154.293 76.2025C154.097 75.3574 154.028 74.664 154.084 74.1309C154.141 73.5978 154.366 72.9651 154.766 72.2326L155.807 70.4514C156.236 69.6279 156.354 68.8348 156.163 68.0591C155.976 67.3136 155.638 66.7805 155.143 66.4555C154.648 66.1304 154.028 66.0611 153.282 66.2475C152.557 66.4295 152.019 66.7632 151.676 67.2573C151.329 67.7513 151.238 68.3191 151.399 68.9648L149.424 69.4546C149.151 68.3018 149.333 67.2703 149.962 66.3645C150.592 65.4587 151.555 64.8433 152.852 64.5226C154.197 64.1888 155.334 64.2885 156.263 64.8216C157.191 65.3547 157.812 66.2475 158.124 67.5043C158.432 68.7438 158.163 70.109 157.308 71.6042L156.432 73.0431C156.054 73.7452 156.002 74.638 156.271 75.7128L154.293 76.2025ZM155.052 79.609C154.974 79.2883 155.004 78.9936 155.143 78.7249C155.282 78.4562 155.547 78.2785 155.928 78.1832C156.31 78.0878 156.631 78.1268 156.883 78.2958C157.135 78.4649 157.304 78.7119 157.382 79.0326C157.46 79.3533 157.43 79.648 157.282 79.9081C157.135 80.1681 156.87 80.3458 156.488 80.4411C156.106 80.5365 155.79 80.5018 155.542 80.3415C155.295 80.1724 155.13 79.9297 155.052 79.609Z" fill="#0061BB"/>
<path d="M161.265 75.7475C161.534 74.9197 161.833 74.2956 162.159 73.8666C162.484 73.4375 163.005 73.0171 163.725 72.5967L165.539 71.6086C166.333 71.1275 166.845 70.5078 167.083 69.745C167.309 69.0126 167.296 68.3798 167.04 67.8467C166.784 67.3137 166.289 66.9323 165.552 66.7069C164.836 66.4859 164.207 66.4989 163.656 66.7416C163.105 66.9843 162.732 67.4263 162.532 68.0591L160.588 67.461C160.953 66.3342 161.638 65.5454 162.649 65.0947C163.66 64.6439 164.801 64.6179 166.073 65.008C167.396 65.4154 168.316 66.0871 168.836 67.0276C169.357 67.9637 169.422 69.0516 169.04 70.2867C168.663 71.5089 167.721 72.5361 166.22 73.3725L164.727 74.1483C164.042 74.5557 163.534 75.2881 163.204 76.3499L161.265 75.7475ZM160.15 79.0543C160.25 78.7379 160.428 78.4996 160.688 78.3435C160.948 78.1875 161.265 78.1702 161.642 78.2829C162.02 78.3999 162.276 78.5949 162.402 78.8723C162.532 79.1497 162.545 79.4444 162.449 79.7607C162.35 80.0771 162.172 80.3112 161.911 80.4585C161.651 80.6059 161.33 80.6232 160.953 80.5062C160.575 80.3892 160.323 80.1985 160.193 79.9298C160.067 79.6611 160.054 79.3707 160.15 79.0543Z" fill="#0061BB"/>
<path d="M58.8227 91.5967L50.7522 92.5675C48.5047 94.7302 45.6193 96.2731 42.3173 96.8798C33.3617 98.518 24.7706 92.5979 23.1261 83.6526C21.486 74.7073 27.413 66.1261 36.3686 64.4836C45.3242 62.8453 53.9153 68.7655 55.5598 77.7108C56.0067 80.1378 55.8939 82.5388 55.3125 84.7794L58.8227 91.5967Z" fill="#F6CD93"/>
<path d="M38.3255 96.0217C34.9238 96.0217 31.6088 94.9946 28.7494 93.027C25.031 90.4613 22.5317 86.6041 21.716 82.1661C20.9003 77.7238 21.8635 73.2338 24.4322 69.5196C27.0008 65.8055 30.8625 63.3091 35.3056 62.4943C39.7487 61.6795 44.2482 62.646 47.9666 65.2074C51.6851 67.7731 54.1844 71.6303 55.0001 76.0682C55.4383 78.4519 55.3646 80.8399 54.7875 83.1629L58.506 90.3876L49.9582 91.4147C47.5935 93.6511 44.6387 95.1463 41.4062 95.74C40.3822 95.9264 39.3495 96.0217 38.3255 96.0217ZM38.3689 63.0794C37.41 63.0794 36.4424 63.1661 35.4661 63.3438C26.7622 64.9387 20.974 73.3119 22.5708 82.0057C23.3431 86.2183 25.7122 89.8762 29.2441 92.3119C32.7716 94.7432 37.0368 95.6577 41.2586 94.8862C44.3697 94.3142 47.2117 92.8666 49.4679 90.691L49.5721 90.5913L57.1652 89.6812L53.8676 83.2713L53.911 83.1109C54.4924 80.8573 54.5749 78.5429 54.1496 76.2286C52.7308 68.5012 45.962 63.0794 38.3689 63.0794Z" fill="white"/>
<path d="M29.4997 75.1407C29.0008 75.1407 28.5972 75.5655 28.5972 76.0855V83.5833C28.5972 84.1033 29.0008 84.5281 29.4997 84.5281H46.99C47.4847 84.5281 47.8882 84.1033 47.8882 83.5833V76.0855C47.8882 75.5655 47.4847 75.1407 46.99 75.1407H29.4997Z" fill="#FDFFFE"/>
<path d="M46.9904 85.2605H29.5001C28.6193 85.2605 27.899 84.5064 27.899 83.5833V76.0856C27.899 75.1624 28.6193 74.4083 29.5001 74.4083H46.9904C47.8712 74.4083 48.5871 75.1624 48.5871 76.0856V83.5833C48.5871 84.5064 47.8712 85.2605 46.9904 85.2605ZM29.5001 75.1408C29.0011 75.1408 28.5976 75.5655 28.5976 76.0856V83.5833C28.5976 84.1034 29.0011 84.5281 29.5001 84.5281H46.9904C47.485 84.5281 47.8885 84.1034 47.8885 83.5833V76.0856C47.8885 75.5655 47.485 75.1408 46.9904 75.1408H29.5001Z" fill="#0061BB"/>
<path d="M50.4965 77.2643V82.4C50.4965 83.0154 50.0192 83.5182 49.4291 83.5182H48.2359V76.1461H49.4291C50.0235 76.1461 50.4965 76.6489 50.4965 77.2643Z" fill="#0061BB"/>
<path d="M32.2379 75.9469V83.722H30.5327C29.8645 83.722 29.3265 83.2669 29.3265 82.7165V76.9524C29.3265 76.3976 29.8645 75.9469 30.5327 75.9469H32.2379Z" fill="#F5806F"/>
<path d="M63.7383 46.1338C62.1936 45.8001 60.9397 44.9333 60.4754 43.8758C60.1587 43.1564 60.2107 42.3589 60.6273 41.6265C61.174 40.6644 62.237 40.0013 63.4693 39.8496C64.784 39.6892 66.2592 40.062 67.4134 40.8464C68.4461 41.5485 68.8192 41.9082 69.2792 42.9354L68.6066 43.2387C68.2291 42.3979 67.9861 42.1336 66.9969 41.4575C66.0032 40.7814 64.6842 40.4477 63.5561 40.582C62.5668 40.7034 61.6903 41.2408 61.2651 41.9906C60.9657 42.515 60.9267 43.0784 61.148 43.5768C61.5168 44.4089 62.5928 45.1327 63.8945 45.41L63.7383 46.1338Z" fill="#0061BB"/>
<path d="M63.7518 52.0842C62.3546 52.0842 60.9401 51.8805 59.6211 51.4514C55.3559 50.0646 52.4054 46.4934 52.605 42.9656C52.8176 39.2557 56.3755 36.0226 61.0703 35.2728C65.8475 34.51 71.18 36.5166 73.215 39.8364C74.1435 41.349 74.3301 43.1086 73.74 44.7945C73.6402 45.0805 73.5231 45.3579 73.3842 45.6223C73.3148 46.8834 72.8115 48.0753 71.9263 49.0461C70.1691 50.9877 66.9973 52.0842 63.7518 52.0842ZM63.0966 35.8535C62.4544 35.8535 61.8166 35.9012 61.1874 36.0009C56.9049 36.6813 53.5292 39.6978 53.3426 43.0089C53.1604 46.2117 55.8983 49.4665 59.851 50.7537C63.9774 52.0972 69.0453 51.1307 71.384 48.5563C71.7658 48.136 72.0652 47.6766 72.2778 47.1868C71.4491 48.0709 70.3687 48.7774 69.1147 49.2368C65.3745 50.6106 60.35 49.6658 57.9115 47.1348C56.714 45.891 56.202 44.2571 56.5101 42.6535C56.8311 40.9589 58.0113 39.5374 59.7426 38.7443C61.8122 37.7952 64.2377 37.7648 65.9082 37.9078C67.1058 38.0119 69.3143 38.9783 70.5335 39.9405C71.909 41.0196 72.8549 42.4368 73.2237 43.932C73.5014 42.6535 73.2844 41.3577 72.5902 40.2265C70.9935 37.6131 66.9973 35.8535 63.0966 35.8535ZM64.4764 38.5796C62.7755 38.5796 61.2395 38.8656 60.0463 39.4074C58.5363 40.1008 57.508 41.3317 57.2303 42.7879C56.97 44.1574 57.4126 45.5529 58.4409 46.6234C60.6538 48.9247 65.4223 49.8045 68.8544 48.5433C70.5509 47.9236 71.8916 46.8098 72.6509 45.4272C72.6553 45.2582 72.6509 45.0849 72.6336 44.9115C72.4991 43.2949 71.5619 41.6914 70.0693 40.5169C68.9585 39.6414 66.9018 38.7313 65.8388 38.6403C65.3789 38.5969 64.9233 38.5796 64.4764 38.5796Z" fill="#0061BB"/>
<path d="M48.3745 46.5671C47.3419 45.6916 46.5782 44.6038 46.1703 43.4206C45.4588 41.4053 45.8145 39.3207 47.1466 37.7085C48.0448 36.625 49.8324 35.5762 51.9281 34.9044L52.1537 35.6065C50.1839 36.2393 48.5264 37.2014 47.715 38.1809C46.5522 39.5894 46.2398 41.4097 46.8646 43.1779C47.2334 44.2397 47.9189 45.2192 48.8518 46.008L48.3745 46.5671Z" fill="#0061BB"/>
<path d="M54.2969 49.7743C50.8345 49.7743 48.4307 48.5478 47.1463 47.0396C46.3219 46.0731 45.9965 44.8336 46.1527 43.2604C46.3523 41.2105 47.68 39.3295 49.6977 38.233L50.0491 38.8788C48.2441 39.8626 47.0596 41.5268 46.886 43.3341C46.7515 44.6993 47.0205 45.7568 47.7104 46.5672C49.485 48.6518 53.6678 50.1297 60.0938 48.0234L60.3237 48.7255C58.0501 49.4666 56.0412 49.7743 54.2969 49.7743Z" fill="#0061BB"/>
<path d="M58.7797 53.1719C57.6559 53.1719 56.5234 53.0159 55.443 52.6649C50.9652 51.2087 47.7327 47.5725 47.9236 44.2093C48.1362 40.4995 51.6942 37.2663 56.3889 36.5166C61.1618 35.7538 66.4987 37.7604 68.5336 41.0802C69.4622 42.5928 69.6487 44.3524 69.0586 46.0383C68.3644 48.0362 66.6766 49.6528 64.429 50.4762C60.6888 51.8501 55.6643 50.9053 53.2258 48.3743C52.0283 47.1304 51.5163 45.4965 51.8243 43.893C52.1454 42.1984 53.3256 40.7768 55.0569 39.9837C56.9486 39.1169 59.3481 38.9999 61.3266 39.6717C63.4397 40.3911 64.9497 42.051 64.993 43.7109C65.0017 44.0273 64.9583 44.3437 64.8629 44.6427C64.8889 44.6947 64.9106 44.7424 64.9323 44.7944C65.5398 46.1423 65.6048 47.3298 65.1276 48.3266C64.8802 48.8467 64.4333 49.3234 63.8779 49.6744L63.4831 49.0503C63.9257 48.773 64.2728 48.4046 64.4594 48.0059C64.7891 47.3168 64.7804 46.4847 64.4333 45.5269C63.7868 46.489 62.6283 47.2214 61.2355 47.4468C58.9966 47.8108 56.5017 46.7447 55.7815 45.1195C55.4647 44.4 55.5168 43.6026 55.9333 42.8701C56.48 41.908 57.5431 41.2449 58.7753 41.0932C60.09 40.9329 61.5653 41.3056 62.7194 42.09C63.3052 42.4888 63.8128 42.9915 64.2381 43.5852C64.1209 42.2764 62.8453 40.9675 61.0793 40.3651C59.3003 39.7584 57.0528 39.8711 55.3519 40.6512C53.8419 41.3446 52.8136 42.5754 52.5359 44.0316C52.2756 45.4012 52.7182 46.7967 53.7465 47.8672C55.9594 50.1685 60.7279 51.0483 64.16 49.7871C66.1993 49.0373 67.7222 47.5855 68.3471 45.7956C68.859 44.322 68.6985 42.7835 67.8871 41.4616C66.0301 38.4278 60.9144 36.5339 56.4887 37.2403C52.2062 37.9251 48.8305 40.9372 48.6439 44.2483C48.4703 47.2908 51.4859 50.6062 55.6556 51.9628C59.8818 53.3366 64.8932 51.551 67.1148 49.1067L67.6615 49.6008C65.8738 51.59 62.3506 53.1719 58.7797 53.1719ZM59.3915 41.7953C59.2179 41.7953 59.0443 41.804 58.8795 41.8257C57.8902 41.947 57.0137 42.4844 56.5885 43.2342C56.2891 43.7586 56.2501 44.322 56.4714 44.8204C57.0571 46.1423 59.2309 47.0307 61.1314 46.7187C62.5025 46.4977 63.6306 45.6742 64.0688 44.6817C63.6263 43.8539 63.0405 43.1909 62.3203 42.7011C61.4698 42.1247 60.3894 41.7953 59.3915 41.7953Z" fill="#0061BB"/>
<path d="M62.0118 48.708C60.0376 48.708 58.0417 48.4263 56.3755 47.8845C52.1104 46.4977 49.1599 42.9265 49.3595 39.3943C49.5547 35.9272 53.0606 33.0624 58.0807 32.2607C63.14 31.4545 68.03 33.1014 69.9695 36.2652C70.7027 37.4614 70.9718 38.8179 70.7635 40.1658C70.9891 40.7119 71.1583 41.2753 71.2538 41.8473C71.5445 43.5506 71.154 45.1021 70.1474 46.2073C68.5984 47.9105 65.3311 48.708 62.0118 48.708ZM60.5713 32.8024C59.7903 32.8024 58.9919 32.8631 58.1936 32.9888C53.5248 33.7342 50.2706 36.3216 50.0927 39.4333C49.9105 42.6361 52.6484 45.8909 56.6012 47.1781C60.849 48.5606 67.3097 48.2226 69.6006 45.7046C70.4511 44.7684 70.7765 43.4422 70.5248 41.9644C70.4945 41.791 70.4554 41.6133 70.412 41.44C69.6701 43.3339 68.0256 44.8638 65.8648 45.6612C62.1246 47.0351 57.1001 46.0903 54.6617 43.5593C53.4641 42.3154 52.9521 40.6815 53.2602 39.078C53.5813 37.3834 54.7614 35.9618 56.4927 35.1687C58.3801 34.3019 60.7839 34.1849 62.7625 34.8567C64.8755 35.5761 66.3855 37.236 66.4289 38.8959L65.6913 38.9133C65.6565 37.5567 64.3549 36.1742 62.5238 35.5545C60.7449 34.9477 58.4973 35.0604 56.7964 35.8405C55.2865 36.5339 54.2581 37.7648 53.9804 39.2166C53.7201 40.5862 54.1627 41.9817 55.191 43.0522C57.4039 45.3535 62.1724 46.2333 65.6045 44.9721C67.6438 44.2224 69.1668 42.7705 69.7916 40.9806C69.874 40.7422 69.9391 40.5038 69.9868 40.2611C69.2405 38.6229 67.8824 37.1407 66.2206 36.2479L66.5721 35.5978C68.0126 36.3736 69.2232 37.5221 70.0649 38.8483C69.9998 38.0811 69.7525 37.3357 69.3316 36.6466C67.8781 34.2673 64.4026 32.8024 60.5713 32.8024Z" fill="#0061BB"/>
<path d="M76.7255 61.974C73.7447 61.974 69.7485 59.7074 67.8784 57.5924C67.7613 57.6011 67.6484 57.6011 67.5313 57.5967C66.2339 57.5491 65.1188 56.9423 64.4159 56.4439C63.9343 56.1059 63.5047 55.7288 63.0925 55.3647C62.7932 55.1047 62.4851 54.8317 62.1683 54.5846C60.9404 53.6312 59.6127 52.9507 58.2242 52.5737C50.5009 50.4587 51.6724 44.8029 51.6855 44.7466L52.4057 44.9069C52.3623 45.1106 51.3947 49.9386 58.4195 51.8629C59.9034 52.2703 61.3179 52.9897 62.6196 54.0039C62.9537 54.2639 63.2704 54.5413 63.5785 54.81C63.9994 55.1784 64.3942 55.5251 64.8411 55.8415C65.4182 56.2489 66.2947 56.7343 67.3013 56.8383C67.067 56.4742 66.9152 56.1275 66.8544 55.8068C66.7199 55.0657 67.0844 54.4806 67.848 54.1946C68.5726 53.9259 69.3016 54.2423 69.7398 54.628C70.2128 55.044 70.4297 55.5728 70.3256 56.0538C70.165 56.7603 69.5012 57.2283 68.7288 57.4494C70.5035 59.2523 73.966 61.2372 76.7212 61.2372C76.7255 61.2372 76.7299 61.2372 76.7342 61.2372V61.974C76.7385 61.974 76.7342 61.974 76.7255 61.974ZM68.4078 54.836C68.308 54.836 68.2082 54.8533 68.1084 54.888C67.5573 55.0917 67.5313 55.4038 67.5834 55.6768C67.6441 56.0105 67.8524 56.4049 68.1778 56.821C68.9067 56.7039 69.5099 56.3312 69.6096 55.8935C69.6574 55.6898 69.5185 55.4124 69.2582 55.1871C69.0543 55.0094 68.7332 54.836 68.4078 54.836Z" fill="#0061BB"/>
<path d="M97.8129 90.7602C94.4025 90.7602 91.2394 87.9041 91.0963 87.7741L91.3913 87.4534C91.426 87.488 94.997 90.7168 98.4681 90.2878C100.013 90.0971 101.323 89.2086 102.365 87.6397L102.725 87.8781C101.61 89.5553 100.195 90.5088 98.5202 90.7168C98.2859 90.7472 98.0516 90.7602 97.8129 90.7602Z" fill="#302824"/>
<path d="M83.0561 95.3152C82.4921 90.9596 79.368 90.2185 79.2379 90.1882L79.329 89.7634C79.3637 89.7721 82.8826 90.5869 83.4857 95.2589L83.0561 95.3152Z" fill="#302824"/>
<path d="M61.3476 120.716C61.3216 120.621 59.0393 111.069 65.9686 102.674L66.3027 102.951C59.5166 111.173 61.7425 120.521 61.7685 120.612L61.3476 120.716Z" fill="#302824"/>
<path d="M78.1007 112.361L77.7449 112.109C77.8577 111.949 80.5348 108.2 84.4312 107.901L84.4659 108.335C80.7735 108.621 78.1267 112.326 78.1007 112.361Z" fill="#302824"/>
<path d="M92.4062 135.071C87.8112 135.071 84.6264 134.464 84.557 134.451L84.6394 134.026C84.7826 134.052 98.8842 136.743 110.643 130.654L110.842 131.04C104.542 134.299 97.5825 135.071 92.4062 135.071Z" fill="#302824"/>
<path d="M118.348 89.2913C116.522 89.2913 115.563 88.7192 115.506 88.6846L115.732 88.3162C115.749 88.3292 117.633 89.43 121.173 88.4419L121.29 88.8579C120.14 89.1786 119.155 89.2913 118.348 89.2913Z" fill="#302824"/>
<path d="M83.1471 184.027C83.1298 184.027 83.1211 184.027 83.1168 184.027L83.1298 183.593C83.1775 183.593 88.5231 183.667 92.1027 178.375L92.4629 178.618C88.8832 183.91 83.581 184.027 83.1471 184.027Z" fill="#302824"/>
<path d="M113.758 182.246L113.632 181.829C113.676 181.816 117.997 180.482 119.85 176.776L120.236 176.971C118.305 180.846 113.945 182.189 113.758 182.246Z" fill="#302824"/>
<path d="M97.7561 130.91L97.7301 130.477C97.8082 130.472 105.523 129.978 109.988 124.942L110.313 125.228C105.731 130.403 97.8386 130.906 97.7561 130.91Z" fill="#302824"/>
<path d="M163.655 122.272L163.23 121.518C177.852 113.275 186.934 97.7466 186.934 80.9915C186.934 78.7682 186.773 76.5362 186.465 74.3519L187.324 74.2306C187.641 76.4539 187.802 78.7292 187.802 80.9915C187.802 98.0586 178.547 113.878 163.655 122.272Z" fill="#F7EFDF"/>
<path d="M140.377 128.362C136.711 128.362 133.057 127.941 129.521 127.113L129.721 126.268C133.192 127.079 136.78 127.49 140.377 127.49C144.534 127.49 148.656 126.944 152.626 125.865L152.856 126.702C148.808 127.807 144.608 128.362 140.377 128.362Z" fill="#F7EFDF"/>
<path d="M85.7845 21.4171C79.94 18.3747 73.6658 16.3811 67.1357 15.4883C64.5367 15.1329 61.8813 14.9509 59.2388 14.9509V14.0841C61.9203 14.0841 64.6148 14.2661 67.2529 14.6302C73.8828 15.5403 80.2524 17.5643 86.1837 20.65L85.7845 21.4171Z" fill="#F7EFDF"/>
<path d="M1.6701 72.4537H0.802307C0.802307 60.6264 4.32553 49.2325 10.9902 39.5114C17.4986 30.0201 26.5583 22.713 37.1844 18.3834L37.5098 19.1852C15.737 28.0568 1.6701 48.9637 1.6701 72.4537Z" fill="#F7EFDF"/>
<path d="M7.85705 100.277C4.81544 94.6866 2.72841 88.6711 1.64801 82.4042L2.50278 82.2568C3.56583 88.4284 5.62249 94.3529 8.61636 99.8613L7.85705 100.277Z" fill="#F7EFDF"/>
<g opacity="0.67">
<path d="M21.7508 59.6209C22.7309 59.6209 23.5254 58.8272 23.5254 57.8483C23.5254 56.8693 22.7309 56.0757 21.7508 56.0757C20.7707 56.0757 19.9761 56.8693 19.9761 57.8483C19.9761 58.8272 20.7707 59.6209 21.7508 59.6209Z" fill="#3A749A"/>
</g>
<g opacity="0.53">
<path d="M31.0532 32.9457C29.9555 32.9457 29.066 32.0529 29.066 30.9607C29.066 29.8686 29.9598 28.9714 31.0532 28.9714C32.1466 28.9714 33.0448 29.8642 33.0448 30.9607C33.0448 32.0572 32.151 32.9457 31.0532 32.9457ZM31.0532 29.4048C30.1941 29.4048 29.4999 30.1026 29.4999 30.9607C29.4999 31.8188 30.1984 32.5123 31.0532 32.5123C31.9123 32.5123 32.6109 31.8145 32.6109 30.9607C32.6109 30.1026 31.9123 29.4048 31.0532 29.4048Z" fill="#F6CD93"/>
</g>
<g opacity="0.53">
<path d="M146.379 41.3618C147.359 41.3618 148.153 40.5682 148.153 39.5892C148.153 38.6103 147.359 37.8167 146.379 37.8167C145.399 37.8167 144.604 38.6103 144.604 39.5892C144.604 40.5682 145.399 41.3618 146.379 41.3618Z" fill="#F6CD93"/>
</g>
<g opacity="0.67">
<path d="M156.128 121.033C157.108 121.033 157.902 120.239 157.902 119.26C157.902 118.281 157.108 117.488 156.128 117.488C155.148 117.488 154.353 118.281 154.353 119.26C154.353 120.239 155.148 121.033 156.128 121.033Z" fill="#3A749A"/>
</g>
<g opacity="0.53">
<path d="M142.17 109.188C141.072 109.188 140.178 108.296 140.178 107.199C140.178 106.103 141.072 105.214 142.17 105.214C143.268 105.214 144.161 106.107 144.161 107.199C144.157 108.296 143.268 109.188 142.17 109.188ZM142.17 105.648C141.311 105.648 140.612 106.345 140.612 107.199C140.612 108.057 141.311 108.755 142.17 108.755C143.029 108.755 143.728 108.057 143.728 107.199C143.723 106.341 143.029 105.648 142.17 105.648Z" fill="#F6CD93"/>
</g>
</g>
<defs>
<clipPath id="clip0_115_7">
<rect width="187" height="238" fill="white" transform="translate(0.802307 0.0842285)"/>
</clipPath>
</defs>
</svg>
