<svg width="40" height="40" viewBox="0 0 40 40" fill="none" xmlns="http://www.w3.org/2000/svg">
<path d="M0 10C0 4.47715 4.47715 0 10 0H30C35.5228 0 40 4.47715 40 10V30C40 35.5228 35.5228 40 30 40H10C4.47715 40 0 35.5228 0 30V10Z" fill="#1E2432"/>
<g clip-path="url(#clip0_1_723)">
<path d="M28.0766 9.23083H11.9228C10.438 9.23083 9.23047 10.4383 9.23047 11.9231V28.077C9.23047 29.5618 10.438 30.7693 11.9228 30.7693H19.9997V23.3655H17.3074V20.0001H19.9997V17.3078C19.9997 15.0772 21.8076 13.2693 24.0382 13.2693H26.7305V16.6347H25.3843C24.6412 16.6347 24.0382 16.5647 24.0382 17.3078V20.0001H27.4035L26.0574 23.3655H24.0382V30.7693H28.0766C29.5614 30.7693 30.7689 29.5618 30.7689 28.077V11.9231C30.7689 10.4383 29.5614 9.23083 28.0766 9.23083Z" fill="#FF9900"/>
</g>
<defs>
<clipPath id="clip0_1_723">
<rect width="21.5385" height="21.5385" fill="white" transform="translate(9.23047 9.23083)"/>
</clipPath>
</defs>
</svg>
