<svg width="15" height="26" viewBox="0 0 15 26" fill="none" xmlns="http://www.w3.org/2000/svg">
<path d="M13.5239 0.005L10.1569 0C6.36891 0 3.92391 2.511 3.92391 6.4V9.35H0.533907C0.393342 9.35 0.258534 9.40584 0.15914 9.50523C0.0597453 9.60463 0.00390625 9.73944 0.00390625 9.88V14.155C0.00390625 14.2956 0.0597453 14.4304 0.15914 14.5298C0.258534 14.6292 0.393342 14.685 0.533907 14.685H3.92391V25.47C3.92391 25.6106 3.97975 25.7454 4.07914 25.8448C4.17853 25.9442 4.31334 26 4.45391 26H8.87391C9.01447 26 9.14928 25.9442 9.24867 25.8448C9.34807 25.7454 9.40391 25.6106 9.40391 25.47V14.684H13.3679C13.5085 14.684 13.6433 14.6282 13.7427 14.5288C13.8421 14.4294 13.8979 14.2946 13.8979 14.154V9.879C13.8976 9.73852 13.8417 9.60386 13.7424 9.50453C13.643 9.40519 13.5084 9.34926 13.3679 9.349H9.40391V6.849C9.40391 5.649 9.68991 5.037 11.2559 5.037H13.5239C13.6645 5.037 13.7993 4.98116 13.8987 4.88177C13.9981 4.78237 14.0539 4.64756 14.0539 4.507V0.536C14.054 0.466315 14.0404 0.397289 14.0138 0.332871C13.9873 0.268453 13.9483 0.209908 13.899 0.160587C13.8498 0.111266 13.7913 0.0721368 13.727 0.0454393C13.6626 0.0187418 13.5936 0.00499988 13.5239 0.005Z" fill="white"/>
</svg>
