<svg width="26" height="26" viewBox="0 0 26 26" fill="none" xmlns="http://www.w3.org/2000/svg">
<path d="M6.40264 0.515151C5.62907 0.513437 4.86277 0.664538 4.14776 0.959781C3.43274 1.25502 2.78308 1.68859 2.23608 2.23559C1.68908 2.78259 1.25551 3.43225 0.960269 4.14727C0.665027 4.86228 0.513925 5.62858 0.515639 6.40215V19.6482C0.513925 20.4217 0.665027 21.188 0.960269 21.903C1.25551 22.6181 1.68908 23.2677 2.23608 23.8147C2.78308 24.3617 3.43274 24.7953 4.14776 25.0905C4.86277 25.3858 5.62907 25.5369 6.40264 25.5352H19.6486C20.4222 25.5369 21.1885 25.3858 21.9035 25.0905C22.6185 24.7953 23.2682 24.3617 23.8152 23.8147C24.3622 23.2677 24.7958 22.6181 25.091 21.903C25.3863 21.188 25.5374 20.4217 25.5356 19.6482V6.40215C25.5374 5.62858 25.3863 4.86228 25.091 4.14727C24.7958 3.43225 24.3622 2.78259 23.8152 2.23559C23.2682 1.68859 22.6185 1.25502 21.9035 0.959781C21.1885 0.664538 20.4222 0.513437 19.6486 0.515151H6.40264ZM20.3846 4.19415C20.6759 4.19356 20.9608 4.27938 21.2033 4.44077C21.4457 4.60215 21.6349 4.83184 21.7467 5.10076C21.8586 5.36968 21.8882 5.66574 21.8317 5.95148C21.7753 6.23722 21.6353 6.49978 21.4296 6.70595C21.2238 6.91211 20.9615 7.0526 20.6759 7.10964C20.3903 7.16668 20.0942 7.13771 19.825 7.02639C19.5559 6.91506 19.3258 6.7264 19.1639 6.48426C19.002 6.24213 18.9156 5.95741 18.9156 5.66615C18.9156 5.27627 19.0703 4.90232 19.3457 4.62635C19.6211 4.35038 19.9948 4.19495 20.3846 4.19415ZM13.0256 6.77015C14.2628 6.77015 15.4721 7.137 16.5007 7.82431C17.5294 8.51162 18.3311 9.48851 18.8045 10.6315C19.2779 11.7744 19.4018 13.0321 19.1605 14.2454C18.9191 15.4588 18.3234 16.5733 17.4486 17.4481C16.5738 18.3229 15.4593 18.9186 14.2459 19.16C13.0326 19.4013 11.7749 19.2774 10.632 18.804C9.489 18.3306 8.51211 17.5289 7.8248 16.5002C7.13749 15.4716 6.77064 14.2623 6.77064 13.0252C6.77355 11.3671 7.43349 9.77782 8.6059 8.60541C9.77831 7.433 11.3676 6.77306 13.0256 6.77015ZM13.0256 8.24215C12.0797 8.24215 11.1549 8.52267 10.3683 9.04823C9.58179 9.5738 8.96874 10.3208 8.60672 11.1948C8.24471 12.0688 8.14999 13.0305 8.33454 13.9583C8.5191 14.8861 8.97463 15.7383 9.64355 16.4072C10.3125 17.0762 11.1647 17.5317 12.0925 17.7162C13.0203 17.9008 13.982 17.8061 14.856 17.4441C15.73 17.0821 16.477 16.469 17.0026 15.6824C17.5281 14.8959 17.8086 13.9711 17.8086 13.0252C17.8101 12.3966 17.6874 11.774 17.4475 11.1931C17.2077 10.6121 16.8554 10.0843 16.411 9.63982C15.9665 9.19539 15.4387 8.84313 14.8577 8.60328C14.2768 8.36343 13.6542 8.2407 13.0256 8.24215Z" fill="white"/>
</svg>
