<svg width="24" height="24" viewBox="0 0 24 24" fill="none" xmlns="http://www.w3.org/2000/svg">
<path d="M23.4287 14.7251V23.3861H18.4067V15.3051C18.4067 13.2751 17.6807 11.8891 15.8627 11.8891C15.2964 11.8926 14.7449 12.0709 14.2838 12.3997C13.8227 12.7285 13.4745 13.1918 13.2867 13.7261C13.1576 14.1207 13.101 14.5354 13.1197 14.9501V23.3861H8.10072C8.10072 23.3861 8.16872 9.69914 8.10072 8.28114H13.1227V10.4221C13.1127 10.4381 13.0997 10.4551 13.0897 10.4711H13.1227V10.4221C13.5766 9.63157 14.2385 8.98052 15.0364 8.53976C15.8344 8.099 16.7379 7.88539 17.6487 7.92214C20.9507 7.92614 23.4287 10.0851 23.4287 14.7251ZM2.84272 1.00014C2.48447 0.969666 2.1238 1.01334 1.78318 1.12843C1.44256 1.24352 1.12931 1.42756 0.86297 1.66908C0.59663 1.91059 0.382911 2.20439 0.235145 2.53216C0.087379 2.85993 0.00873617 3.21463 0.00412181 3.57414C-0.000492547 3.93364 0.0690206 4.29024 0.208325 4.6217C0.34763 4.95315 0.553737 5.25234 0.813792 5.50061C1.07385 5.74888 1.38227 5.9409 1.71982 6.0647C2.05737 6.1885 2.41681 6.24141 2.77572 6.22014H2.80972C3.16941 6.25052 3.53151 6.20619 3.87325 6.08993C4.21499 5.97366 4.529 5.78798 4.79555 5.54455C5.06209 5.30112 5.27541 5.0052 5.42211 4.67537C5.56881 4.34555 5.64572 3.98895 5.648 3.62798C5.65029 3.26701 5.57789 2.90947 5.43538 2.57781C5.29286 2.24616 5.08329 1.94756 4.81985 1.70078C4.5564 1.454 4.24477 1.26436 3.90452 1.14379C3.56427 1.02322 3.20277 0.974309 2.84272 1.00014ZM0.300717 23.3861H5.31972V8.28114H0.300717V23.3861Z" fill="white"/>
</svg>
