<svg width="26" height="22" viewBox="0 0 26 22" fill="none" xmlns="http://www.w3.org/2000/svg">
<path d="M9.23895 21.9207H7.16795C6.449 21.9015 5.73422 21.805 5.03595 21.6327C3.37977 21.2817 1.7994 20.6383 0.368946 19.7327C0.277788 19.6848 0.199041 19.6164 0.138946 19.5327C0.0693993 19.4443 0.0247535 19.3389 0.00963278 19.2274C-0.00548795 19.116 0.00946618 19.0025 0.0529463 18.8987C0.113178 18.8004 0.197962 18.7195 0.298958 18.6639C0.399953 18.6084 0.513679 18.58 0.628946 18.5817C1.85768 18.7095 3.0995 18.6019 4.28795 18.2647C5.03308 18.0571 5.74931 17.7572 6.41995 17.3717C5.5656 17.1119 4.78545 16.6523 4.1441 16.031C3.50275 15.4096 3.01867 14.6444 2.73195 13.7987C2.69562 13.7034 2.68445 13.6004 2.69951 13.4995C2.71457 13.3986 2.75536 13.3033 2.81795 13.2227C2.89682 13.1209 3.00906 13.0501 3.13495 13.0227C2.77391 12.7432 2.4452 12.4242 2.15495 12.0717C1.34947 11.0683 0.921304 9.81423 0.944946 8.52773C0.944647 8.42774 0.971219 8.32951 1.02188 8.24331C1.07255 8.15711 1.14544 8.08611 1.23295 8.03773C1.31827 7.98355 1.41618 7.9524 1.51712 7.94732C1.61807 7.94223 1.71861 7.96339 1.80895 8.00873C1.84056 8.03921 1.88065 8.05942 1.92395 8.06673C1.54855 7.50776 1.2844 6.88167 1.14595 6.22273C0.824434 4.85017 1.04094 3.40659 1.75095 2.18873C1.78968 2.10578 1.85046 2.03505 1.92663 1.98426C2.00281 1.93348 2.09147 1.90458 2.18295 1.90073C2.27504 1.88726 2.36906 1.89871 2.45523 1.93388C2.5414 1.96905 2.61658 2.02667 2.67295 2.10073L2.87295 2.33073C4.83382 4.62904 7.49636 6.21842 10.4499 6.85373C10.8819 6.93973 11.3719 7.02673 11.8909 7.08373C11.8621 6.80581 11.8621 6.52565 11.8909 6.24773C11.9278 5.50461 12.1151 4.77671 12.4417 4.1082C12.7684 3.43969 13.2274 2.84449 13.7909 2.35873C14.6304 1.60298 15.6913 1.13829 16.8159 1.03373C17.625 0.937356 18.4453 1.02193 19.2177 1.28134C19.99 1.54075 20.6951 1.96852 21.2819 2.53373C22.1084 2.35117 22.9043 2.05041 23.6449 1.64073C23.6739 1.61173 23.8749 1.52573 23.9619 1.46773L24.0199 1.43873C24.1245 1.38425 24.2425 1.36077 24.3599 1.37105C24.4774 1.38132 24.5894 1.42493 24.6829 1.49673C24.7728 1.57234 24.8374 1.6735 24.8683 1.78675C24.8992 1.90001 24.8949 2.01999 24.8559 2.13073C24.6669 2.67259 24.4052 3.18628 24.0779 3.65773C24.2779 3.57173 24.5099 3.48473 24.7409 3.39873C24.8554 3.35278 24.9816 3.34478 25.101 3.37593C25.2203 3.40707 25.3265 3.47571 25.4039 3.57173C25.4851 3.66719 25.5321 3.78704 25.5373 3.91224C25.5426 4.03744 25.5058 4.16081 25.4329 4.26273C25.2011 4.61911 24.941 4.9562 24.6549 5.27073C24.1753 5.83773 23.6343 6.34985 23.0419 6.79773V7.40273V7.57573C22.9297 11.0322 21.6386 14.3463 19.3829 16.9677C17.5235 19.1358 15.0532 20.6923 12.2949 21.4337C11.4284 21.6734 10.5405 21.8278 9.64395 21.8947C9.49795 21.8917 9.38295 21.9207 9.23895 21.9207Z" fill="white"/>
</svg>
