<svg width="43" height="32" viewBox="0 0 43 32" fill="none" xmlns="http://www.w3.org/2000/svg">
<path d="M4.26033 4.58376C7.16363 1.54176 11.5569 -0.000244141 17.3159 -0.000244141H19.3852V5.63775L17.7215 5.95976C14.8864 6.50776 12.9144 7.58575 11.859 9.16775C11.3083 10.02 10.996 10.9958 10.9526 11.9998H17.3159C17.8647 11.9998 18.391 12.2105 18.7791 12.5855C19.1672 12.9606 19.3852 13.4693 19.3852 13.9998V27.9998C19.3852 30.2058 17.529 31.9998 15.2465 31.9998H2.83041C2.28158 31.9998 1.75524 31.789 1.36716 31.414C0.979079 31.0389 0.761059 30.5302 0.761059 29.9998V19.9998L0.767267 14.1618C0.748643 13.9398 0.355466 8.67975 4.26033 4.58376ZM38.0094 31.9998H25.5933C25.0444 31.9998 24.5181 31.789 24.13 31.414C23.7419 31.0389 23.5239 30.5302 23.5239 29.9998V19.9998L23.5301 14.1618C23.5115 13.9398 23.1183 8.67975 27.0232 4.58376C29.9265 1.54176 34.3197 -0.000244141 40.0787 -0.000244141H42.1481V5.63775L40.4843 5.95976C37.6493 6.50776 35.6772 7.58575 34.6219 9.16775C34.0712 10.02 33.7589 10.9958 33.7155 11.9998H40.0787C40.6276 11.9998 41.1539 12.2105 41.542 12.5855C41.9301 12.9606 42.1481 13.4693 42.1481 13.9998V27.9998C42.1481 30.2058 40.2919 31.9998 38.0094 31.9998Z" fill="#FF9900"/>
</svg>
