<svg width="413" height="438" viewBox="0 0 413 438" fill="none" xmlns="http://www.w3.org/2000/svg">
<circle cx="206.5" cy="206.5" r="206" stroke="#FF9900" stroke-opacity="0.05"/>
<circle cx="206.5" cy="206.5" r="153.875" stroke="#FF9900" stroke-opacity="0.15" stroke-width="2"/>
<circle cx="206.5" cy="206.5" r="102.25" stroke="#FF9900" stroke-opacity="0.25" stroke-width="2"/>
<circle cx="206.5" cy="206.5" r="50.625" stroke="#FF9900" stroke-opacity="0.35" stroke-width="2"/>
<g filter="url(#filter0_d_1_878)">
<rect x="71" y="81" width="65" height="65" rx="10" fill="#1E2432"/>
</g>
<g filter="url(#filter1_d_1_878)">
<rect x="218" y="174" width="65" height="65" rx="10" fill="#1E2432"/>
</g>
<g filter="url(#filter2_d_1_878)">
<rect x="273" y="286" width="65" height="65" rx="10" fill="#1E2432"/>
</g>
<g filter="url(#filter3_d_1_878)">
<rect x="49" y="346" width="65" height="66" rx="10" fill="#1E2432"/>
</g>
<g filter="url(#filter4_d_1_878)">
<rect x="278" y="31" width="65" height="65" rx="10" fill="#1E2432"/>
</g>
<g clip-path="url(#clip0_1_878)">
<g clip-path="url(#clip1_1_878)">
<path d="M324.207 47.1418C323.38 47.4425 322.806 47.9484 322.443 48.7209C322.245 49.1379 322.225 49.2404 322.225 49.8283C322.225 50.1838 322.238 50.5666 322.259 50.6759C322.293 50.8673 322.259 50.8947 319.887 52.3029L317.474 53.7384L317.221 53.5197C316.886 53.2189 316.332 52.9728 315.792 52.884C314.732 52.6994 313.598 53.2052 312.928 54.1554L312.791 54.3537L310.651 53.3009L308.512 52.255L308.539 52.05C308.594 51.6603 308.457 51.0314 308.211 50.5392C307.356 48.8029 305.06 48.4201 303.631 49.7668C302.94 50.423 302.605 51.4142 302.776 52.2961C302.824 52.5353 302.865 52.7951 302.872 52.8771C302.879 52.9933 302.305 53.4513 300.131 55.0783L297.383 57.1291L297.109 57.006C295.694 56.3224 293.985 56.9582 293.281 58.4347C293.049 58.9201 293.035 59.0021 293.035 59.6037C293.035 60.342 293.145 60.7043 293.534 61.3058C294.293 62.4543 295.927 62.8713 297.205 62.2423C297.807 61.9416 298.258 61.4767 298.565 60.8341C298.764 60.4172 298.777 60.3488 298.764 59.672C298.757 59.2756 298.743 58.8654 298.729 58.7629C298.709 58.5783 298.873 58.4484 301.478 56.5002L304.246 54.4357L304.69 54.5998C305.073 54.7433 305.224 54.757 305.784 54.7365C306.495 54.7023 306.98 54.5314 307.418 54.1691L307.644 53.9709L310.091 55.1945L312.538 56.4181L312.62 56.6916C312.818 57.3683 313.44 58.0451 314.179 58.3937C314.534 58.5578 314.746 58.6125 315.19 58.633C316.811 58.7218 318.096 57.6007 318.267 55.9533L318.314 55.5089L320.898 53.964C322.32 53.1164 323.51 52.4259 323.544 52.4259C323.578 52.4259 323.776 52.5011 323.981 52.5968C325.021 53.0685 326.347 52.7882 327.174 51.9132C328.548 50.464 328.131 48.1808 326.333 47.299C325.909 47.0871 325.786 47.0597 325.205 47.0461C324.706 47.0256 324.467 47.0529 324.207 47.1418Z" fill="#FF9900"/>
<path d="M322.846 58.7148C322.743 58.749 322.593 58.8311 322.518 58.8994C322.176 59.207 322.189 58.6875 322.189 69.3857C322.189 79.2842 322.189 79.3799 322.326 79.5986C322.593 80.0293 322.688 80.043 325.108 80.043C327.159 80.043 327.296 80.0361 327.508 79.9062C327.631 79.8311 327.788 79.6738 327.863 79.5508C328 79.3252 328 79.1816 328 69.3789C328 59.8018 327.993 59.4189 327.87 59.1934C327.802 59.0635 327.638 58.8926 327.515 58.8174C327.296 58.6875 327.145 58.6807 325.163 58.667C324.001 58.6602 322.955 58.6807 322.846 58.7148Z" fill="#FF9900"/>
<path d="M303.179 60.7861C303.049 60.8682 302.892 61.0459 302.83 61.1758C302.714 61.4014 302.707 61.9824 302.707 70.3359C302.707 78.6895 302.714 79.2705 302.83 79.4961C302.892 79.626 303.049 79.8037 303.179 79.8857C303.411 80.043 303.438 80.043 305.64 80.043C307.731 80.043 307.882 80.0361 308.087 79.9062C308.21 79.8379 308.36 79.6738 308.429 79.5508C308.545 79.3389 308.552 78.8604 308.552 70.3359C308.552 61.8115 308.545 61.333 308.429 61.1211C308.36 60.998 308.21 60.834 308.087 60.7656C307.882 60.6357 307.731 60.6289 305.64 60.6289C303.438 60.6289 303.411 60.6289 303.179 60.7861Z" fill="#FF9900"/>
<path d="M312.914 64.6621C312.791 64.7305 312.641 64.8945 312.572 65.0176C312.456 65.2295 312.449 65.6328 312.449 72.2842C312.449 78.9355 312.456 79.3389 312.572 79.5508C312.641 79.6738 312.791 79.8379 312.914 79.9062C313.119 80.0361 313.27 80.043 315.361 80.043C317.562 80.043 317.59 80.043 317.822 79.8857C318.328 79.5508 318.294 80.0635 318.294 72.2842C318.294 64.5049 318.328 65.0176 317.822 64.6826C317.59 64.5254 317.562 64.5254 315.361 64.5254C313.27 64.5254 313.119 64.5322 312.914 64.6621Z" fill="#FF9900"/>
<path d="M293.465 68.5381C293.369 68.5996 293.219 68.7637 293.144 68.9072C293 69.1533 293 69.2148 293 74.2393C293 79.1953 293.007 79.332 293.137 79.5508C293.212 79.6738 293.369 79.8311 293.492 79.9062C293.704 80.0361 293.841 80.043 295.892 80.043C298.312 80.043 298.407 80.0293 298.674 79.5986C298.811 79.3799 298.811 79.2705 298.811 74.2393C298.811 68.5654 298.831 68.832 298.38 68.5586C298.175 68.4287 298.024 68.4219 295.905 68.4219C293.93 68.4287 293.629 68.4424 293.465 68.5381Z" fill="#FF9900"/>
</g>
</g>
<path d="M301.66 302.063C301.059 302.225 300.672 302.399 300.22 302.709C299.452 303.232 298.774 304.078 298.457 304.904C298.212 305.556 298.148 306.144 298.141 307.732V309.23L293.899 309.249L289.651 309.269L289.419 309.417C288.935 309.714 288.973 308.72 288.973 321.225C288.973 332.311 288.973 332.446 289.103 332.659C289.174 332.775 289.322 332.924 289.438 332.995C289.651 333.124 289.8 333.124 305.501 333.124C321.203 333.124 321.351 333.124 321.564 332.995C321.68 332.924 321.829 332.775 321.9 332.659C322.029 332.446 322.029 332.311 322.029 321.212C322.029 310.373 322.022 309.966 321.906 309.753C321.842 309.63 321.687 309.469 321.571 309.398C321.358 309.275 321.215 309.269 317.109 309.249L312.874 309.23L312.842 307.506C312.822 305.976 312.803 305.731 312.674 305.311C312.228 303.807 311.157 302.683 309.665 302.154L309.149 301.973L305.63 301.96C302.37 301.947 302.079 301.954 301.66 302.063ZM309.259 304.381C309.795 304.646 310.279 305.156 310.479 305.672C310.614 306.015 310.627 306.163 310.653 307.635L310.679 309.236H305.501H300.323L300.349 307.635C300.375 306.17 300.388 306.008 300.523 305.672C300.691 305.24 301.137 304.717 301.544 304.484C302.118 304.142 302.125 304.142 305.598 304.155L308.826 304.168L309.259 304.381ZM307.741 315.789C308.477 315.925 309.33 316.37 309.898 316.906C310.434 317.41 310.537 317.584 310.537 317.991C310.537 318.249 310.505 318.32 310.292 318.54C309.814 319.011 309.439 318.966 308.774 318.359C308.516 318.12 308.161 317.862 307.98 317.778C307.102 317.377 305.805 317.519 304.894 318.12C304.584 318.326 304.081 318.785 304.081 318.862C304.081 318.895 304.546 318.92 305.12 318.92C305.94 318.92 306.205 318.94 306.379 319.024C307.012 319.327 307.012 320.321 306.379 320.625C306.198 320.709 305.908 320.728 304.707 320.728H303.254L303.229 320.954C303.216 321.077 303.216 321.277 303.229 321.4L303.254 321.626L304.72 321.645C305.979 321.664 306.211 321.677 306.392 321.781C306.986 322.103 307.005 322.975 306.424 323.356C306.282 323.453 306.063 323.479 305.146 323.504L304.049 323.537L304.391 323.872C305.346 324.796 306.902 325.118 307.98 324.615C308.213 324.505 308.542 324.273 308.742 324.085C309.226 323.614 309.304 323.569 309.62 323.569C310.169 323.569 310.537 323.93 310.537 324.466C310.537 324.821 310.382 325.08 309.891 325.519C308.652 326.636 307.07 326.971 305.353 326.481C304.023 326.1 302.77 325.105 302.099 323.905L301.873 323.504H301.544C300.917 323.504 300.465 323.111 300.465 322.575C300.465 322.123 300.749 321.793 301.24 321.677C301.395 321.639 301.402 321.613 301.402 321.18C301.402 320.767 301.389 320.728 301.272 320.728C300.879 320.728 300.465 320.27 300.465 319.824C300.465 319.276 300.879 318.92 301.511 318.92H301.886L302.021 318.643C302.267 318.165 302.706 317.597 303.164 317.171C304.436 316.002 306.134 315.486 307.741 315.789Z" fill="#FF9900"/>
<path d="M79.5626 361.069C73.158 361.844 67.8317 366.208 65.8109 372.335C65.2105 374.136 65.0039 375.466 65.0039 377.5C65.0039 379.766 65.3203 381.483 66.1015 383.491C67.128 386.112 68.8711 388.501 71.0598 390.29C77.2771 395.377 86.2253 395.248 92.3458 389.973C95.0186 387.668 96.949 384.415 97.6721 380.967C97.8206 380.27 98.0272 378.785 98.0272 378.423V378.275H89.6019H81.1831L80.9506 378.049L80.7247 377.816V369.397V360.972L80.4858 360.979C80.3502 360.985 79.937 361.024 79.5626 361.069Z" fill="#FF9900"/>
<path d="M82.3379 368.81V376.661H90.1886H98.0393L97.9941 376.189C97.7875 373.975 97.2904 372.161 96.3478 370.237C94.7273 366.905 92.1061 364.284 88.7618 362.644C86.8701 361.721 84.9268 361.179 82.8415 361.004L82.3379 360.959V368.81Z" fill="#FF9900"/>
<g clip-path="url(#clip2_1_878)">
<path d="M249.966 188.643L249.713 188.875V190.755C249.713 192.56 249.72 192.648 249.857 192.833C250.164 193.25 250.834 193.25 251.142 192.833C251.279 192.648 251.285 192.539 251.306 190.953C251.333 189.087 251.299 188.861 250.971 188.588C250.656 188.321 250.294 188.342 249.966 188.643Z" fill="#FF9900"/>
<path d="M237.838 192.97C237.572 193.141 237.421 193.489 237.476 193.797C237.51 194.009 237.729 194.262 238.795 195.328C239.862 196.395 240.115 196.613 240.327 196.648C240.969 196.764 241.475 196.101 241.174 195.533C241.12 195.431 240.525 194.802 239.848 194.125C238.686 192.97 238.604 192.908 238.324 192.881C238.112 192.86 237.968 192.888 237.838 192.97Z" fill="#FF9900"/>
<path d="M261.082 194.207C259.804 195.485 259.729 195.574 259.729 195.813C259.729 196.47 260.33 196.873 260.877 196.586C261.185 196.422 263.475 194.07 263.522 193.858C263.659 193.318 263.304 192.853 262.75 192.853H262.436L261.082 194.207Z" fill="#FF9900"/>
<path d="M249.201 195.636C246.487 196.066 244.252 197.276 242.652 199.177C241.073 201.057 240.287 203.08 240.198 205.5C240.157 206.696 240.232 207.441 240.499 208.467C241.223 211.249 242.85 213.348 245.53 214.961L245.715 215.07V216.937C245.715 218.68 245.721 218.81 245.851 219.021C246.118 219.452 246.05 219.445 250.5 219.445C254.95 219.445 254.882 219.452 255.148 219.021C255.278 218.81 255.285 218.68 255.285 216.937V215.07L255.476 214.961C258.347 213.225 259.974 210.996 260.658 207.824C260.856 206.936 260.836 204.769 260.631 203.812C259.721 199.628 256.433 196.436 252.291 195.725C251.566 195.595 249.755 195.547 249.201 195.636ZM250.978 200.503C251.204 200.66 251.313 200.988 251.313 201.515L251.32 201.945H252.209C253.22 201.945 253.432 202.007 253.576 202.355C253.754 202.786 253.651 203.162 253.282 203.381C253.077 203.511 252.92 203.518 250.999 203.518H248.927V204.304V205.09H251.006C253.863 205.09 253.706 204.953 253.706 207.448C253.713 208.31 253.678 209.13 253.644 209.267C253.603 209.396 253.494 209.581 253.398 209.677C253.234 209.834 253.173 209.841 252.277 209.861L251.334 209.882L251.306 210.408C251.286 210.695 251.231 211.003 251.183 211.078C250.965 211.427 250.452 211.55 250.096 211.338C249.809 211.167 249.727 210.982 249.693 210.408L249.666 209.882L248.722 209.861C247.827 209.841 247.765 209.834 247.601 209.677C247.246 209.342 247.253 208.829 247.629 208.487L247.834 208.303H249.953H252.072V207.482V206.662H249.987C247.711 206.662 247.615 206.648 247.424 206.279C247.287 206.026 247.273 202.704 247.41 202.383C247.567 202.014 247.779 201.945 248.777 201.945H249.659L249.693 201.398C249.727 200.763 249.857 200.523 250.233 200.394C250.5 200.305 250.739 200.339 250.978 200.503Z" fill="#FF9900"/>
<path d="M233.546 205.138C233.334 205.213 233.068 205.534 233.027 205.753C232.972 206.033 233.095 206.348 233.327 206.525C233.485 206.655 233.608 206.662 235.405 206.662H237.32L237.511 206.471C237.894 206.081 237.825 205.514 237.354 205.227C237.149 205.104 237.005 205.09 235.392 205.097C234.435 205.097 233.601 205.117 233.546 205.138Z" fill="#FF9900"/>
<path d="M263.645 205.22C263.173 205.514 263.105 206.081 263.488 206.471L263.679 206.662H265.593C267.391 206.662 267.514 206.655 267.671 206.525C268.061 206.218 268.088 205.671 267.719 205.322L267.514 205.124L265.689 205.104C263.973 205.09 263.85 205.097 263.645 205.22Z" fill="#FF9900"/>
<path d="M237.476 214.694C236.649 215.166 235.89 215.645 235.787 215.754C235.569 215.993 235.534 216.328 235.699 216.636C235.822 216.882 236.232 217.08 236.491 217.026C236.792 216.964 239.698 215.262 239.827 215.07C239.889 214.982 239.937 214.776 239.937 214.612C239.937 214.236 239.643 213.915 239.246 213.86C239 213.833 238.85 213.901 237.476 214.694Z" fill="#FF9900"/>
<path d="M261.54 213.908C261.465 213.936 261.328 214.045 261.232 214.148C261.027 214.366 261 214.811 261.171 215.07C261.301 215.262 264.206 216.964 264.507 217.026C264.766 217.08 265.177 216.882 265.3 216.636C265.464 216.328 265.43 215.993 265.218 215.754C264.958 215.474 262.08 213.84 261.854 213.847C261.759 213.847 261.615 213.874 261.54 213.908Z" fill="#FF9900"/>
<path d="M247.798 221.079C247.272 221.298 247.183 222.036 247.634 222.412L247.846 222.59H250.505H253.165L253.37 222.398C253.746 222.063 253.753 221.551 253.397 221.216L253.219 221.052L250.581 221.038C249.125 221.031 247.874 221.052 247.798 221.079Z" fill="#FF9900"/>
</g>
<path d="M88.6523 105.076C88.6523 103.599 89.239 102.183 90.2832 101.138C91.3275 100.094 92.7438 99.5076 94.2205 99.5076H109.069C110.546 99.5076 111.962 100.094 113.006 101.138C114.051 102.183 114.637 103.599 114.637 105.076V111.032C112.817 110.516 110.889 110.516 109.069 111.032V106.004C109.069 105.758 108.971 105.522 108.797 105.348C108.623 105.174 108.387 105.076 108.141 105.076C107.895 105.076 107.659 105.174 107.485 105.348C107.311 105.522 107.213 105.758 107.213 106.004V111.759C105.165 112.804 103.53 114.51 102.573 116.6V113.428C102.573 113.182 102.475 112.946 102.301 112.772C102.127 112.598 101.891 112.5 101.645 112.5C101.399 112.5 101.163 112.598 100.989 112.772C100.815 112.946 100.717 113.182 100.717 113.428V118.996C100.717 119.122 100.742 119.246 100.791 119.361C100.841 119.477 100.913 119.581 101.003 119.668C101.094 119.755 101.202 119.822 101.319 119.866C101.437 119.91 101.562 119.93 101.687 119.924C101.512 121.844 101.884 123.775 102.76 125.492H94.2205C92.7438 125.492 91.3275 124.906 90.2832 123.862C89.239 122.817 88.6523 121.401 88.6523 119.924V105.076ZM95.1486 108.788C94.9024 108.788 94.6664 108.886 94.4923 109.06C94.3183 109.234 94.2205 109.47 94.2205 109.716V118.996C94.2205 119.242 94.3183 119.478 94.4923 119.652C94.6664 119.826 94.9024 119.924 95.1486 119.924C95.3947 119.924 95.6307 119.826 95.8048 119.652C95.9788 119.478 96.0766 119.242 96.0766 118.996V109.716C96.0766 109.47 95.9788 109.234 95.8048 109.06C95.6307 108.886 95.3947 108.788 95.1486 108.788ZM107.335 115.176C107.469 115.653 107.506 116.151 107.445 116.642C107.383 117.133 107.224 117.606 106.977 118.035C106.729 118.463 106.399 118.838 106.005 119.137C105.611 119.436 105.161 119.653 104.681 119.776L103.824 119.995C103.762 120.622 103.768 121.254 103.842 121.881L104.492 122.035C104.984 122.151 105.447 122.367 105.853 122.668C106.259 122.97 106.599 123.352 106.852 123.789C107.105 124.227 107.266 124.712 107.325 125.214C107.383 125.717 107.339 126.226 107.194 126.71L106.959 127.495C107.438 127.872 107.955 128.195 108.508 128.455L109.112 127.816C109.459 127.448 109.878 127.156 110.342 126.956C110.807 126.756 111.307 126.653 111.813 126.653C112.319 126.653 112.819 126.757 113.283 126.958C113.748 127.158 114.166 127.452 114.513 127.82L115.138 128.484C115.68 128.234 116.193 127.924 116.664 127.56L116.374 126.528C116.241 126.052 116.204 125.554 116.265 125.063C116.327 124.572 116.486 124.098 116.733 123.67C116.981 123.241 117.311 122.866 117.705 122.568C118.099 122.269 118.549 122.051 119.029 121.929L119.882 121.71C119.944 121.082 119.938 120.449 119.864 119.822L119.218 119.67C118.726 119.554 118.262 119.338 117.856 119.036C117.45 118.734 117.111 118.352 116.858 117.914C116.604 117.476 116.444 116.991 116.385 116.489C116.326 115.986 116.37 115.477 116.516 114.993L116.749 114.211C116.271 113.832 115.751 113.509 115.2 113.248L114.596 113.886C114.249 114.254 113.831 114.547 113.366 114.748C112.902 114.948 112.401 115.051 111.895 115.051C111.39 115.051 110.889 114.947 110.425 114.747C109.961 114.546 109.542 114.253 109.195 113.885L108.57 113.22C108.028 113.47 107.517 113.779 107.044 114.143L107.335 115.176ZM111.853 122.708C111.361 122.708 110.889 122.513 110.541 122.165C110.193 121.817 109.997 121.345 109.997 120.852C109.997 120.36 110.193 119.888 110.541 119.54C110.889 119.192 111.361 118.996 111.853 118.996C112.345 118.996 112.817 119.192 113.166 119.54C113.514 119.888 113.709 120.36 113.709 120.852C113.709 121.345 113.514 121.817 113.166 122.165C112.817 122.513 112.345 122.708 111.853 122.708Z" fill="#FF9900"/>
<defs>
<filter id="filter0_d_1_878" x="51" y="67" width="105" height="105" filterUnits="userSpaceOnUse" color-interpolation-filters="sRGB">
<feFlood flood-opacity="0" result="BackgroundImageFix"/>
<feColorMatrix in="SourceAlpha" type="matrix" values="0 0 0 0 0 0 0 0 0 0 0 0 0 0 0 0 0 0 127 0" result="hardAlpha"/>
<feOffset dy="6"/>
<feGaussianBlur stdDeviation="10"/>
<feComposite in2="hardAlpha" operator="out"/>
<feColorMatrix type="matrix" values="0 0 0 0 0 0 0 0 0 0 0 0 0 0 0 0 0 0 0.25 0"/>
<feBlend mode="normal" in2="BackgroundImageFix" result="effect1_dropShadow_1_878"/>
<feBlend mode="normal" in="SourceGraphic" in2="effect1_dropShadow_1_878" result="shape"/>
</filter>
<filter id="filter1_d_1_878" x="198" y="160" width="105" height="105" filterUnits="userSpaceOnUse" color-interpolation-filters="sRGB">
<feFlood flood-opacity="0" result="BackgroundImageFix"/>
<feColorMatrix in="SourceAlpha" type="matrix" values="0 0 0 0 0 0 0 0 0 0 0 0 0 0 0 0 0 0 127 0" result="hardAlpha"/>
<feOffset dy="6"/>
<feGaussianBlur stdDeviation="10"/>
<feComposite in2="hardAlpha" operator="out"/>
<feColorMatrix type="matrix" values="0 0 0 0 0 0 0 0 0 0 0 0 0 0 0 0 0 0 0.25 0"/>
<feBlend mode="normal" in2="BackgroundImageFix" result="effect1_dropShadow_1_878"/>
<feBlend mode="normal" in="SourceGraphic" in2="effect1_dropShadow_1_878" result="shape"/>
</filter>
<filter id="filter2_d_1_878" x="253" y="272" width="105" height="105" filterUnits="userSpaceOnUse" color-interpolation-filters="sRGB">
<feFlood flood-opacity="0" result="BackgroundImageFix"/>
<feColorMatrix in="SourceAlpha" type="matrix" values="0 0 0 0 0 0 0 0 0 0 0 0 0 0 0 0 0 0 127 0" result="hardAlpha"/>
<feOffset dy="6"/>
<feGaussianBlur stdDeviation="10"/>
<feComposite in2="hardAlpha" operator="out"/>
<feColorMatrix type="matrix" values="0 0 0 0 0 0 0 0 0 0 0 0 0 0 0 0 0 0 0.25 0"/>
<feBlend mode="normal" in2="BackgroundImageFix" result="effect1_dropShadow_1_878"/>
<feBlend mode="normal" in="SourceGraphic" in2="effect1_dropShadow_1_878" result="shape"/>
</filter>
<filter id="filter3_d_1_878" x="29" y="332" width="105" height="106" filterUnits="userSpaceOnUse" color-interpolation-filters="sRGB">
<feFlood flood-opacity="0" result="BackgroundImageFix"/>
<feColorMatrix in="SourceAlpha" type="matrix" values="0 0 0 0 0 0 0 0 0 0 0 0 0 0 0 0 0 0 127 0" result="hardAlpha"/>
<feOffset dy="6"/>
<feGaussianBlur stdDeviation="10"/>
<feComposite in2="hardAlpha" operator="out"/>
<feColorMatrix type="matrix" values="0 0 0 0 0 0 0 0 0 0 0 0 0 0 0 0 0 0 0.25 0"/>
<feBlend mode="normal" in2="BackgroundImageFix" result="effect1_dropShadow_1_878"/>
<feBlend mode="normal" in="SourceGraphic" in2="effect1_dropShadow_1_878" result="shape"/>
</filter>
<filter id="filter4_d_1_878" x="258" y="16" width="105" height="105" filterUnits="userSpaceOnUse" color-interpolation-filters="sRGB">
<feFlood flood-opacity="0" result="BackgroundImageFix"/>
<feColorMatrix in="SourceAlpha" type="matrix" values="0 0 0 0 0 0 0 0 0 0 0 0 0 0 0 0 0 0 127 0" result="hardAlpha"/>
<feOffset dy="5"/>
<feGaussianBlur stdDeviation="10"/>
<feComposite in2="hardAlpha" operator="out"/>
<feColorMatrix type="matrix" values="0 0 0 0 0 0 0 0 0 0 0 0 0 0 0 0 0 0 0.25 0"/>
<feBlend mode="normal" in2="BackgroundImageFix" result="effect1_dropShadow_1_878"/>
<feBlend mode="normal" in="SourceGraphic" in2="effect1_dropShadow_1_878" result="shape"/>
</filter>
<clipPath id="clip0_1_878">
<rect width="35" height="35" fill="white" transform="translate(293 46)"/>
</clipPath>
<clipPath id="clip1_1_878">
<rect width="35" height="35" fill="white" transform="translate(293 46)"/>
</clipPath>
<clipPath id="clip2_1_878">
<rect width="35" height="35" fill="white" transform="translate(233 188)"/>
</clipPath>
</defs>
</svg>
